<svg width="24" height="24" viewBox="0 0 24 24" fill="none" xmlns="http://www.w3.org/2000/svg">
<g clip-path="url(#clip0_2558_78339)">
<path d="M21 0.75H3.0375C2.43143 0.751977 1.85074 0.993616 1.42218 1.42218C0.993616 1.85074 0.751977 2.43143 0.75 3.0375V21C0.761755 21.5995 1.0077 22.1707 1.43522 22.5912C1.86273 23.0117 2.43784 23.2482 3.0375 23.25H21C21.5931 23.2385 22.1588 22.9977 22.5782 22.5782C22.9977 22.1588 23.2385 21.5931 23.25 21V3.0375C23.2482 2.43784 23.0117 1.86273 22.5912 1.43522C22.1707 1.0077 21.5995 0.761755 21 0.75ZM21.75 21C21.75 21.1989 21.671 21.3897 21.5303 21.5303C21.3897 21.671 21.1989 21.75 21 21.75H3.0375C2.9359 21.7551 2.83433 21.7395 2.73896 21.704C2.64359 21.6686 2.55642 21.6142 2.48276 21.544C2.40909 21.4739 2.35047 21.3895 2.31046 21.2959C2.27044 21.2024 2.24987 21.1017 2.25 21V3.0375C2.25 2.83859 2.32902 2.64782 2.46967 2.50717C2.61032 2.36652 2.80109 2.2875 3 2.2875H21C21.1016 2.28241 21.2032 2.29805 21.2985 2.33346C21.3939 2.36886 21.4811 2.4233 21.5547 2.49346C21.6284 2.56362 21.687 2.64803 21.727 2.74155C21.7671 2.83508 21.7876 2.93577 21.7875 3.0375L21.75 21Z" fill="#343B45"/>
<path d="M9.75 4.5H5.25C5.05109 4.5 4.86032 4.57902 4.71967 4.71967C4.57902 4.86032 4.5 5.05109 4.5 5.25V10.5C4.5 10.6989 4.57902 10.8897 4.71967 11.0303C4.86032 11.171 5.05109 11.25 5.25 11.25H9.75C9.94891 11.25 10.1397 11.171 10.2803 11.0303C10.421 10.8897 10.5 10.6989 10.5 10.5V5.25C10.5 5.05109 10.421 4.86032 10.2803 4.71967C10.1397 4.57902 9.94891 4.5 9.75 4.5ZM9 9.75H6V6H9V9.75Z" fill="#343B45"/>
<path d="M9.75 12.75H5.25C5.05109 12.75 4.86032 12.829 4.71967 12.9697C4.57902 13.1103 4.5 13.3011 4.5 13.5V18.75C4.5 18.9489 4.57902 19.1397 4.71967 19.2803C4.86032 19.421 5.05109 19.5 5.25 19.5H9.75C9.94891 19.5 10.1397 19.421 10.2803 19.2803C10.421 19.1397 10.5 18.9489 10.5 18.75V13.5C10.5 13.3011 10.421 13.1103 10.2803 12.9697C10.1397 12.829 9.94891 12.75 9.75 12.75ZM9 18H6V14.25H9V18Z" fill="#343B45"/>
<path d="M18.75 12.75H14.25C14.0511 12.75 13.8603 12.829 13.7197 12.9697C13.579 13.1103 13.5 13.3011 13.5 13.5V18.75C13.5 18.9489 13.579 19.1397 13.7197 19.2803C13.8603 19.421 14.0511 19.5 14.25 19.5H18.75C18.9489 19.5 19.1397 19.421 19.2803 19.2803C19.421 19.1397 19.5 18.9489 19.5 18.75V13.5C19.5 13.3011 19.421 13.1103 19.2803 12.9697C19.1397 12.829 18.9489 12.75 18.75 12.75ZM18 18H15V14.25H18V18Z" fill="#343B45"/>
<path d="M18.75 6.75H17.25V5.25C17.25 5.05109 17.171 4.86032 17.0303 4.71967C16.8897 4.57902 16.6989 4.5 16.5 4.5C16.3011 4.5 16.1103 4.57902 15.9697 4.71967C15.829 4.86032 15.75 5.05109 15.75 5.25V6.75H14.25C14.0511 6.75 13.8603 6.82902 13.7197 6.96967C13.579 7.11032 13.5 7.30109 13.5 7.5C13.5 7.69891 13.579 7.88968 13.7197 8.03033C13.8603 8.17098 14.0511 8.25 14.25 8.25H15.75V9.75C15.75 9.94891 15.829 10.1397 15.9697 10.2803C16.1103 10.421 16.3011 10.5 16.5 10.5C16.6989 10.5 16.8897 10.421 17.0303 10.2803C17.171 10.1397 17.25 9.94891 17.25 9.75V8.25H18.75C18.9489 8.25 19.1397 8.17098 19.2803 8.03033C19.421 7.88968 19.5 7.69891 19.5 7.5C19.5 7.30109 19.421 7.11032 19.2803 6.96967C19.1397 6.82902 18.9489 6.75 18.75 6.75Z" fill="#343B45"/>
</g>
<defs>
<clipPath id="clip0_2558_78339">
<rect width="24" height="24" fill="white"/>
</clipPath>
</defs>
</svg>
