<svg width="24" height="24" viewBox="0 0 24 24" fill="none" xmlns="http://www.w3.org/2000/svg">
<path fill-rule="evenodd" clip-rule="evenodd" d="M12 0.75C9.51675 0.75 7.5 2.76675 7.5 5.25C7.5 7.73325 9.51675 9.75 12 9.75C14.4833 9.75 16.5 7.73325 16.5 5.25C16.5 2.76675 14.4833 0.75 12 0.75ZM12 2.25C13.656 2.25 15 3.594 15 5.25C15 6.906 13.656 8.25 12 8.25C10.344 8.25 9 6.906 9 5.25C9 3.594 10.344 2.25 12 2.25Z" fill="white"/>
<path fill-rule="evenodd" clip-rule="evenodd" d="M6.009 13.827C5.97 13.8023 5.92875 13.7812 5.8845 13.7632C5.45625 13.5937 4.98975 13.5 4.5015 13.5H4.4985C2.4285 13.5 0.75 15.1785 0.75 17.2485V22.5C0.75 22.914 1.086 23.25 1.5 23.25H22.8218C23.2358 23.25 23.5718 22.914 23.5718 22.5V17.0355C23.5718 16.098 23.199 15.1988 22.536 14.5358C21.873 13.8728 20.9738 13.5 20.0363 13.5C19.4632 13.5 18.903 13.6395 18.4042 13.899C18.3247 13.9402 18.2565 13.9935 18.1987 14.055C16.6867 12.3352 14.4713 11.25 12.0015 11.25C12.0008 11.25 11.9993 11.25 11.9985 11.25C9.63975 11.25 7.51275 12.24 6.009 13.827ZM18.75 21.75H17.25H7.5H5.25V19.4985C5.25 15.7717 8.27175 12.75 11.9985 12.75H12.0015C15.7283 12.75 18.75 15.7717 18.75 19.4985V21.75ZM20.25 21.75H22.0718V17.0355C22.0718 16.4955 21.8573 15.978 21.4755 15.5963C21.0938 15.2145 20.5755 15 20.0363 15C19.7062 15 19.3838 15.0802 19.0958 15.2295C19.0868 15.2347 19.0777 15.2392 19.0687 15.243C19.8187 16.485 20.25 17.9415 20.25 19.4985V21.75ZM5.0415 15.0652C4.86825 15.0225 4.6875 15 4.5015 15H4.4985C3.2565 15 2.25 16.0065 2.25 17.2485V21.75H3.75V19.4985C3.75 17.8665 4.224 16.3455 5.0415 15.0652Z" fill="white"/>
<path fill-rule="evenodd" clip-rule="evenodd" d="M4.5 6.75C2.844 6.75 1.5 8.094 1.5 9.75C1.5 11.406 2.844 12.75 4.5 12.75C6.156 12.75 7.5 11.406 7.5 9.75C7.5 8.094 6.156 6.75 4.5 6.75ZM4.5 8.25C5.328 8.25 6 8.922 6 9.75C6 10.578 5.328 11.25 4.5 11.25C3.672 11.25 3 10.578 3 9.75C3 8.922 3.672 8.25 4.5 8.25Z" fill="white"/>
<path fill-rule="evenodd" clip-rule="evenodd" d="M20.0352 6.75C18.3799 6.75 17.0352 8.094 17.0352 9.75C17.0352 11.406 18.3799 12.75 20.0352 12.75C21.6912 12.75 23.0352 11.406 23.0352 9.75C23.0352 8.094 21.6912 6.75 20.0352 6.75ZM20.0352 8.25C20.8632 8.25 21.5352 8.922 21.5352 9.75C21.5352 10.578 20.8632 11.25 20.0352 11.25C19.2072 11.25 18.5352 10.578 18.5352 9.75C18.5352 8.922 19.2072 8.25 20.0352 8.25Z" fill="white"/>
</svg>
