<svg width="400" height="400" viewBox="0 0 400 400" fill="none" xmlns="http://www.w3.org/2000/svg">
<path d="M237.563 0.000159509C224.623 -0.0203734 106.564 1.78259 42.0516 99.1844C7.71193 151.031 -15.3292 235.814 18.3316 282.009C28.2719 295.65 33.4822 292.649 86.6167 324.939C159.552 369.261 159.211 380.673 189.404 390.815C228.709 404.017 286.785 403.989 330.287 371.57C379.649 334.784 386.949 273.656 394.259 212.432C401.435 152.347 408.704 91.4693 370.54 46.6316C330.974 0.148044 267.383 0.0473414 237.563 0.000159509Z" fill="#FFD4CF"/>
<path d="M390.223 266.569L161.906 234.817C156.174 234.086 151.878 229.208 151.878 223.429L148.746 64.176C148.746 64.176 153.951 60.4239 156.9 58.9859C158.401 58.2542 160.13 57.9335 161.928 58.1629L389.565 87.1933C395.298 87.9244 399.593 92.8027 399.593 98.5816V254.998C399.593 257.796 398.315 260.264 396.336 261.891C394.514 263.389 390.223 266.569 390.223 266.569Z" fill="#FC988E"/>
<path d="M383.255 268.684L155.618 239.654C149.886 238.923 145.59 234.045 145.59 228.266V71.8495C145.59 66.4744 150.308 62.3198 155.64 62.9998L383.277 92.0302C389.01 92.7613 393.305 97.6396 393.305 103.419V259.835C393.305 265.21 388.587 269.364 383.255 268.684Z" fill="white"/>
<path d="M378.414 262.238L161.054 234.518C156.886 233.987 153.762 230.439 153.762 226.237V75.3586C153.762 71.7686 156.913 68.9941 160.474 69.4482L377.833 97.1678C382.002 97.6994 385.126 101.247 385.126 105.45V256.328C385.126 259.917 381.975 262.692 378.414 262.238Z" fill="#FFD4CF"/>
<path d="M384.382 269.478C383.977 269.478 383.569 269.452 383.163 269.4L155.526 240.371C149.449 239.595 144.867 234.392 144.867 228.266V71.8499C144.867 69.0808 146.059 66.4434 148.137 64.6136C150.215 62.7838 152.982 61.9358 155.73 62.2851L383.367 91.3151C389.443 92.0903 394.025 97.2941 394.025 103.419V259.836C394.025 262.605 392.833 265.242 390.755 267.072C388.984 268.631 386.714 269.478 384.382 269.478ZM383.345 267.969C385.682 268.267 388.035 267.546 389.801 265.99C391.569 264.434 392.582 262.19 392.582 259.836V103.419C392.582 98.018 388.542 93.4295 383.184 92.7463L155.547 63.7163C153.213 63.419 150.858 64.1398 149.09 65.6964C147.323 67.2525 146.31 69.4952 146.31 71.8499V228.266C146.31 233.667 150.35 238.256 155.708 238.939L383.345 267.969Z" fill="#E74C3C"/>
<path d="M250.451 360.802L16.3349 330.61C14.5024 330.375 13.469 328.841 13.4926 327.306C13.5087 326.248 13.5946 318.796 13.5946 318.796L137.383 248.028C143.586 244.486 151.61 243.118 158.695 244.025L389.854 273.844C391.246 274.024 392.439 274.927 392.99 276.217L393.362 277.087C393.362 277.087 393.164 283.302 393.244 284.754C393.307 285.889 392.796 287.061 391.607 287.74L270.925 356.742C264.723 360.284 257.535 361.709 250.451 360.802Z" fill="#FC988E"/>
<path d="M45.1282 325.985L17.1708 322.374C14.0742 321.977 13.2597 317.87 15.9705 316.322L136.004 247.765C142.207 244.223 149.394 242.797 156.479 243.705L389.758 273.84C392.854 274.236 393.669 278.344 390.958 279.892L270.924 348.448C264.722 351.991 257.534 353.416 250.449 352.509L45.1282 325.985Z" fill="white"/>
<path d="M296.124 314.454L93.8409 288.132C91.0441 287.774 90.3084 284.065 92.7568 282.667L140.32 255.776C145.921 252.577 152.413 251.289 158.812 252.109L361.095 278.43C363.891 278.789 364.627 282.498 362.179 283.896L314.616 310.787C309.014 313.986 302.523 315.274 296.124 314.454Z" fill="#FFD4CF"/>
<path d="M254.572 353.492C253.164 353.492 251.757 353.404 250.358 353.225L136.119 338.573C135.724 338.522 135.445 338.161 135.496 337.766C135.546 337.371 135.91 337.096 136.302 337.142L250.541 351.794C257.425 352.677 264.537 351.265 270.566 347.822L390.6 279.266C391.767 278.6 392 277.439 391.828 276.575C391.657 275.711 390.999 274.726 389.666 274.556L156.387 244.42C149.503 243.539 142.39 244.949 136.362 248.392L119.544 257.998C119.199 258.195 118.758 258.075 118.56 257.729C118.362 257.383 118.483 256.943 118.828 256.745L135.647 247.139C141.945 243.543 149.379 242.07 156.571 242.99L389.85 273.125C391.573 273.346 392.905 274.59 393.243 276.295C393.581 277.999 392.824 279.657 391.315 280.519L271.282 349.075C266.208 351.972 260.399 353.492 254.572 353.492Z" fill="#FC988E"/>
<path d="M360.327 254.826L180.553 232.088C177.458 231.697 174.949 228.731 174.949 225.464V6.09738C174.949 2.83025 177.458 0.499118 180.553 0.890553L360.327 23.6281C363.422 24.0195 365.931 26.9852 365.931 30.2523V249.619C365.931 252.886 363.422 255.217 360.327 254.826Z" fill="#FC988E"/>
<path d="M361.003 255.591C360.749 255.591 360.494 255.574 360.236 255.542L180.46 232.804C177.023 232.37 174.227 229.077 174.227 225.464V6.09773C174.227 4.25567 174.929 2.622 176.205 1.49706C177.41 0.435253 178.985 -0.0328515 180.642 0.175317L360.417 22.9133C363.854 23.3475 366.651 26.6402 366.651 30.2529V249.62C366.651 251.462 365.948 253.095 364.672 254.221C363.655 255.117 362.374 255.591 361.003 255.591ZM360.417 254.111C361.657 254.268 362.829 253.922 363.718 253.138C364.679 252.291 365.208 251.041 365.208 249.62V30.2527C365.208 27.3414 362.977 24.6907 360.236 24.3442L180.46 1.60628C179.22 1.44704 178.048 1.79457 177.159 2.57918C176.198 3.42627 175.669 4.67573 175.669 6.09752V225.464C175.669 228.376 177.9 231.026 180.642 231.373L360.417 254.111Z" fill="black"/>
<path d="M332.311 133.466L209.038 117.874C207.748 117.711 206.703 116.475 206.703 115.114V103.283C206.703 101.922 207.748 100.95 209.038 101.114L332.311 116.705C333.6 116.868 334.645 118.104 334.645 119.465V131.296C334.645 132.658 333.6 133.629 332.311 133.466Z" fill="white"/>
<path d="M333.241 167.102L209.037 151.393C208.005 151.262 207.168 150.273 207.168 149.183V136.369C207.168 135.279 208.005 134.502 209.037 134.632L333.241 150.342C334.273 150.472 335.11 151.462 335.11 152.551V165.366C335.11 166.455 334.273 167.233 333.241 167.102Z" fill="white"/>
<path d="M313.868 199.653L227.481 188.727C226.063 188.547 224.914 187.189 224.914 185.692V174.351C224.914 172.855 226.063 171.787 227.481 171.966L313.868 182.892C315.286 183.071 316.435 184.43 316.435 185.926V197.267C316.435 198.764 315.286 199.832 313.868 199.653Z" fill="#FFD4CF"/>
<path d="M290.106 87.3566C300.963 78.13 301.321 60.7163 290.907 48.462C280.492 36.2078 263.249 33.7535 252.392 42.9801C241.535 52.2068 241.177 69.6205 251.591 81.8748C262.006 94.129 279.25 96.5833 290.106 87.3566Z" fill="#E74C3C"/>
<path d="M277.366 69.0774C281.155 65.8567 281.281 59.7784 277.645 55.5009C274.01 51.2235 267.991 50.3668 264.201 53.5875C260.412 56.8081 260.287 62.8865 263.922 67.1639C267.557 71.4413 273.576 72.298 277.366 69.0774Z" fill="white"/>
<path d="M251.305 81.5377C254.557 78.3064 258.506 75.1413 262.714 73.2497C263.73 72.7927 264.935 72.8095 266.048 73.2986C270.33 75.1793 273.661 74.9653 277.36 74.0271C278.259 73.7993 279.255 73.9613 280.113 74.4965C284.74 77.3825 288.74 81.0845 291.786 85.7765C279.765 97.8594 260.51 93.5726 251.305 81.5377Z" fill="white"/>
<path d="M271.244 93.9204C255.586 92.0213 242.848 77.5798 242.848 61.7282C242.848 45.8768 255.586 34.5252 271.244 36.4243C286.902 38.3233 299.64 52.7649 299.64 68.6165C299.64 84.4681 286.902 95.8195 271.244 93.9204ZM271.244 38.7668C256.862 37.0223 245.162 47.4491 245.162 62.0089C245.162 76.5686 256.862 89.8335 271.244 91.5779C285.626 93.3223 297.326 82.8956 297.326 68.3358C297.327 53.7763 285.626 40.5112 271.244 38.7668Z" fill="#FFD4CF"/>
<path d="M42.6847 199.961C36.0228 202.433 30.3667 207.638 26.5181 214.489C16.6981 231.969 -8.93169 283.206 3.19099 322.77C18.04 371.231 143.577 369.935 176.294 349.31C184.606 344.07 218.616 308.721 174.964 279.338C134.953 252.406 118.417 272.176 99.9674 261.565C81.5177 250.954 68.1919 208.37 61.3853 202.319C56.9895 198.411 50.1507 197.191 42.6847 199.961Z" fill="#E74C3C"/>
<path d="M81.3011 316.575C81.1165 316.575 80.932 316.505 80.7913 316.364C64.2027 299.787 25.6265 297.824 25.2385 297.806C24.8408 297.788 24.5332 297.451 24.5516 297.052C24.5699 296.655 24.9159 296.355 25.3052 296.366C26.9111 296.439 64.8303 298.375 81.8109 315.343C82.0927 315.625 82.0927 316.082 81.8114 316.364C81.6707 316.505 81.4857 316.575 81.3011 316.575Z" fill="#FC988E"/>
<path d="M120.163 317.486C120.065 317.486 119.966 317.466 119.871 317.423C106.935 311.669 97.8044 316.83 97.7138 316.883C97.3704 317.084 96.9292 316.967 96.7278 316.624C96.5268 316.28 96.6419 315.839 96.9851 315.638C97.3796 315.406 106.811 310.033 120.457 316.106C120.821 316.267 120.985 316.693 120.823 317.057C120.703 317.326 120.44 317.486 120.163 317.486Z" fill="#FC988E"/>
<path d="M179.069 348.154C179.184 348.533 193.044 364.197 193.044 364.197L183.805 367.835L172.645 354.249L179.069 348.154Z" fill="white"/>
<path d="M183.803 368.556C183.592 368.556 183.386 368.462 183.246 368.292L172.086 354.707C171.846 354.414 171.872 353.986 172.147 353.726L178.572 347.631C178.754 347.459 179.011 347.394 179.253 347.457C179.447 347.508 179.609 347.638 179.703 347.811C180.263 348.606 188.285 357.731 193.583 363.719C193.739 363.895 193.8 364.136 193.745 364.365C193.69 364.594 193.526 364.782 193.308 364.868L184.068 368.505C183.982 368.539 183.892 368.556 183.803 368.556ZM173.627 354.31L184.027 366.971L191.821 363.903C183.13 354.078 180.084 350.541 178.998 349.215L173.627 354.31Z" fill="black"/>
<path d="M183.648 361.456C184.003 360.672 184.62 359.776 185.68 359.206C187.277 358.347 189.253 358.64 190.646 359.8C194.13 362.701 203.583 370.905 208.931 378.761C210.821 381.537 209.721 385.072 205.226 384.828C197.86 384.43 186.231 380.958 176.745 372.11C175.657 371.094 175.146 369.597 175.421 368.133C175.645 366.937 176.011 365.443 176.595 364.038C177.154 362.695 178.619 361.97 180.034 362.306L181.308 362.609C182.264 362.837 183.242 362.352 183.648 361.456Z" fill="white"/>
<path d="M205.67 385.562C205.514 385.562 205.353 385.557 205.187 385.549C197.442 385.129 185.773 381.517 176.253 372.638C174.968 371.439 174.392 369.705 174.712 368C175.009 366.415 175.418 364.988 175.929 363.761C176.624 362.089 178.419 361.18 180.2 361.605L181.474 361.908C182.089 362.053 182.727 361.739 182.99 361.158C183.51 360.012 184.322 359.117 185.339 358.57C187.142 357.601 189.46 357.873 191.108 359.246C194.863 362.373 204.176 370.495 209.528 378.355C210.66 380.018 210.852 381.957 210.03 383.415C209.566 384.236 208.395 385.562 205.67 385.562ZM179.329 362.945C178.434 362.945 177.613 363.468 177.261 364.315C176.788 365.45 176.408 366.779 176.13 368.266C175.901 369.483 176.315 370.723 177.237 371.583C186.474 380.199 197.772 383.703 205.265 384.108C206.969 384.205 208.211 383.703 208.773 382.706C209.325 381.73 209.156 380.373 208.335 379.166C203.086 371.458 193.894 363.443 190.184 360.355C188.984 359.355 187.311 359.149 186.021 359.841C185.275 360.242 184.697 360.885 184.304 361.754C183.757 362.961 182.424 363.619 181.141 363.311L179.866 363.008C179.686 362.965 179.506 362.945 179.329 362.945Z" fill="black"/>
<path d="M203.699 381.92C199.427 381.92 191.365 380.098 178.629 370.445C178.312 370.205 178.25 369.752 178.49 369.435C178.731 369.118 179.184 369.056 179.501 369.296C198.798 383.921 206.724 380.022 206.801 379.98C207.154 379.794 207.59 379.928 207.776 380.28C207.962 380.633 207.828 381.069 207.475 381.255C207.348 381.323 206.144 381.92 203.699 381.92Z" fill="black"/>
<path d="M195.694 373.637C195.518 373.637 195.343 373.573 195.204 373.445C194.912 373.174 194.894 372.717 195.165 372.425L198.905 368.389C199.176 368.097 199.632 368.08 199.924 368.35C200.216 368.621 200.234 369.078 199.963 369.37L196.223 373.406C196.081 373.559 195.887 373.637 195.694 373.637Z" fill="black"/>
<path d="M192.385 370.916C192.202 370.916 192.018 370.847 191.877 370.707C191.595 370.426 191.593 369.969 191.874 369.687L195.992 365.535C196.272 365.253 196.728 365.25 197.012 365.532C197.295 365.812 197.297 366.269 197.016 366.552L192.897 370.703C192.756 370.845 192.571 370.916 192.385 370.916Z" fill="black"/>
<path d="M150.175 356.529L145.919 375.216L138.922 369.889L142.156 351.927L150.175 356.529Z" fill="white"/>
<path d="M145.917 375.937C145.762 375.937 145.608 375.887 145.481 375.789L138.484 370.463C138.268 370.299 138.163 370.028 138.211 369.761L141.445 351.799C141.487 351.568 141.638 351.371 141.851 351.273C142.064 351.174 142.311 351.184 142.514 351.301L150.532 355.903C150.807 356.061 150.947 356.38 150.877 356.688L146.621 375.376C146.567 375.614 146.394 375.81 146.164 375.893C146.084 375.923 146 375.937 145.917 375.937ZM139.708 369.582L145.463 373.963L149.351 356.889L142.683 353.061L139.708 369.582Z" fill="black"/>
<path d="M148.331 371.828C147.904 377.643 146.877 389.336 142.479 397.627C141.299 399.851 136.694 399.685 135.021 396.652C131.534 390.329 127.078 379.584 129.7 366.611C129.905 365.597 130.582 364.74 131.52 364.306C132.62 363.796 134.361 363.156 136.838 362.705C138.071 362.48 139.242 363.345 139.392 364.591L139.945 369.163L140.528 368.405C141.405 367.264 142.946 366.868 144.264 367.447C144.973 367.758 145.757 368.103 146.466 368.414C147.792 368.996 148.438 370.383 148.331 371.828Z" fill="white"/>
<path d="M139.423 399.856C137.319 399.856 135.347 398.739 134.389 397.001C128.771 386.816 126.956 376.544 128.991 366.469C129.242 365.234 130.072 364.181 131.215 363.652C132.279 363.159 134.094 362.471 136.707 361.995C137.492 361.854 138.305 362.042 138.945 362.514C139.588 362.988 140.012 363.713 140.107 364.504L140.46 367.424C141.568 366.444 143.157 366.173 144.553 366.787L146.755 367.754C148.284 368.426 149.184 370.045 149.05 371.881C148.504 379.304 147.295 390.083 143.115 397.965C142.495 399.135 141.133 399.842 139.471 399.855C139.455 399.855 139.439 399.856 139.423 399.856ZM137.23 363.39C137.142 363.39 137.054 363.399 136.966 363.414C134.503 363.864 132.808 364.503 131.821 364.961C131.094 365.298 130.564 365.968 130.405 366.755C128.439 376.486 130.204 386.428 135.652 396.304C136.518 397.877 138.231 398.427 139.459 398.413C140.565 398.404 141.478 397.974 141.841 397.289C146.363 388.764 147.269 376.422 147.611 371.775C147.702 370.539 147.151 369.504 146.175 369.075L143.972 368.107C142.956 367.661 141.775 367.965 141.098 368.845L140.515 369.603C140.337 369.835 140.036 369.937 139.753 369.859C139.47 369.782 139.263 369.542 139.227 369.25L138.675 364.678C138.626 364.274 138.418 363.918 138.089 363.676C137.835 363.488 137.537 363.39 137.23 363.39Z" fill="black"/>
<path d="M138.64 396.216C138.401 396.216 138.168 396.098 138.031 395.882C129.872 383.068 131.72 368.312 131.802 367.69C131.855 367.295 132.21 367.015 132.612 367.071C133.007 367.123 133.285 367.485 133.233 367.88C133.213 368.027 131.378 382.749 139.248 395.107C139.461 395.443 139.363 395.889 139.026 396.103C138.906 396.179 138.772 396.216 138.64 396.216Z" fill="black"/>
<path d="M146.898 380.519C146.832 380.519 146.765 380.51 146.698 380.491L141.256 378.922C140.873 378.812 140.652 378.412 140.763 378.029C140.873 377.646 141.273 377.426 141.655 377.536L147.097 379.105C147.48 379.215 147.701 379.615 147.59 379.997C147.5 380.313 147.211 380.519 146.898 380.519Z" fill="black"/>
<path d="M145.849 385.251C145.764 385.251 145.678 385.237 145.595 385.205L140.456 383.272C140.083 383.131 139.895 382.715 140.035 382.342C140.175 381.969 140.592 381.781 140.964 381.921L146.103 383.855C146.476 383.995 146.664 384.411 146.524 384.784C146.415 385.073 146.14 385.251 145.849 385.251Z" fill="black"/>
<path d="M102.724 271.153C102.724 271.153 128.772 268.056 152.241 281.333C158.157 284.68 161.785 290.974 161.747 297.771C161.673 311.263 160.246 335.926 151.979 357.336C151.509 358.554 150.113 359.13 148.919 358.601L138.356 353.925C137.646 353.611 137.144 352.96 137.024 352.194C136.247 347.248 133.622 328.438 136.252 314.794C139.305 298.957 88.2773 282.173 88.2773 282.173L102.724 271.153Z" fill="black"/>
<path d="M181.922 351.446L172.507 357.633C171.878 358.047 171.042 357.942 170.535 357.386C164.742 351.035 132.039 315.37 123.84 310.7C114.834 305.57 98.0067 297.849 82.7245 297.941C67.4424 298.033 64.2188 287.418 64.2188 287.418L86.0109 273.337C86.0109 273.337 123.721 277.606 139.656 290.568C154.045 302.271 177.902 341.818 182.399 349.386C182.817 350.09 182.606 350.996 181.922 351.446Z" fill="black"/>
<path d="M161.576 316.628C161.352 316.628 161.131 316.524 160.99 316.327C154.636 307.485 144.748 295.642 139.199 291.129C133.196 286.246 123.388 282.038 110.046 278.619C109.66 278.52 109.428 278.128 109.527 277.742C109.626 277.356 110.017 277.121 110.404 277.222C123.949 280.692 133.944 284.994 140.11 290.009C145.752 294.599 155.753 306.566 162.161 315.486C162.394 315.809 162.32 316.26 161.997 316.492C161.869 316.584 161.722 316.628 161.576 316.628Z" fill="#E74C3C"/>
<path d="M85.6709 239.021L88.4623 244.765C91.7845 251.602 96.8935 257.41 103.247 261.576L105.824 263.265C107.475 264.347 109.438 264.851 111.406 264.698L111.707 264.674C114.714 264.44 117.702 265.318 120.105 267.142L113.35 269.313C109.231 270.637 104.745 270.326 100.886 268.37C97.1888 266.495 92.6674 263.419 88.8985 258.509C81.0019 248.221 79.1758 241.886 79.1758 241.886L85.6709 239.021Z" fill="white"/>
<path d="M108.221 270.846C105.575 270.846 102.96 270.23 100.558 269.012C95.6622 266.53 91.5461 263.143 88.3252 258.947C80.4363 248.669 78.5575 242.349 78.4815 242.085C78.3814 241.739 78.5534 241.371 78.8834 241.226L85.3788 238.361C85.7353 238.205 86.1494 238.357 86.3189 238.706L89.1099 244.45C92.3737 251.166 97.399 256.879 103.642 260.972L106.218 262.661C107.727 263.65 109.549 264.116 111.35 263.979L111.65 263.955C114.836 263.703 117.994 264.634 120.541 266.568C120.755 266.73 120.861 266.998 120.816 267.264C120.771 267.529 120.581 267.747 120.325 267.829L113.57 270C111.81 270.565 110.008 270.846 108.221 270.846ZM80.0704 242.279C80.7255 244.069 83.1206 249.798 89.469 258.069C92.5576 262.093 96.5082 265.342 101.211 267.726C104.893 269.593 109.125 269.913 113.128 268.627L118.46 266.913C116.441 265.746 114.108 265.211 111.762 265.393L111.461 265.417C109.343 265.582 107.201 265.031 105.427 263.868L102.851 262.179C96.3901 257.944 91.1896 252.031 87.8117 245.081L85.3244 239.962L80.0704 242.279Z" fill="black"/>
<path d="M77.0671 294.107C77.0671 294.107 68.5014 300.646 63.7924 298.765C59.0834 296.884 67.1884 288.829 69.5764 288.517C71.9645 288.205 77.0671 294.107 77.0671 294.107Z" fill="black"/>
<path d="M78.5622 197.647C82.4158 197.113 86.8085 200.486 86.3721 206.238C86.0154 210.937 81.1135 212.357 78.845 214.866C71.5078 222.981 78.5499 231.788 72.8138 239.883C67.3499 247.593 59.0566 242.286 47.9571 251.14C39.2186 258.111 70.9818 247.519 59.8624 254.873C50.9911 260.741 34.3481 260.25 24.9425 249.467C15.9992 239.213 13.9424 223.821 23.1055 216.394C31.3425 209.717 37.1579 217.506 45.9413 211.242C54.6007 205.066 52.2198 199.079 57.6282 196.499C65.0242 192.97 67.64 199.163 78.5622 197.647Z" fill="black"/>
<path d="M32.9844 255.087C33.4756 252.198 34.1908 248.8 34.9195 246.561C37.1624 239.668 38.6925 235.184 46.381 231.086C47.5319 230.473 48.7407 229.974 49.9779 229.561L54.6238 228.01C54.6238 228.01 73.8011 222.526 81.4815 229.939C82.1038 230.539 82.8915 231.217 83.3954 232.011L88.4002 239.556L88.3543 239.575C83.9076 241.394 82.0463 246.71 84.4249 250.884C87.1599 255.683 90.9296 261.289 94.6806 263.62C95.8656 264.356 105.412 268.279 105.412 268.279C105.412 268.279 107.756 275.423 93.0642 281.547C78.3727 287.671 67.6677 289.891 64.5853 297.454C62.7605 301.932 55.3313 280.466 50.5481 260.353C49.6276 256.483 46.0066 253.878 42.0457 254.245L32.9844 255.087Z" fill="white"/>
<path d="M63.9566 298.774C63.9231 298.774 63.8912 298.772 63.8618 298.77C63.1667 298.716 61.5394 298.591 57.2174 286.189C54.6799 278.908 51.9927 269.552 49.8448 260.52C49.0124 257.02 45.6808 254.631 42.1107 254.963L33.0496 255.805C32.829 255.828 32.6064 255.741 32.4541 255.577C32.3014 255.413 32.2344 255.187 32.2719 254.966C32.8523 251.55 33.5854 248.325 34.232 246.337C36.4253 239.598 38.01 234.73 46.0405 230.449C47.1699 229.847 48.3828 229.333 49.7478 228.877L54.3941 227.326C55.2233 227.088 74.0921 221.806 81.9811 229.42C82.0853 229.52 82.1943 229.623 82.3059 229.728C82.8826 230.273 83.5362 230.889 84.0025 231.624L88.9997 239.157C89.1189 239.338 89.1513 239.562 89.0879 239.768C89.0241 239.975 88.8714 240.142 88.6709 240.224L88.6248 240.242C86.6884 241.034 85.1854 242.624 84.5025 244.603C83.8245 246.567 84.0242 248.726 85.0495 250.526C88.6628 256.867 92.1239 261.182 95.0595 263.007C95.8915 263.524 101.869 266.044 105.684 267.612C105.879 267.692 106.029 267.854 106.095 268.054C106.199 268.372 108.473 275.904 93.34 282.212C90.0296 283.592 86.8601 284.798 84.0633 285.861C74.4609 289.513 67.5232 292.152 65.2512 297.726C64.8895 298.615 64.3185 298.774 63.9566 298.774ZM42.7739 253.49C46.75 253.49 50.3127 256.252 51.248 260.186C55.8618 279.585 61.822 296.011 63.8736 297.276C63.8862 297.251 63.9009 297.219 63.9164 297.182C66.4242 291.027 73.6081 288.295 83.551 284.513C86.3374 283.453 89.4957 282.252 92.7854 280.881C104.895 275.833 104.959 270.156 104.78 268.799C102.866 268.01 95.4074 264.921 94.2982 264.232C91.1145 262.254 87.5811 257.883 83.7965 251.241C82.5654 249.081 82.3258 246.49 83.1391 244.133C83.8673 242.022 85.3736 240.281 87.3332 239.255L82.7926 232.409C82.4152 231.815 81.8315 231.264 81.3158 230.778C81.2002 230.668 81.0871 230.562 80.9792 230.457C73.6822 223.415 55.0088 228.649 54.8205 228.704L50.2048 230.245C48.9173 230.675 47.7767 231.158 46.7192 231.722C39.202 235.729 37.7704 240.127 35.6044 246.783C35.0358 248.53 34.3958 251.284 33.8563 254.281L41.9777 253.527C42.2441 253.503 42.5104 253.49 42.7739 253.49Z" fill="black"/>
<path d="M90.24 273.147L83.1252 271.12C82.0678 270.818 80.9297 271.09 80.1224 271.837L77.0317 274.696C76.4417 275.242 75.6663 275.538 74.8629 275.529C71.3564 275.492 55.1935 271.745 53.4253 269.063C52.5511 267.738 51.2243 263.098 50.2221 259.255C49.3825 256.036 46.3355 253.899 43.023 254.21L35.8867 254.878C35.8867 254.878 38.9444 271.985 45.1005 277.169C49.8799 281.195 60.6843 282.739 76.1263 280.941C76.1263 280.941 79.345 280.395 81.8797 277.002C83.4985 274.835 87.7842 275.667 90.2562 274.913C91.1341 274.645 91.1227 273.398 90.24 273.147Z" fill="white"/>
<path d="M64.2853 282.406C55.1025 282.406 48.3048 280.812 44.6347 277.721C38.3512 272.43 35.3023 255.713 35.1754 255.004C35.1398 254.806 35.1889 254.602 35.311 254.441C35.4336 254.28 35.6173 254.178 35.8182 254.159L42.9547 253.491C46.6369 253.148 49.9855 255.495 50.9189 259.073C52.7507 266.098 53.6517 268.099 54.0259 268.667C55.5208 270.933 71.0212 274.768 74.8691 274.808C75.4768 274.814 76.0862 274.587 76.5404 274.166L79.6314 271.307C80.617 270.396 82.0314 270.058 83.3212 270.426L90.4365 272.453C91.1427 272.654 91.6213 273.283 91.6279 274.017C91.6349 274.751 91.1672 275.388 90.4651 275.602C89.5213 275.89 88.4119 275.962 87.2369 276.037C85.3066 276.162 83.3105 276.291 82.4558 277.434C79.7793 281.016 76.3886 281.628 76.2455 281.652C71.9181 282.157 67.9146 282.406 64.2853 282.406ZM36.7453 255.521C37.4248 258.884 40.4065 272.275 45.5637 276.618C50.3077 280.612 61.417 281.928 76.0415 280.225C76.034 280.225 78.9866 279.668 81.3009 276.571C82.5532 274.894 84.9925 274.737 87.1445 274.598C88.233 274.528 89.2607 274.462 90.0444 274.223C90.1388 274.194 90.1862 274.129 90.1858 274.031C90.1849 273.932 90.136 273.868 90.0412 273.84L82.9265 271.813C82.1157 271.583 81.2291 271.794 80.6111 272.367L77.5205 275.225C76.8053 275.887 75.8748 276.25 74.8962 276.25C74.882 276.25 74.868 276.25 74.8543 276.25C71.4026 276.214 54.7985 272.457 52.8221 269.461C52.0698 268.32 50.9604 264.947 49.5235 259.437C48.7688 256.545 46.0648 254.655 43.0891 254.927L36.7453 255.521Z" fill="black"/>
<path d="M55.4087 228.133C55.4087 228.133 59.4145 215.217 59.5515 213.649C59.5515 213.649 58.2761 212.977 58.3477 211.011C58.484 207.271 62.1941 209.123 62.1941 209.123L62.5587 209.211C64.6867 209.724 66.9174 209.613 68.9842 208.892L73.3238 207.378C73.3238 207.378 74.2332 208.972 73.1749 212.049C72.6705 213.516 72.7686 215.221 73.0351 217.003C73.1054 217.474 72.7819 217.913 72.3118 217.985L71.1519 218.163C70.5479 219.567 70.0058 220.403 69.0021 221.305C68.7277 221.551 68.3675 221.686 67.999 221.667C67.4997 221.641 66.7277 221.534 65.8625 221.171L65.2098 226.651L68.0897 226.581C68.0897 226.581 69.1279 230.015 63.6762 232.501C60.6666 233.874 56.4047 233.595 53.19 233.069C51.5409 232.8 51.1313 230.619 52.576 229.779L55.4087 228.133Z" fill="white"/>
<path d="M58.0591 234.219C56.2913 234.219 54.5458 234.022 53.0729 233.782C52.015 233.609 51.2059 232.817 51.0115 231.765C50.8184 230.717 51.29 229.693 52.2127 229.156L54.8018 227.651C56.2758 222.889 58.3743 215.878 58.7697 213.962C58.279 213.52 57.5672 212.597 57.6257 210.985C57.6731 209.686 58.1093 208.784 58.9232 208.3C60.2493 207.513 62.0049 208.239 62.4365 208.44L62.7268 208.51C64.7248 208.991 66.8059 208.888 68.7456 208.212L73.0852 206.697C73.412 206.584 73.7774 206.718 73.9491 207.021C73.9928 207.097 75.007 208.937 73.8556 212.285C73.3655 213.71 73.526 215.416 73.7475 216.897C73.8762 217.758 73.2814 218.565 72.4205 218.698L71.6503 218.816C71.0394 220.156 70.4463 220.976 69.4832 221.842C69.0649 222.218 68.5123 222.413 67.9605 222.388C67.5848 222.368 67.0669 222.307 66.4719 222.144L66.0234 225.91L68.0713 225.86C68.4009 225.875 68.6855 226.063 68.7788 226.373C68.8286 226.538 69.931 230.441 63.9743 233.158C62.2419 233.948 60.1349 234.219 58.0591 234.219ZM60.3297 209.387C60.0813 209.387 59.8461 209.429 59.6574 209.542C59.2939 209.759 59.0953 210.263 59.0672 211.038C59.0145 212.492 59.8616 212.997 59.8979 213.017C60.1412 213.157 60.2932 213.432 60.2688 213.712C60.1287 215.311 56.5086 227.017 56.0962 228.347C56.0427 228.519 55.9263 228.665 55.7699 228.757L52.9374 230.403C52.342 230.749 52.3984 231.333 52.4298 231.504C52.4956 231.859 52.7599 232.269 53.3055 232.359C56.3088 232.849 60.4959 233.159 63.3762 231.845C66.9402 230.22 67.4374 228.252 67.4496 227.319L65.2261 227.373C65.0171 227.363 64.8157 227.292 64.6753 227.137C64.5344 226.983 64.4677 226.774 64.4926 226.566L65.1453 221.086C65.172 220.862 65.3026 220.663 65.4985 220.549C65.6934 220.435 65.9315 220.42 66.1405 220.506C66.9116 220.83 67.5966 220.925 68.0352 220.947C68.2141 220.959 68.3832 220.891 68.5188 220.769C69.4044 219.973 69.9013 219.244 70.4882 217.878C70.5863 217.65 70.7954 217.488 71.0413 217.451L72.201 217.273C72.2785 217.26 72.3325 217.188 72.3207 217.11C72.0732 215.458 71.9 213.536 72.4911 211.816C73.0723 210.125 73.002 208.945 72.8692 208.3L69.2202 209.574C67.0188 210.342 64.6571 210.459 62.388 209.913L62.0237 209.825C61.9706 209.812 61.9195 209.793 61.8705 209.769C61.6108 209.641 60.9328 209.387 60.3297 209.387Z" fill="black"/>
<path d="M65.8611 221.894C65.7586 221.894 65.6544 221.872 65.5555 221.826L64.7591 221.452C64.3984 221.283 64.2431 220.854 64.412 220.493C64.5806 220.132 65.0098 219.976 65.3713 220.146L66.1678 220.519C66.5284 220.688 66.6837 221.118 66.5149 221.479C66.3923 221.74 66.1321 221.894 65.8611 221.894Z" fill="black"/>
<path d="M124.555 266.405L91.6992 276.396L102.67 239.111C103.076 237.708 104.186 236.594 105.611 236.161L132.276 228.052C133.97 227.537 135.55 229.038 135.068 230.705L124.555 266.405Z" fill="black"/>
<path d="M116.719 251.705C116.331 253.048 115.04 254.434 113.835 254.8C112.631 255.166 111.969 254.374 112.357 253.031C112.745 251.688 114.036 250.302 115.24 249.936C116.445 249.57 117.107 250.362 116.719 251.705Z" fill="white"/>
<path d="M123.404 268.919L71.8628 284.592C70.798 284.916 69.6724 284.315 69.3489 283.249L69.1953 282.974L124.593 266.128L124.746 266.403C125.07 267.469 124.469 268.596 123.404 268.919Z" fill="black"/>
<path d="M157.734 83.5313L197.074 94.9646L224.987 63.9082L157.734 83.5313Z" fill="white"/>
<path d="M177.336 101.987L171.844 87.6319L208.414 72.6895L178.758 89.6415L186.982 92.0316L177.336 101.987Z" fill="#FFD4CF"/>
<path d="M178.272 97.8625C178.245 97.8625 178.218 97.8612 178.191 97.8573C177.823 97.8131 177.562 97.4789 177.607 97.1115L178.387 90.6819C178.431 90.3143 178.773 90.048 179.133 90.0978C179.5 90.1419 179.761 90.4761 179.717 90.8435L178.936 97.2732C178.895 97.6133 178.606 97.8625 178.272 97.8625Z" fill="white"/>
<path d="M12.8151 195.891C12.6306 195.891 12.446 195.82 12.3051 195.68C12.0233 195.398 12.0233 194.941 12.3051 194.66L13.9824 192.982C14.2642 192.7 14.7205 192.7 15.0023 192.982C15.2841 193.263 15.2841 193.72 15.0023 194.002L13.3252 195.68C13.1843 195.82 12.9997 195.891 12.8151 195.891Z" fill="black"/>
<path d="M19.1511 189.553C18.9665 189.553 18.7819 189.483 18.641 189.342C18.3592 189.06 18.3592 188.604 18.641 188.322L20.3188 186.645C20.6006 186.363 21.0569 186.363 21.3387 186.645C21.6205 186.927 21.6205 187.383 21.3387 187.665L19.6609 189.342C19.52 189.483 19.3356 189.553 19.1511 189.553Z" fill="black"/>
<path d="M20.8286 195.891C20.6441 195.891 20.4597 195.82 20.3188 195.68L18.641 194.002C18.3592 193.72 18.3592 193.264 18.641 192.982C18.9228 192.7 19.3791 192.7 19.6609 192.982L21.3387 194.66C21.6205 194.941 21.6205 195.398 21.3387 195.68C21.1978 195.82 21.0132 195.891 20.8286 195.891Z" fill="black"/>
<path d="M14.4925 189.553C14.3079 189.553 14.1233 189.483 13.9824 189.342L12.3051 187.665C12.0233 187.383 12.0233 186.927 12.3051 186.645C12.5869 186.363 13.0432 186.363 13.325 186.645L15.0021 188.322C15.2839 188.604 15.2839 189.06 15.0021 189.342C14.8614 189.483 14.6769 189.553 14.4925 189.553Z" fill="black"/>
<path d="M94.1395 19.2607C93.9398 19.2607 93.7413 19.1786 93.5991 19.0174C93.3352 18.7192 93.3629 18.2633 93.6611 17.9995L95.4374 16.4274C95.736 16.1626 96.1925 16.1917 96.4553 16.4894C96.7192 16.7876 96.6914 17.2435 96.3933 17.5075L94.617 19.0796C94.4798 19.2011 94.309 19.2607 94.1395 19.2607Z" fill="black"/>
<path d="M100.85 13.3222C100.651 13.3222 100.452 13.2401 100.31 13.0791C100.046 12.7805 100.074 12.325 100.372 12.061L102.149 10.4889C102.447 10.2246 102.904 10.2528 103.167 10.5509C103.431 10.8495 103.403 11.3052 103.105 11.569L101.328 13.1411C101.191 13.2626 101.02 13.3222 100.85 13.3222Z" fill="black"/>
<path d="M102.137 19.7499C101.938 19.7499 101.739 19.6678 101.597 19.5066L100.025 17.7298C99.761 17.4312 99.7887 16.9758 100.087 16.7117C100.385 16.447 100.842 16.4756 101.105 16.7737L102.677 18.5505C102.941 18.8491 102.913 19.3045 102.615 19.5686C102.478 19.6903 102.307 19.7499 102.137 19.7499Z" fill="black"/>
<path d="M96.2003 13.0376C96.0006 13.0376 95.802 12.9554 95.6598 12.7945L94.0873 11.0177C93.8235 10.7195 93.8512 10.2637 94.1494 9.9998C94.448 9.73506 94.9045 9.76367 95.1673 10.0618L96.7398 11.8386C97.0037 12.1367 96.9759 12.5926 96.6778 12.8565C96.5408 12.9779 96.3698 13.0376 96.2003 13.0376Z" fill="black"/>
<path d="M77.0691 41.0955C76.9935 41.0955 76.918 41.0931 76.8419 41.0885C75.8551 41.0284 74.9509 40.5874 74.2965 39.8469C73.6414 39.1068 73.3138 38.156 73.3743 37.1695C73.4344 36.1829 73.8754 35.279 74.6152 34.6241C75.3553 33.9695 76.3 33.6423 77.2932 33.7023C79.3293 33.8264 80.8843 35.5839 80.7604 37.6204C80.6405 39.5806 79.0068 41.0955 77.0691 41.0955ZM77.0639 35.1377C76.5125 35.1377 75.9872 35.3362 75.5711 35.7045C75.1194 36.104 74.8503 36.6558 74.8136 37.2574C74.8136 37.2578 74.8136 37.2578 74.8136 37.2578C74.7375 38.5002 75.6864 39.5728 76.9295 39.6488C78.1678 39.7257 79.2445 38.7748 79.3205 37.5324C79.3961 36.2899 78.4472 35.2174 77.2052 35.1418C77.1578 35.139 77.1108 35.1377 77.0639 35.1377Z" fill="black"/>
<path d="M247.409 380.008C247.209 380.008 247.011 379.926 246.869 379.764C246.605 379.466 246.632 379.01 246.931 378.747L248.707 377.174C249.006 376.91 249.462 376.938 249.725 377.236C249.989 377.535 249.961 377.99 249.663 378.254L247.886 379.826C247.749 379.948 247.579 380.008 247.409 380.008Z" fill="black"/>
<path d="M254.12 374.068C253.92 374.068 253.722 373.986 253.58 373.825C253.316 373.526 253.343 373.071 253.642 372.807L255.418 371.235C255.717 370.971 256.173 370.999 256.436 371.297C256.7 371.596 256.672 372.051 256.374 372.315L254.597 373.887C254.46 374.009 254.289 374.068 254.12 374.068Z" fill="black"/>
<path d="M255.407 380.496C255.207 380.496 255.009 380.414 254.866 380.253L253.294 378.476C253.03 378.177 253.058 377.722 253.356 377.458C253.655 377.193 254.112 377.222 254.374 377.52L255.946 379.297C256.21 379.595 256.183 380.051 255.884 380.315C255.747 380.436 255.576 380.496 255.407 380.496Z" fill="black"/>
<path d="M249.469 373.784C249.27 373.784 249.071 373.702 248.929 373.541L247.357 371.764C247.093 371.465 247.121 371.01 247.419 370.746C247.717 370.481 248.174 370.51 248.437 370.808L250.009 372.585C250.273 372.883 250.245 373.339 249.947 373.603C249.81 373.724 249.639 373.784 249.469 373.784Z" fill="black"/>
<path d="M72.1059 155.343C70.4228 155.343 68.7265 155.29 67.0629 155.183C66.6656 155.158 66.3637 154.815 66.389 154.418C66.4144 154.021 66.7322 153.712 67.1548 153.744C69.0386 153.864 70.9624 153.915 72.8684 153.897C72.8708 153.897 72.873 153.897 72.875 153.897C73.2704 153.897 73.5926 154.215 73.5963 154.612C73.6 155.01 73.2798 155.336 72.8816 155.339C72.6227 155.342 72.3645 155.343 72.1059 155.343ZM78.634 155.081C78.2616 155.081 77.9462 154.795 77.916 154.417C77.8846 154.02 78.1808 153.673 78.5777 153.641C80.4516 153.492 82.3638 153.275 84.2603 152.997C84.658 152.941 85.0215 153.212 85.0787 153.606C85.1366 154 84.8638 154.367 84.4697 154.424C82.5418 154.707 80.5978 154.927 78.6924 155.079C78.6725 155.08 78.6532 155.081 78.634 155.081ZM61.3703 154.602C61.3368 154.602 61.3032 154.6 61.2693 154.595C59.3497 154.326 57.4214 153.98 55.5365 153.566C55.1477 153.481 54.9017 153.096 54.9872 152.707C55.0721 152.318 55.4568 152.069 55.8465 152.157C57.6947 152.563 59.5865 152.903 61.4694 153.167C61.8639 153.222 62.1391 153.587 62.0837 153.981C62.0332 154.342 61.7243 154.602 61.3703 154.602ZM90.0429 153.417C89.7095 153.417 89.4094 153.184 89.338 152.844C89.2559 152.454 89.5051 152.072 89.895 151.99C91.7338 151.602 93.6069 151.15 95.4636 150.646C95.85 150.54 96.2445 150.768 96.3486 151.153C96.4533 151.537 96.2265 151.934 95.8421 152.038C93.9587 152.55 92.0579 153.008 90.1929 153.401C90.1425 153.411 90.0922 153.417 90.0429 153.417ZM50.1089 152.128C50.0398 152.128 49.9695 152.118 49.8998 152.097C48.0573 151.541 46.2043 150.903 44.3924 150.202C44.0204 150.058 43.8361 149.641 43.98 149.269C44.1237 148.898 44.5429 148.713 44.9125 148.857C46.6908 149.545 48.5088 150.171 50.3166 150.717C50.6978 150.832 50.9138 151.234 50.7982 151.616C50.7047 151.927 50.4182 152.128 50.1089 152.128ZM101.178 150.399C100.875 150.399 100.593 150.207 100.493 149.904C100.368 149.526 100.574 149.118 100.952 148.993C102.734 148.404 104.551 147.753 106.352 147.057C106.725 146.914 107.142 147.099 107.285 147.471C107.428 147.842 107.243 148.26 106.871 148.403C105.048 149.107 103.209 149.766 101.404 150.362C101.329 150.388 101.253 150.399 101.178 150.399ZM39.37 147.937C39.2548 147.937 39.138 147.91 39.0294 147.851C37.3267 146.939 35.6961 145.793 34.1821 144.448C33.8844 144.183 33.8577 143.727 34.1225 143.429C34.3879 143.132 34.8429 143.105 35.1411 143.369C36.5698 144.64 38.1076 145.72 39.7114 146.58C40.0622 146.768 40.1945 147.205 40.0063 147.556C39.8763 147.799 39.6273 147.937 39.37 147.937ZM111.948 146.246C111.671 146.246 111.406 146.085 111.287 145.815C111.127 145.451 111.293 145.025 111.657 144.865C113.381 144.106 115.132 143.289 116.862 142.437C117.22 142.261 117.652 142.408 117.828 142.765C118.004 143.123 117.857 143.555 117.499 143.731C115.751 144.592 113.981 145.418 112.238 146.185C112.144 146.226 112.045 146.246 111.948 146.246ZM122.308 141.15C122.052 141.15 121.805 141.014 121.674 140.773C121.484 140.423 121.614 139.985 121.964 139.795C123.622 138.893 125.305 137.939 126.962 136.957C127.305 136.755 127.748 136.867 127.951 137.21C128.154 137.553 128.04 137.995 127.698 138.198C126.024 139.189 124.327 140.153 122.652 141.063C122.542 141.122 122.425 141.15 122.308 141.15ZM30.7704 140.383C30.5515 140.383 30.3355 140.284 30.1937 140.096C29.048 138.576 27.9952 136.9 27.0647 135.115C26.8807 134.762 27.0177 134.326 27.3709 134.143C27.7239 133.959 28.1597 134.095 28.3438 134.449C29.2379 136.163 30.2479 137.771 31.3462 139.228C31.5856 139.546 31.5222 139.998 31.204 140.238C31.0742 140.336 30.9218 140.383 30.7704 140.383ZM132.248 135.268C132.01 135.268 131.778 135.15 131.64 134.936C131.425 134.6 131.523 134.154 131.858 133.939C133.453 132.917 135.066 131.845 136.65 130.755C136.978 130.529 137.427 130.611 137.653 130.94C137.879 131.268 137.797 131.717 137.468 131.943C135.87 133.043 134.245 134.123 132.637 135.153C132.516 135.231 132.381 135.268 132.248 135.268ZM25.4157 130.212C25.1184 130.212 24.8399 130.027 24.7353 129.731C24.0972 127.92 23.5623 126.024 23.1457 124.092C23.0623 123.702 23.3095 123.319 23.699 123.235C24.0854 123.154 24.4718 123.398 24.5564 123.788C24.9598 125.66 25.4777 127.498 26.0961 129.251C26.2285 129.626 26.0312 130.038 25.6557 130.171C25.5762 130.199 25.4954 130.212 25.4157 130.212ZM141.765 128.719C141.544 128.719 141.325 128.618 141.184 128.426C140.948 128.105 141.017 127.653 141.337 127.417C142.869 126.29 144.411 125.118 145.921 123.934C146.234 123.688 146.687 123.743 146.934 124.056C147.179 124.369 147.124 124.823 146.811 125.069C145.29 126.262 143.736 127.443 142.193 128.579C142.064 128.674 141.914 128.719 141.765 128.719ZM150.858 121.588C150.652 121.588 150.447 121.499 150.304 121.328C150.049 121.023 150.09 120.568 150.396 120.313C151.869 119.083 153.338 117.82 154.761 116.557C155.059 116.293 155.514 116.32 155.779 116.618C156.044 116.916 156.016 117.372 155.718 117.636C154.284 118.908 152.804 120.181 151.32 121.42C151.185 121.533 151.021 121.588 150.858 121.588ZM22.974 118.961C22.6064 118.961 22.2923 118.68 22.2569 118.307C22.1099 116.743 22.0352 115.154 22.0352 113.584C22.0348 113.21 22.0389 112.834 22.0474 112.458C22.0564 112.066 22.3775 111.753 22.768 111.753C22.7737 111.753 22.7794 111.753 22.7851 111.753C23.1833 111.763 23.4987 112.093 23.49 112.491C23.4814 112.855 23.4773 113.219 23.4777 113.583C23.4777 115.109 23.55 116.653 23.6929 118.172C23.7305 118.569 23.4388 118.921 23.0426 118.958C23.0195 118.96 22.9965 118.961 22.974 118.961ZM159.502 113.911C159.311 113.911 159.12 113.835 158.978 113.686C158.704 113.397 158.717 112.94 159.005 112.666C160.904 110.865 162.281 109.472 163.103 108.62C163.381 108.333 163.837 108.326 164.123 108.601C164.41 108.878 164.418 109.335 164.142 109.621C163.31 110.484 161.916 111.894 159.998 113.713C159.858 113.845 159.68 113.911 159.502 113.911ZM23.2364 107.447C23.2025 107.447 23.1686 107.444 23.1346 107.44C22.7401 107.384 22.4655 107.019 22.5214 106.625C22.7967 104.677 23.1909 102.746 23.6933 100.888C23.7971 100.502 24.1949 100.276 24.578 100.38C24.9624 100.484 25.1898 100.88 25.0861 101.264C24.5987 103.066 24.2165 104.938 23.9498 106.827C23.8989 107.187 23.59 107.447 23.2364 107.447ZM26.2543 96.3422C26.1616 96.3422 26.0673 96.3243 25.9762 96.2863C25.609 96.1327 25.4358 95.71 25.5893 95.3424C26.351 93.5215 27.2398 91.7588 28.2302 90.1026C28.4353 89.7612 28.8783 89.65 29.2191 89.8542C29.5614 90.0585 29.6728 90.5017 29.4679 90.8431C28.5129 92.4401 27.6553 94.1412 26.92 95.8994C26.8045 96.176 26.5365 96.3422 26.2543 96.3422ZM32.1716 86.4855C32.0096 86.4855 31.8468 86.4316 31.7125 86.3202C31.4054 86.0661 31.3626 85.6116 31.6162 85.3045C32.8665 83.7929 34.2429 82.3739 35.7075 81.0863C36.0061 80.8224 36.4626 80.8519 36.7249 81.1516C36.9884 81.4506 36.9587 81.9061 36.6596 82.1691C35.2529 83.4067 33.9296 84.7708 32.728 86.2236C32.5854 86.3964 32.3792 86.4855 32.1716 86.4855ZM40.7979 78.8989C40.5589 78.8989 40.325 78.78 40.188 78.5631C39.9748 78.2261 40.0753 77.7809 40.4119 77.5682C42.0427 76.5374 43.7876 75.6125 45.5982 74.8185C45.9638 74.6588 46.3885 74.8251 46.5486 75.1894C46.7083 75.5542 46.5425 75.9797 46.1777 76.1398C44.4333 76.9048 42.7526 77.7956 41.183 78.7873C41.0633 78.8628 40.9298 78.8989 40.7979 78.8989Z" fill="#E74C3C"/>
<path d="M120.993 222.774C120.918 222.774 120.842 222.762 120.767 222.738C120.389 222.613 120.183 222.205 120.308 221.827C120.315 221.807 120.976 219.796 121.97 216.312C122.08 215.929 122.479 215.708 122.862 215.816C123.245 215.926 123.467 216.325 123.357 216.708C122.354 220.223 121.685 222.258 121.678 222.278C121.578 222.582 121.296 222.774 120.993 222.774ZM124.187 211.657C124.126 211.657 124.065 211.65 124.004 211.633C123.618 211.532 123.388 211.138 123.489 210.753C123.971 208.912 124.443 207.032 124.893 205.165C124.986 204.778 125.376 204.54 125.763 204.633C126.15 204.726 126.388 205.115 126.295 205.503C125.843 207.378 125.368 209.268 124.884 211.118C124.799 211.442 124.507 211.657 124.187 211.657ZM126.891 200.428C126.84 200.428 126.788 200.423 126.735 200.411C126.347 200.325 126.101 199.94 126.186 199.551C126.598 197.688 126.997 195.791 127.373 193.914C127.451 193.524 127.831 193.272 128.222 193.349C128.612 193.427 128.866 193.807 128.787 194.198C128.409 196.084 128.008 197.99 127.595 199.862C127.521 200.199 127.223 200.428 126.891 200.428ZM129.16 189.104C129.118 189.104 129.075 189.1 129.032 189.093C128.64 189.022 128.379 188.647 128.449 188.255C128.791 186.356 129.115 184.445 129.411 182.576C129.474 182.182 129.842 181.915 130.237 181.977C130.63 182.039 130.898 182.409 130.836 182.802C130.538 184.681 130.213 186.601 129.87 188.51C129.807 188.859 129.503 189.104 129.16 189.104ZM130.967 177.699C130.935 177.699 130.902 177.697 130.869 177.692C130.474 177.638 130.198 177.275 130.252 176.88C130.512 174.971 130.752 173.048 130.964 171.167C131.008 170.771 131.364 170.484 131.762 170.532C132.157 170.577 132.442 170.934 132.397 171.33C132.184 173.222 131.942 175.154 131.681 177.075C131.632 177.437 131.322 177.699 130.967 177.699ZM132.259 166.224C132.238 166.224 132.216 166.223 132.195 166.221C131.798 166.187 131.505 165.837 131.54 165.44C131.71 163.504 131.853 161.574 131.966 159.702C131.99 159.305 132.322 159 132.73 159.025C133.127 159.049 133.43 159.391 133.406 159.789C133.292 161.674 133.148 163.617 132.976 165.566C132.944 165.942 132.629 166.224 132.259 166.224ZM132.954 154.704C132.946 154.704 132.939 154.704 132.931 154.704C132.533 154.691 132.22 154.358 132.233 153.96C132.293 152.051 132.324 150.144 132.324 148.293V148.212C132.324 147.814 132.647 147.491 133.045 147.491C133.443 147.491 133.766 147.814 133.766 148.212V148.293C133.766 150.159 133.735 152.081 133.675 154.006C133.662 154.396 133.342 154.704 132.954 154.704ZM132.941 143.162C132.555 143.162 132.235 142.856 132.221 142.466C132.151 140.531 132.045 138.602 131.905 136.731C131.876 136.334 132.174 135.988 132.571 135.958C132.963 135.93 133.314 136.226 133.344 136.623C133.485 138.513 133.592 140.461 133.662 142.415C133.676 142.813 133.366 143.147 132.967 143.161C132.959 143.162 132.95 143.162 132.941 143.162ZM132.068 131.653C131.708 131.653 131.396 131.384 131.353 131.017C131.123 129.093 130.848 127.183 130.537 125.34C130.47 124.947 130.734 124.575 131.127 124.509C131.515 124.439 131.892 124.706 131.958 125.099C132.274 126.965 132.552 128.899 132.785 130.846C132.832 131.242 132.549 131.601 132.154 131.648C132.125 131.652 132.096 131.653 132.068 131.653ZM130.129 120.281C129.799 120.281 129.502 120.054 129.426 119.719C128.996 117.827 128.511 115.963 127.986 114.179C127.874 113.797 128.093 113.396 128.475 113.283C128.857 113.173 129.258 113.389 129.371 113.772C129.904 115.585 130.396 117.478 130.833 119.4C130.921 119.788 130.678 120.175 130.289 120.263C130.235 120.275 130.181 120.281 130.129 120.281ZM126.859 109.222C126.566 109.222 126.291 109.043 126.183 108.753C125.506 106.941 124.764 105.169 123.977 103.487C123.807 103.126 123.963 102.697 124.324 102.528C124.684 102.358 125.114 102.514 125.283 102.876C126.087 104.592 126.845 106.4 127.534 108.249C127.674 108.622 127.484 109.037 127.111 109.177C127.028 109.208 126.943 109.222 126.859 109.222ZM121.957 98.7942C121.709 98.7942 121.468 98.666 121.333 98.4364C120.366 96.7769 119.321 95.1721 118.228 93.6656C117.994 93.3429 118.066 92.8923 118.388 92.6583C118.71 92.4246 119.162 92.4963 119.395 92.8185C120.516 94.3635 121.587 96.0091 122.579 97.7094C122.78 98.0537 122.664 98.4951 122.32 98.6961C122.206 98.7627 122.08 98.7942 121.957 98.7942ZM115.185 89.4847C114.988 89.4847 114.793 89.4043 114.65 89.247C113.378 87.8392 112.019 86.4954 110.611 85.253C110.312 84.9891 110.284 84.5337 110.547 84.2348C110.81 83.9358 111.266 83.9076 111.565 84.1711C113.014 85.4498 114.412 86.832 115.72 88.2796C115.987 88.5749 115.964 89.0315 115.669 89.2982C115.531 89.4231 115.358 89.4847 115.185 89.4847ZM106.559 81.8731C106.416 81.8731 106.272 81.831 106.146 81.7436C104.608 80.6698 102.982 79.6659 101.314 78.7591C100.964 78.5684 100.834 78.1309 101.025 77.7805C101.215 77.4302 101.654 77.3011 102.003 77.4918C103.718 78.4238 105.39 79.4564 106.972 80.5603C107.299 80.7886 107.379 81.2379 107.151 81.5647C107.01 81.7657 106.786 81.8731 106.559 81.8731ZM96.4588 76.3649C96.3669 76.3649 96.2729 76.3474 96.1827 76.3098C94.4645 75.5962 92.6624 74.9485 90.8265 74.3852C90.4455 74.2688 90.2315 73.8653 90.3483 73.4846C90.4648 73.1034 90.8691 72.8896 91.2489 73.0066C93.1294 73.5833 94.9754 74.2463 96.7358 74.9774C97.1039 75.1305 97.2782 75.5525 97.125 75.9201C97.0101 76.1975 96.7419 76.3649 96.4588 76.3649Z" fill="#E74C3C"/>
<path d="M327.748 372.346C327.748 372.346 304.594 327.07 315.846 283.047C316.222 281.575 321.946 283.213 322.402 281.745C322.983 279.87 318.323 274.891 319.042 273.029C321.715 266.11 325.367 259.311 330.228 252.82C330.228 252.82 339.401 266.178 344.159 287.03C344.518 288.602 338.667 292.98 338.97 294.636C339.256 296.199 345.7 295.036 345.926 296.669C348.849 317.792 346.332 344.547 327.748 372.346Z" fill="#FC988E"/>
<path d="M307.594 318.897C306.63 317.58 301.144 322.335 300.164 321.084C299.199 319.851 301.804 310.93 300.829 309.761C281.698 286.835 261.333 276.325 261.333 276.325C259.529 288.236 259.732 299.64 261.4 310.437C261.666 312.162 269.465 315.039 269.804 316.732C270.176 318.589 263.809 320.908 264.263 322.727C270.964 349.591 285.596 370.603 300.094 387.027C311.409 383.043 321.672 378.039 330.928 372.171C326.478 349.759 318.025 333.157 307.594 318.897Z" fill="#E74C3C"/>
<path d="M313.313 371.944C313.081 371.944 312.854 371.833 312.715 371.626C307.589 364.011 302.593 356.155 297.865 348.276C297.66 347.935 297.77 347.491 298.112 347.287C298.453 347.081 298.896 347.192 299.102 347.534C303.817 355.392 308.799 363.226 313.911 370.821C314.134 371.151 314.046 371.6 313.716 371.822C313.592 371.905 313.452 371.944 313.313 371.944Z" fill="#FFD4CF"/>
<path d="M291.881 337.307C291.63 337.307 291.386 337.176 291.253 336.942C283.613 323.467 276.478 309.488 270.045 295.393L267.105 288.949C266.939 288.587 267.099 288.159 267.461 287.993C267.824 287.827 268.251 287.988 268.417 288.35L271.358 294.794C277.773 308.851 284.889 322.792 292.508 336.23C292.705 336.577 292.584 337.017 292.237 337.213C292.124 337.277 292.002 337.307 291.881 337.307Z" fill="#FFD4CF"/>
<path d="M326.432 374.876C326.432 374.876 317.268 326.487 364.639 309.692C364.639 309.692 368.607 351.93 326.432 374.876Z" fill="#E74C3C"/>
<path d="M334.936 362.277C334.857 362.277 334.777 362.264 334.698 362.236C334.322 362.105 334.124 361.693 334.255 361.317C339.69 345.796 356.593 321.763 356.763 321.522C356.992 321.196 357.444 321.12 357.768 321.349C358.093 321.578 358.171 322.029 357.941 322.354C357.772 322.593 340.985 346.464 335.617 361.794C335.513 362.091 335.234 362.277 334.936 362.277Z" fill="#FFD4CF"/>
</svg>
