<svg xmlns="http://www.w3.org/2000/svg" width="20" height="18" viewBox="0 0 20 18" fill="none">
<path d="M10.9999 1.00268e-07C11.5044 -0.000159579 11.9904 0.190406 12.3604 0.533497C12.7304 0.876588 12.957 1.34684 12.9949 1.85L12.9999 2V6H15.9999C16.5044 5.99984 16.9904 6.19041 17.3604 6.5335C17.7304 6.87659 17.957 7.34685 17.9949 7.85L17.9999 8V16H18.9999C19.2547 16.0003 19.4999 16.0979 19.6852 16.2728C19.8706 16.4478 19.9821 16.687 19.997 16.9414C20.012 17.1958 19.9292 17.4464 19.7656 17.6418C19.602 17.8373 19.37 17.9629 19.1169 17.993L18.9999 18H0.999869C0.744989 17.9997 0.499837 17.9021 0.3145 17.7272C0.129164 17.5522 0.0176337 17.313 0.0026966 17.0586C-0.0122405 16.8042 0.0705433 16.5536 0.234134 16.3582C0.397724 16.1627 0.629773 16.0371 0.882869 16.007L0.999869 16H1.99987V2C1.99971 1.49542 2.19027 1.00943 2.53337 0.639452C2.87646 0.269471 3.34671 0.0428434 3.84987 0.00500021L3.99987 1.00268e-07H10.9999ZM15.9999 8H12.9999V16H15.9999V8ZM10.9999 2H3.99987V16H10.9999V2ZM8.99987 12V14H5.99987V12H8.99987ZM8.99987 8V10H5.99987V8H8.99987ZM8.99987 4V6H5.99987V4H8.99987Z" fill="#343B45"/>
</svg>