<svg width="26" height="20" viewBox="0 0 26 20" fill="none" xmlns="http://www.w3.org/2000/svg">
<path d="M24.0101 5.52906L23.8413 5.48382V4.3854C23.8409 4.03136 23.7001 3.69194 23.4498 3.4416C23.1994 3.19126 22.86 3.05043 22.506 3.05002H14.7582L7.27469 1.04485C6.93264 0.953997 6.56852 1.00234 6.26203 1.17929C5.95553 1.35624 5.73161 1.6474 5.63927 1.98906L5.35497 3.05002H5.18017C4.82613 3.05043 4.48671 3.19126 4.23637 3.4416C3.98603 3.69194 3.84521 4.03136 3.8448 4.3854V7.13509C3.27447 7.81163 2.26216 8.31165 1.29508 8.37624C1.21506 8.3816 1.14006 8.41717 1.08528 8.47574C1.03049 8.53431 1.00001 8.61151 1 8.69171V12.3454C1 12.3846 1.0073 12.4235 1.02152 12.46C1.50372 13.6998 2.54542 14.6523 3.8448 15.0609V15.6191C3.84521 15.9731 3.98603 16.3125 4.23637 16.5629C4.48672 16.8132 4.82614 16.954 5.18017 16.9544H12.9277L20.4114 18.9596C20.7535 19.0505 21.1176 19.0022 21.4241 18.8252C21.7306 18.6483 21.9545 18.3571 22.0469 18.0154L22.3312 16.9544H22.506C22.86 16.954 23.1994 16.8132 23.4498 16.5629C23.7001 16.3125 23.8409 15.9731 23.8413 15.6191V11.3185L24.9544 7.16452C25.0456 6.82244 24.9975 6.45813 24.8204 6.15153C24.6434 5.84492 24.352 5.62106 24.0101 5.52906ZM7.19528 8.37624C6.14303 8.30593 5.03678 7.72041 4.50517 6.95256C4.4966 6.94047 4.4872 6.92899 4.47705 6.9182V6.73215H23.2089V8.83866H7.49036V8.69171C7.49035 8.61151 7.45986 8.53431 7.40508 8.47574C7.35029 8.41717 7.2753 8.3816 7.19528 8.37624ZM6.25 2.15274C6.29899 1.97312 6.41695 1.82012 6.57821 1.72706C6.73947 1.634 6.93096 1.60841 7.111 1.65587L12.315 3.05021H6.00962L6.25 2.15274ZM5.18017 3.68241H22.5059C22.6923 3.68259 22.8711 3.75672 23.0029 3.88855C23.1347 4.02037 23.2089 4.19911 23.209 4.38554V6.09995H4.47719V4.3854C4.4774 4.19902 4.55153 4.02034 4.68332 3.88855C4.81511 3.75676 4.99379 3.68263 5.18017 3.68241ZM1.63239 12.2848V8.97601C2.62103 8.83407 3.61759 8.32037 4.2452 7.63651C4.87272 8.32037 5.86928 8.83407 6.85797 8.97601V12.2848C6.40994 13.384 5.44061 14.2124 4.2452 14.5182C3.0498 14.2124 2.08042 13.384 1.63239 12.2848ZM21.436 17.8518C21.387 18.0314 21.2691 18.1844 21.1078 18.2775C20.9465 18.3705 20.755 18.3961 20.575 18.3487L15.3709 16.9544H21.6766L21.436 17.8518ZM22.5059 16.3221H5.18017C4.99374 16.3219 4.815 16.2478 4.68318 16.1159C4.55136 15.9841 4.47722 15.8054 4.47705 15.6189V15.1106C5.29681 14.8889 6.038 14.4418 6.61647 13.82C6.62381 13.8984 6.66014 13.9712 6.71835 14.0243C6.77656 14.0773 6.85245 14.1067 6.93119 14.1067H13.6047C13.6885 14.1067 13.769 14.0734 13.8283 14.0141C13.8875 13.9548 13.9209 13.8743 13.9209 13.7905C13.9209 13.7066 13.8875 13.6262 13.8283 13.5669C13.769 13.5076 13.6885 13.4743 13.6047 13.4743H6.93133C6.92195 13.4743 6.91258 13.4749 6.9032 13.4757C7.13709 13.1645 7.32737 12.8227 7.46875 12.46C7.483 12.4235 7.49032 12.3846 7.49031 12.3454V11.828H10.5585C10.6424 11.828 10.7228 11.7947 10.7821 11.7354C10.8414 11.6761 10.8747 11.5957 10.8747 11.5118C10.8747 11.428 10.8414 11.3475 10.7821 11.2882C10.7228 11.2289 10.6424 11.1956 10.5585 11.1956H7.49036V9.47101H23.2089V15.6191C23.2087 15.8055 23.1346 15.9841 23.0028 16.1159C22.871 16.2477 22.6923 16.3219 22.5059 16.3221ZM24.3437 7.00088L23.8415 8.87532V6.13848L23.8466 6.13988C24.0266 6.18833 24.18 6.30619 24.2732 6.4676C24.3664 6.62901 24.3918 6.82079 24.3437 7.00088ZM20.998 10.7241H18.1548C17.9111 10.7244 17.6775 10.8213 17.5051 10.9937C17.3328 11.166 17.2358 11.3997 17.2355 11.6434V12.9788C17.2358 13.2225 17.3328 13.4562 17.5051 13.6285C17.6774 13.8009 17.9111 13.8978 18.1548 13.8981H20.998C21.2417 13.8978 21.4754 13.8009 21.6477 13.6285C21.8201 13.4562 21.917 13.2225 21.9173 12.9788V11.6436C21.9171 11.3999 21.8202 11.1661 21.6478 10.9938C21.4755 10.8214 21.2418 10.7244 20.998 10.7241ZM21.2849 12.9788C21.2848 13.0549 21.2546 13.1278 21.2008 13.1816C21.147 13.2354 21.0741 13.2657 20.998 13.2658H18.1548C18.0788 13.2657 18.0058 13.2354 17.952 13.1816C17.8982 13.1278 17.868 13.0549 17.8679 12.9788V11.6436C17.868 11.5675 17.8983 11.4946 17.9521 11.4408C18.0058 11.387 18.0788 11.3568 18.1548 11.3567H20.998C21.0741 11.3568 21.147 11.387 21.2008 11.4408C21.2546 11.4946 21.2848 11.5675 21.2849 11.6436V12.9788ZM4.29775 12.2263C4.26842 12.2558 4.23356 12.2792 4.19516 12.2952C4.15676 12.3113 4.11558 12.3195 4.07397 12.3196C3.9901 12.3196 3.90921 12.2863 3.84991 12.227L2.91241 11.2895C2.88262 11.2602 2.85893 11.2253 2.8427 11.1869C2.82647 11.1484 2.81802 11.1071 2.81784 11.0653C2.81766 11.0236 2.82575 10.9822 2.84164 10.9436C2.85754 10.905 2.88092 10.8699 2.91045 10.8404C2.93998 10.8109 2.97506 10.7875 3.01367 10.7716C3.05228 10.7557 3.09366 10.7476 3.13542 10.7478C3.17717 10.748 3.21847 10.7564 3.25694 10.7727C3.29541 10.7889 3.33028 10.8126 3.35955 10.8424L4.07266 11.5555L5.64531 9.97323C5.67449 9.94338 5.70929 9.9196 5.7477 9.90327C5.78611 9.88694 5.82738 9.87838 5.86912 9.87808C5.91086 9.87778 5.95224 9.88574 5.99089 9.90152C6.02953 9.91729 6.06467 9.94056 6.09428 9.96999C6.12388 9.99941 6.14737 10.0344 6.16338 10.0729C6.17939 10.1115 6.18762 10.1528 6.18757 10.1946C6.18753 10.2363 6.17922 10.2776 6.16313 10.3161C6.14704 10.3547 6.12348 10.3896 6.09381 10.419L4.29775 12.2263Z" stroke="white" stroke-width="0.8"/>
</svg>
