<svg width="24" height="24" viewBox="0 0 27 24" fill="none" xmlns="http://www.w3.org/2000/svg">
<g clip-path="url(#clip0_373_2702)">
<path d="M26.4984 15.3797C25.9453 14.8781 25.0828 14.9109 24.5016 15.3797L20.1703 18.8438C19.6406 19.2703 18.9797 19.5 18.2953 19.5H12.75C12.3375 19.5 12 19.1625 12 18.75C12 18.3375 12.3375 18 12.75 18H16.4203C17.1656 18 17.8594 17.4891 17.9813 16.7531C18.1359 15.8156 17.4141 15 16.5 15H9C7.73438 15 6.51094 15.4359 5.52656 16.2328L3.34688 18H0.75C0.3375 18 0 18.3375 0 18.75V23.25C0 23.6625 0.3375 24 0.75 24H17.475C18.1547 24 18.8156 23.7703 19.35 23.3438L26.4375 17.6719C27.15 17.1047 27.2062 16.0172 26.4984 15.3797Z" fill="black"/>
</g>
<path d="M22.1897 6.3297C22.1095 6.23846 22.0653 6.12116 22.0653 5.9997C22.0653 5.87825 22.1095 5.76095 22.1897 5.6697L22.8297 4.9497C22.9002 4.87104 22.944 4.77206 22.9548 4.66696C22.9656 4.56186 22.9428 4.45605 22.8897 4.3647L21.8897 2.6347C21.8371 2.54346 21.7571 2.47114 21.6611 2.42805C21.565 2.38495 21.4578 2.37328 21.3547 2.3947L20.4147 2.5847C20.2951 2.60942 20.1706 2.5895 20.0646 2.5287C19.9587 2.46791 19.8787 2.37044 19.8397 2.2547L19.5347 1.3397C19.5012 1.24039 19.4372 1.15414 19.352 1.09312C19.2668 1.03211 19.1645 0.999433 19.0597 0.999703H17.0597C16.9507 0.994012 16.8428 1.02417 16.7525 1.08556C16.6622 1.14695 16.5945 1.23621 16.5597 1.3397L16.2797 2.2547C16.2407 2.37044 16.1607 2.46791 16.0548 2.5287C15.9488 2.5895 15.8243 2.60942 15.7047 2.5847L14.7397 2.3947C14.642 2.38089 14.5423 2.39631 14.4534 2.43902C14.3644 2.48173 14.29 2.54982 14.2397 2.6347L13.2397 4.3647C13.1853 4.45503 13.1608 4.56025 13.1698 4.66532C13.1788 4.77038 13.2207 4.86992 13.2897 4.9497L13.9247 5.6697C14.0049 5.76095 14.0491 5.87825 14.0491 5.9997C14.0491 6.12116 14.0049 6.23846 13.9247 6.3297L13.2897 7.0497C13.2207 7.12948 13.1788 7.22902 13.1698 7.33409C13.1608 7.43916 13.1853 7.54438 13.2397 7.6347L14.2397 9.3647C14.2922 9.45594 14.3723 9.52827 14.4683 9.57136C14.5644 9.61446 14.6716 9.62612 14.7747 9.6047L15.7147 9.4147C15.8343 9.38999 15.9588 9.40991 16.0648 9.4707C16.1707 9.5315 16.2507 9.62896 16.2897 9.7447L16.5947 10.6597C16.6295 10.7632 16.6972 10.8525 16.7875 10.9138C16.8778 10.9752 16.9857 11.0054 17.0947 10.9997H19.0947C19.1995 11 19.3018 10.9673 19.387 10.9063C19.4722 10.8453 19.5362 10.759 19.5697 10.6597L19.8747 9.7447C19.9137 9.62896 19.9937 9.5315 20.0996 9.4707C20.2056 9.40991 20.3301 9.38999 20.4497 9.4147L21.3897 9.6047C21.4928 9.62612 21.6 9.61446 21.6961 9.57136C21.7921 9.52827 21.8721 9.45594 21.9247 9.3647L22.9247 7.6347C22.9778 7.54336 23.0006 7.43755 22.9898 7.33245C22.979 7.22735 22.9352 7.12837 22.8647 7.0497L22.1897 6.3297ZM21.4447 6.9997L21.8447 7.4497L21.2047 8.5597L20.6147 8.4397C20.2546 8.36609 19.88 8.42726 19.562 8.6116C19.244 8.79594 19.0048 9.09062 18.8897 9.4397L18.6997 9.9997H17.4197L17.2397 9.4297C17.1246 9.08062 16.8854 8.78595 16.5674 8.6016C16.2494 8.41726 15.8748 8.35609 15.5147 8.4297L14.9247 8.5497L14.2747 7.4447L14.6747 6.9947C14.9207 6.71969 15.0567 6.36367 15.0567 5.9947C15.0567 5.62574 14.9207 5.26971 14.6747 4.9947L14.2747 4.5447L14.9147 3.4447L15.5047 3.5647C15.8648 3.63831 16.2394 3.57714 16.5574 3.3928C16.8754 3.20846 17.1146 2.91378 17.2297 2.5647L17.4197 1.9997H18.6997L18.8897 2.5697C19.0048 2.91878 19.244 3.21346 19.562 3.3978C19.88 3.58214 20.2546 3.64331 20.6147 3.5697L21.2047 3.4497L21.8447 4.5597L21.4447 5.0097C21.2015 5.28408 21.0672 5.63804 21.0672 6.0047C21.0672 6.37136 21.2015 6.72532 21.4447 6.9997ZM18.0597 3.9997C17.6641 3.9997 17.2775 4.117 16.9486 4.33676C16.6197 4.55653 16.3633 4.86888 16.2119 5.23434C16.0606 5.59979 16.021 6.00192 16.0981 6.38988C16.1753 6.77785 16.3658 7.13421 16.6455 7.41392C16.9252 7.69362 17.2816 7.8841 17.6695 7.96127C18.0575 8.03844 18.4596 7.99884 18.8251 7.84746C19.1905 7.69609 19.5029 7.43974 19.7226 7.11084C19.9424 6.78195 20.0597 6.39527 20.0597 5.9997C20.0597 5.46927 19.849 4.96056 19.4739 4.58549C19.0988 4.21042 18.5901 3.9997 18.0597 3.9997ZM18.0597 6.9997C17.8619 6.9997 17.6686 6.94105 17.5041 6.83117C17.3397 6.72129 17.2115 6.56511 17.1358 6.38239C17.0601 6.19966 17.0403 5.99859 17.0789 5.80461C17.1175 5.61063 17.2127 5.43245 17.3526 5.2926C17.4924 5.15274 17.6706 5.0575 17.8646 5.01892C18.0586 4.98033 18.2597 5.00014 18.4424 5.07582C18.6251 5.15151 18.7813 5.27968 18.8912 5.44413C19.001 5.60858 19.0597 5.80192 19.0597 5.9997C19.0597 6.26492 18.9543 6.51927 18.7668 6.70681C18.5793 6.89435 18.3249 6.9997 18.0597 6.9997Z" fill="black"/>
<defs>
<clipPath id="clip0_373_2702">
<rect width="27" height="24" fill="white"/>
</clipPath>
</defs>
</svg>
