<svg width="24" height="22" viewBox="0 0 24 22" fill="none" xmlns="http://www.w3.org/2000/svg">
<path d="M17.0513 11.9355H13.7902C12.8977 11.9355 12.1719 12.6613 12.1719 13.5539V16.0549C12.1719 16.9474 12.8977 17.6732 13.7902 17.6732H17.0513C17.9438 17.6732 18.6696 16.9474 18.6696 16.0549V13.5539C18.6696 12.6613 17.9438 11.9355 17.0513 11.9355ZM17.4927 16.0549C17.4927 16.3001 17.2916 16.4962 17.0513 16.4962H13.7902C13.545 16.4962 13.3488 16.2952 13.3488 16.0549V13.5539C13.3488 13.3087 13.5499 13.1125 13.7902 13.1125H17.0513C17.2965 13.1125 17.4927 13.3136 17.4927 13.5539V16.0549Z" fill="#343B45"/>
<path d="M24 7.38899C24 7.286 23.9755 7.18792 23.9215 7.09965L20.3514 0.822579C20.2485 0.641133 20.0523 0.523438 19.8414 0.523438H4.15366C3.94279 0.523438 3.74663 0.636229 3.64365 0.822579L0.0784634 7.09965C0.0294238 7.18792 0 7.286 0 7.38899C0 8.79642 0.848386 10.0028 2.05966 10.5373V20.8896C2.05966 21.2133 2.32448 21.4781 2.64814 21.4781H5.89947C5.90437 21.4781 5.90928 21.4781 5.91418 21.4781H10.4749C10.4798 21.4781 10.4847 21.4781 10.4896 21.4781H21.347C21.6706 21.4781 21.9354 21.2133 21.9354 20.8896V10.6109C21.9354 10.5864 21.9354 10.5668 21.9305 10.5471C23.1467 10.0126 24 8.80133 24 7.38899ZM4.49693 1.70529H19.4982L22.2885 6.61416H1.71148L4.49693 1.70529ZM17.0805 7.78621C16.8942 8.84546 15.9673 9.64971 14.8541 9.64971C13.7409 9.64971 12.8141 8.84546 12.6277 7.78621H17.0805ZM11.3772 7.78621C11.1908 8.84546 10.264 9.64971 9.1508 9.64971C8.0376 9.64971 7.11075 8.84546 6.91949 7.78621H11.3772ZM1.21618 7.78621H5.67389C5.48754 8.84546 4.55578 9.64971 3.44258 9.64971C2.32938 9.65462 1.40253 8.84546 1.21618 7.78621ZM9.88639 20.3011H6.50266V13.9505C6.50266 13.4895 6.87536 13.1119 7.34123 13.1119H9.05272C9.51369 13.1119 9.8913 13.4846 9.8913 13.9505V20.3011H9.88639ZM20.7585 20.3011H11.0633V13.9505C11.0633 12.8422 10.161 11.935 9.04781 11.935H7.33633C6.22803 11.935 5.3208 12.8373 5.3208 13.9505V20.306H3.23662V10.8267C3.30527 10.8316 3.37393 10.8316 3.44258 10.8316C4.62934 10.8316 5.67879 10.2284 6.29669 9.31134C6.91459 10.2284 7.96404 10.8316 9.1508 10.8316C10.3376 10.8316 11.3821 10.2284 12.0049 9.31134C12.6228 10.2284 13.6723 10.8316 14.8541 10.8316C16.0409 10.8316 17.0854 10.2284 17.7033 9.31134C18.3212 10.2284 19.3707 10.8316 20.5574 10.8316C20.6261 10.8316 20.6898 10.8267 20.7585 10.8267V20.3011ZM20.5574 9.65462C19.4442 9.65462 18.5174 8.85037 18.331 7.79111H22.7887C22.5975 8.84546 21.6706 9.65462 20.5574 9.65462Z" fill="#343B45"/>
</svg>
