<svg xmlns="http://www.w3.org/2000/svg" width="24" height="24" viewBox="0 0 24 24" fill="none">
<path d="M5.3998 8.09922C5.3998 7.38313 5.68427 6.69638 6.19062 6.19003C6.69696 5.68368 7.38372 5.39922 8.0998 5.39922C8.81589 5.39922 9.50264 5.68368 10.009 6.19003C10.5153 6.69638 10.7998 7.38313 10.7998 8.09922C10.7998 8.8153 10.5153 9.50206 10.009 10.0084C9.50264 10.5148 8.81589 10.7992 8.0998 10.7992C7.38372 10.7992 6.69696 10.5148 6.19062 10.0084C5.68427 9.50206 5.3998 8.8153 5.3998 8.09922ZM8.0998 4.19922C7.06546 4.19922 6.07348 4.61011 5.34209 5.3415C4.6107 6.07289 4.1998 7.06487 4.1998 8.09922C4.1998 9.13356 4.6107 10.1255 5.34209 10.8569C6.07348 11.5883 7.06546 11.9992 8.0998 11.9992C9.13415 11.9992 10.1261 11.5883 10.8575 10.8569C11.5889 10.1255 11.9998 9.13356 11.9998 8.09922C11.9998 7.06487 11.5889 6.07289 10.8575 5.3415C10.1261 4.61011 9.13415 4.19922 8.0998 4.19922ZM14.9242 18.1732C15.5698 18.4372 16.3822 18.5992 17.3998 18.5992C19.657 18.5992 20.905 17.7976 21.5626 16.8784C21.9057 16.3961 22.1208 15.8345 22.1878 15.2464C22.1938 15.1918 22.1978 15.1369 22.1998 15.082V14.9992C22.1998 14.7628 22.1532 14.5288 22.0628 14.3104C21.9723 14.092 21.8397 13.8936 21.6726 13.7264C21.5054 13.5593 21.307 13.4267 21.0886 13.3362C20.8702 13.2458 20.6362 13.1992 20.3998 13.1992H14.8438C15.1318 13.5472 15.3478 13.954 15.4738 14.3992H20.3998C20.5589 14.3992 20.7115 14.4624 20.8241 14.575C20.9366 14.6875 20.9998 14.8401 20.9998 14.9992V15.064L20.9938 15.124C20.9478 15.5045 20.8076 15.8675 20.5858 16.18C20.1934 16.7308 19.3414 17.3992 17.3998 17.3992C16.5214 17.3992 15.8662 17.2624 15.3754 17.062C15.277 17.398 15.1342 17.7772 14.9242 18.1732ZM1.7998 15.5992C1.7998 14.9627 2.05266 14.3523 2.50275 13.9022C2.95284 13.4521 3.56328 13.1992 4.1998 13.1992H11.9998C12.6363 13.1992 13.2468 13.4521 13.6969 13.9022C14.1469 14.3523 14.3998 14.9627 14.3998 15.5992V15.7C14.3998 15.712 14.3998 15.7276 14.3974 15.748C14.3828 15.9856 14.3487 16.2216 14.2954 16.4536C14.1934 16.8952 13.9906 17.4856 13.5814 18.0784C12.7402 19.2952 11.1154 20.3992 8.0998 20.3992C5.0842 20.3992 3.4594 19.2952 2.6182 18.0784C2.17519 17.4331 1.89896 16.6881 1.8142 15.91C1.80703 15.8402 1.80223 15.7702 1.7998 15.7V15.5992ZM2.9998 15.6712V15.6928L3.0082 15.7924C3.07323 16.3677 3.27843 16.9182 3.6058 17.3956C4.1902 18.2404 5.4154 19.1992 8.0998 19.1992C10.7842 19.1992 12.0094 18.2404 12.5938 17.3956C12.9213 16.9182 13.1265 16.3677 13.1914 15.7924C13.1953 15.7593 13.1977 15.7261 13.1986 15.6928L13.1998 15.6724V15.5992C13.1998 15.281 13.0734 14.9757 12.8483 14.7507C12.6233 14.5256 12.3181 14.3992 11.9998 14.3992H4.1998C3.88154 14.3992 3.57632 14.5256 3.35128 14.7507C3.12623 14.9757 2.9998 15.281 2.9998 15.5992V15.6712ZM15.5998 8.99922C15.5998 8.52183 15.7894 8.06399 16.127 7.72643C16.4646 7.38886 16.9224 7.19922 17.3998 7.19922C17.8772 7.19922 18.335 7.38886 18.6726 7.72643C19.0102 8.06399 19.1998 8.52183 19.1998 8.99922C19.1998 9.47661 19.0102 9.93445 18.6726 10.272C18.335 10.6096 17.8772 10.7992 17.3998 10.7992C16.9224 10.7992 16.4646 10.6096 16.127 10.272C15.7894 9.93445 15.5998 9.47661 15.5998 8.99922ZM17.3998 5.99922C16.6042 5.99922 15.8411 6.31529 15.2785 6.8779C14.7159 7.44051 14.3998 8.20357 14.3998 8.99922C14.3998 9.79487 14.7159 10.5579 15.2785 11.1205C15.8411 11.6831 16.6042 11.9992 17.3998 11.9992C18.1955 11.9992 18.9585 11.6831 19.5211 11.1205C20.0837 10.5579 20.3998 9.79487 20.3998 8.99922C20.3998 8.20357 20.0837 7.44051 19.5211 6.8779C18.9585 6.31529 18.1955 5.99922 17.3998 5.99922Z" fill="white"/>
</svg>