<svg width="66" height="6" viewBox="0 0 66 6" fill="none" xmlns="http://www.w3.org/2000/svg">
<path d="M0.5 2.5C0.223858 2.5 0 2.72386 0 3C0 3.27614 0.223858 3.5 0.5 3.5V2.5ZM65.5 3L60.5 0.113249V5.88675L65.5 3ZM2.53125 3.5C2.80739 3.5 3.03125 3.27614 3.03125 3C3.03125 2.72386 2.80739 2.5 2.53125 2.5V3.5ZM6.59375 2.5C6.31761 2.5 6.09375 2.72386 6.09375 3C6.09375 3.27614 6.31761 3.5 6.59375 3.5V2.5ZM10.6562 3.5C10.9324 3.5 11.1562 3.27614 11.1562 3C11.1562 2.72386 10.9324 2.5 10.6562 2.5V3.5ZM14.7188 2.5C14.4426 2.5 14.2188 2.72386 14.2188 3C14.2188 3.27614 14.4426 3.5 14.7188 3.5V2.5ZM18.7812 3.5C19.0574 3.5 19.2812 3.27614 19.2812 3C19.2812 2.72386 19.0574 2.5 18.7812 2.5V3.5ZM22.8438 2.5C22.5676 2.5 22.3438 2.72386 22.3438 3C22.3438 3.27614 22.5676 3.5 22.8438 3.5V2.5ZM26.9062 3.5C27.1824 3.5 27.4062 3.27614 27.4062 3C27.4062 2.72386 27.1824 2.5 26.9062 2.5V3.5ZM30.9688 2.5C30.6926 2.5 30.4688 2.72386 30.4688 3C30.4688 3.27614 30.6926 3.5 30.9688 3.5V2.5ZM35.0312 3.5C35.3074 3.5 35.5312 3.27614 35.5312 3C35.5312 2.72386 35.3074 2.5 35.0312 2.5V3.5ZM39.0938 2.5C38.8176 2.5 38.5938 2.72386 38.5938 3C38.5938 3.27614 38.8176 3.5 39.0938 3.5V2.5ZM43.1562 3.5C43.4324 3.5 43.6562 3.27614 43.6562 3C43.6562 2.72386 43.4324 2.5 43.1562 2.5V3.5ZM47.2188 2.5C46.9426 2.5 46.7188 2.72386 46.7188 3C46.7188 3.27614 46.9426 3.5 47.2188 3.5V2.5ZM51.2812 3.5C51.5574 3.5 51.7812 3.27614 51.7812 3C51.7812 2.72386 51.5574 2.5 51.2812 2.5V3.5ZM55.3438 2.5C55.0676 2.5 54.8438 2.72386 54.8438 3C54.8438 3.27614 55.0676 3.5 55.3438 3.5V2.5ZM59.4062 3.5C59.6824 3.5 59.9062 3.27614 59.9062 3C59.9062 2.72386 59.6824 2.5 59.4062 2.5V3.5ZM63.4688 2.5C63.1926 2.5 62.9688 2.72386 62.9688 3C62.9688 3.27614 63.1926 3.5 63.4688 3.5V2.5ZM0.5 3.5H2.53125V2.5H0.5V3.5ZM6.59375 3.5H10.6562V2.5H6.59375V3.5ZM14.7188 3.5H18.7812V2.5H14.7188V3.5ZM22.8438 3.5H26.9062V2.5H22.8438V3.5ZM30.9688 3.5H35.0312V2.5H30.9688V3.5ZM39.0938 3.5H43.1562V2.5H39.0938V3.5ZM47.2188 3.5H51.2812V2.5H47.2188V3.5ZM55.3438 3.5H59.4062V2.5H55.3438V3.5Z" fill="#1C1C1E"/>
</svg>
