<svg width="100" height="100" viewBox="0 0 100 100" fill="none" xmlns="http://www.w3.org/2000/svg">
<path d="M83.1972 17.9609C79.6604 14.4645 75.6092 11.5585 71.3022 9.52269C64.744 6.42269 57.5204 4.92869 50.2962 4.83989C29.1832 4.58049 27.576 29.6529 21.0846 33.1389C14.5932 36.6251 2.82737 37.0351 2.42157 50.9795C2.16637 59.7501 4.19177 68.7687 9.88717 75.6023C15.1038 81.8611 22.7672 85.0331 30.317 87.3765C38.7954 90.0081 47.7872 92.5897 56.7054 90.8141C65.8576 88.9919 72.2876 81.6661 79.8038 76.7157C84.5362 73.5987 88.7838 70.3165 91.7056 65.3149C92.0546 64.7175 92.3824 64.1069 92.6936 63.4885C96.6052 55.7167 97.3722 46.7519 95.215 38.3417C93.2794 30.7951 88.9094 23.6081 83.1972 17.9609Z" fill="#E74C3C"/>
<path opacity="0.7" d="M83.1972 17.9609C79.6604 14.4645 75.6092 11.5585 71.3022 9.52269C64.744 6.42269 57.5204 4.92869 50.2962 4.83989C29.1832 4.58049 27.576 29.6529 21.0846 33.1389C14.5932 36.6251 2.82737 37.0351 2.42157 50.9795C2.16637 59.7501 4.19177 68.7687 9.88717 75.6023C15.1038 81.8611 22.7672 85.0331 30.317 87.3765C38.7954 90.0081 47.7872 92.5897 56.7054 90.8141C65.8576 88.9919 72.2876 81.6661 79.8038 76.7157C84.5362 73.5987 88.7838 70.3165 91.7056 65.3149C92.0546 64.7175 92.3824 64.1069 92.6936 63.4885C96.6052 55.7167 97.3722 46.7519 95.215 38.3417C93.2794 30.7951 88.9094 23.6081 83.1972 17.9609Z" fill="white"/>
<path d="M97.3856 88.8008H4.59961" stroke="#343B45" stroke-width="0.5" stroke-miterlimit="10" stroke-linecap="round" stroke-linejoin="round"/>
<path d="M89.6204 31.2344H57.9844V88.9H89.6204V31.2344Z" fill="#343B45" stroke="#343B45" stroke-width="0.5" stroke-miterlimit="10" stroke-linecap="round" stroke-linejoin="round"/>
<path d="M87.1147 34.0371H59.9863V64.0713H87.1147V34.0371Z" fill="white" stroke="#343B45" stroke-miterlimit="10" stroke-linecap="round" stroke-linejoin="round"/>
<path d="M71.9057 59.6289L69.3896 60.9197" stroke="#343B45" stroke-miterlimit="10" stroke-linecap="round" stroke-linejoin="round"/>
<path d="M86.2408 52.2754L75.042 58.0206" stroke="#343B45" stroke-miterlimit="10" stroke-linecap="round" stroke-linejoin="round"/>
<path d="M64.652 43.875L63.5566 44.437" stroke="#343B45" stroke-miterlimit="10" stroke-linecap="round" stroke-linejoin="round"/>
<path d="M70.8936 40.6738L66.0176 43.1752" stroke="#343B45" stroke-miterlimit="10" stroke-linecap="round" stroke-linejoin="round"/>
<path d="M87.1147 67.2754H59.9863V85.6964H87.1147V67.2754Z" fill="white" stroke="#343B45" stroke-miterlimit="10" stroke-linecap="round" stroke-linejoin="round"/>
<path d="M88.5958 57.1309H87.6084V67.6639H88.5958V57.1309Z" fill="white"/>
<path d="M69.6494 49.1892L73.4238 44.3984L77.4888 49.3344" stroke="#343B45" stroke-miterlimit="10" stroke-linecap="round" stroke-linejoin="round"/>
<path d="M79.3762 48.4629H67.1816V54.8505H79.3762V48.4629Z" fill="#E74C3C" stroke="#343B45" stroke-miterlimit="10" stroke-linecap="round" stroke-linejoin="round"/>
<path d="M69.6013 53.1365C69.4815 53.2979 69.2933 53.3785 69.0363 53.3785C68.7795 53.3785 68.5875 53.2927 68.4603 53.1209C68.3331 52.9489 68.2695 52.7015 68.2695 52.3787V50.8633C68.2695 50.3459 68.4053 50.0225 68.6765 49.8935C68.7765 49.8463 68.8977 49.8223 69.0401 49.8223C69.5287 49.8223 69.7731 50.1307 69.7731 50.7469V51.2253H69.2615V50.7805C69.2615 50.6013 69.2465 50.4735 69.2161 50.3965C69.1859 50.3195 69.1265 50.2807 69.0383 50.2807C68.9501 50.2807 68.8889 50.3217 68.8545 50.4031C68.8203 50.4849 68.8031 50.6101 68.8031 50.7787V52.4027C68.8031 52.5895 68.8197 52.7233 68.8527 52.8037C68.8855 52.8841 68.9453 52.9243 69.0323 52.9243C69.1193 52.9243 69.1791 52.8835 69.2121 52.8019C69.2451 52.7201 69.2615 52.5853 69.2615 52.3969V51.8991H69.7811V52.3911C69.7811 52.7267 69.7211 52.9755 69.6013 53.1365Z" fill="#343B45"/>
<path d="M70.2119 53.3385V49.8613H70.7415V52.8881H71.4113V53.3385H70.2119Z" fill="#343B45"/>
<path d="M73.0091 53.1271C72.8883 53.2945 72.6943 53.3781 72.4277 53.3781C72.1611 53.3781 71.9653 53.2941 71.8411 53.1265C71.7165 52.9585 71.6543 52.7053 71.6543 52.3667V50.7765C71.6543 50.1389 71.9145 49.8203 72.4349 49.8203C72.7035 49.8203 72.8967 49.9013 73.0145 50.0631C73.1325 50.2253 73.1913 50.4629 73.1913 50.7765V52.3667C73.1913 52.7061 73.1309 52.9601 73.0091 53.1271ZM72.2339 52.7991C72.2649 52.8795 72.3285 52.9197 72.4247 52.9197C72.5209 52.9197 72.5839 52.8787 72.6141 52.7963C72.6443 52.7141 72.6597 52.5731 72.6597 52.3725V50.7525C72.6597 50.5881 72.6443 50.4677 72.6133 50.3921C72.5823 50.3163 72.5219 50.2785 72.4315 50.2785C72.3413 50.2785 72.2781 50.3161 72.2417 50.3921C72.2057 50.4677 72.1873 50.5875 72.1873 50.7507V52.3725C72.1875 52.5765 72.2031 52.7187 72.2339 52.7991Z" fill="#343B45"/>
<path d="M73.6015 52.3605V52.0505H74.1033V52.3999C74.1033 52.5937 74.1195 52.7297 74.1527 52.8083C74.1855 52.8865 74.2475 52.9259 74.3385 52.9259C74.4291 52.9259 74.4897 52.8935 74.5191 52.8289C74.5489 52.7645 74.5637 52.6591 74.5637 52.5127C74.5637 52.3665 74.5371 52.2393 74.4845 52.1307C74.4319 52.0219 74.3485 51.9085 74.2339 51.7899L73.9771 51.5249C73.8571 51.3999 73.7637 51.2703 73.6975 51.1357C73.6311 51.0015 73.5977 50.8461 73.5977 50.6695C73.5977 50.3825 73.6529 50.1691 73.7639 50.0295C73.8745 49.8899 74.0647 49.8203 74.3347 49.8203C74.6047 49.8203 74.7875 49.9017 74.8831 50.0643C74.9785 50.2269 75.0261 50.4645 75.0261 50.7767V50.9919H74.5381V50.7427C74.5381 50.5743 74.5237 50.4535 74.4947 50.3805C74.4659 50.3071 74.4103 50.2707 74.3277 50.2707C74.2455 50.2707 74.1861 50.2983 74.1501 50.3537C74.1137 50.4089 74.0955 50.4923 74.0955 50.6027C74.0955 50.7133 74.1139 50.8017 74.1507 50.8673C74.1875 50.9333 74.2543 51.0177 74.3505 51.1201L74.6369 51.4305C74.7807 51.5859 74.8889 51.7433 74.9619 51.9025C75.0353 52.0621 75.0717 52.2361 75.0717 52.4243C75.0717 52.7497 75.0167 52.9899 74.9077 53.1455C74.7983 53.3007 74.6071 53.3783 74.3335 53.3783C74.0605 53.3783 73.8699 53.2917 73.7627 53.1185C73.6553 52.9451 73.6015 52.6925 73.6015 52.3605Z" fill="#343B45"/>
<path d="M75.459 53.3385V49.8613H76.6246V50.3179H75.9882V51.3295H76.5928V51.7757H75.9882V52.8823H76.6482V53.3385H75.459Z" fill="#343B45"/>
<path d="M77.0693 53.3385V49.8613H77.8499C78.1053 49.8613 78.2907 49.9369 78.4059 50.0875C78.5213 50.2385 78.5787 50.4609 78.5787 50.7545L78.5809 52.3229C78.5809 52.6733 78.5227 52.9303 78.4069 53.0935C78.2909 53.2567 78.0993 53.3385 77.8321 53.3385H77.0693ZM77.5989 52.9277H77.7729C77.8701 52.9277 77.9409 52.8959 77.9851 52.8329C78.0293 52.7695 78.0515 52.6537 78.0515 52.4849L78.0493 50.7681C78.0493 50.5879 78.0275 50.4593 77.9833 50.3831C77.9391 50.3069 77.8631 50.2685 77.7551 50.2685H77.5989V52.9277Z" fill="#343B45"/>
<path d="M64.652 79.6289L63.5566 80.1909" stroke="#343B45" stroke-miterlimit="10" stroke-linecap="round" stroke-linejoin="round"/>
<path d="M70.8936 76.4277L66.0176 78.9291" stroke="#343B45" stroke-miterlimit="10" stroke-linecap="round" stroke-linejoin="round"/>
<g opacity="0.3">
<path d="M15.0181 77.6133H10.2285V79.8939H15.0181V77.6133Z" fill="black"/>
<path d="M20.4915 77.6133H15.7021V79.8939H20.4915V77.6133Z" fill="black"/>
<path d="M20.4915 83.4297H15.7021V85.7103H20.4915V83.4297Z" fill="black"/>
<path d="M48.2027 83.4297H43.4131V85.7103H48.2027V83.4297Z" fill="black"/>
<path d="M56.5269 83.4297H51.7373V85.7103H56.5269V83.4297Z" fill="black"/>
<path d="M15.0181 83.4297H10.2285V85.7103H15.0181V83.4297Z" fill="black"/>
<path d="M34.6324 83.4297H29.8428V85.7103H34.6324V83.4297Z" fill="black"/>
<path d="M29.0445 83.4297H24.2549V85.7103H29.0445V83.4297Z" fill="black"/>
<path d="M17.6412 80.4648H12.8516V82.7456H17.6412V80.4648Z" fill="black"/>
<path d="M23.0003 80.4648H18.2109V82.7456H23.0003V80.4648Z" fill="black"/>
<path d="M28.816 77.6133H24.0264V79.8939H28.816V77.6133Z" fill="black"/>
<path d="M34.2896 77.6133H29.5V79.8939H34.2896V77.6133Z" fill="black"/>
<path d="M31.439 80.4648H26.6494V82.7456H31.439V80.4648Z" fill="black"/>
<path d="M42.6148 77.6133H37.8252V79.8939H42.6148V77.6133Z" fill="black"/>
<path d="M48.0884 77.6133H43.2988V79.8939H48.0884V77.6133Z" fill="black"/>
<path d="M45.2378 80.4648H40.4482V82.7456H45.2378V80.4648Z" fill="black"/>
<path d="M50.7115 80.4648H45.9219V82.7456H50.7115V80.4648Z" fill="black"/>
</g>
<path d="M55.1763 31.2891H9.82031V72.5361H55.1763V31.2891Z" fill="white" stroke="#343B45" stroke-width="0.5" stroke-miterlimit="10" stroke-linecap="round" stroke-linejoin="round"/>
<path d="M16.8988 51.4258L14.3828 52.7164" stroke="#343B45" stroke-miterlimit="10" stroke-linecap="round" stroke-linejoin="round"/>
<path d="M46.7138 36.1289L20.0352 49.8157" stroke="#343B45" stroke-miterlimit="10" stroke-linecap="round" stroke-linejoin="round"/>
<path d="M29.4788 47.4941L14.3828 55.2387" stroke="#343B45" stroke-miterlimit="10" stroke-linecap="round" stroke-linejoin="round"/>
<path d="M34.0168 57.3164L31.501 58.6072" stroke="#343B45" stroke-miterlimit="10" stroke-linecap="round" stroke-linejoin="round"/>
<path d="M48.3521 49.9629L37.1533 55.7081" stroke="#343B45" stroke-miterlimit="10" stroke-linecap="round" stroke-linejoin="round"/>
<path d="M56.1253 69.4004H8.18555V75.2004H56.1253V69.4004Z" fill="#8A8A8A" stroke="#343B45" stroke-width="0.5" stroke-miterlimit="10" stroke-linecap="round" stroke-linejoin="round"/>
<path d="M26.0384 69.4004H25.4102V75.2004H26.0384V69.4004Z" fill="white" stroke="#343B45" stroke-width="0.5" stroke-miterlimit="10" stroke-linecap="round" stroke-linejoin="round"/>
<path d="M30.3723 69.4004H29.7441V75.2004H30.3723V69.4004Z" fill="white" stroke="#343B45" stroke-width="0.5" stroke-miterlimit="10" stroke-linecap="round" stroke-linejoin="round"/>
<path d="M21.7044 69.4004H21.0762V75.2004H21.7044V69.4004Z" fill="white" stroke="#343B45" stroke-width="0.5" stroke-miterlimit="10" stroke-linecap="round" stroke-linejoin="round"/>
<path d="M13.0364 69.4004H12.4082V75.2004H13.0364V69.4004Z" fill="white" stroke="#343B45" stroke-width="0.5" stroke-miterlimit="10" stroke-linecap="round" stroke-linejoin="round"/>
<path d="M17.3704 69.4004H16.7422V75.2004H17.3704V69.4004Z" fill="white" stroke="#343B45" stroke-width="0.5" stroke-miterlimit="10" stroke-linecap="round" stroke-linejoin="round"/>
<path d="M34.7063 69.4004H34.0781V75.2004H34.7063V69.4004Z" fill="white" stroke="#343B45" stroke-miterlimit="10" stroke-linecap="round" stroke-linejoin="round"/>
<path d="M47.7093 69.4004H47.0811V75.2004H47.7093V69.4004Z" fill="white" stroke="#343B45" stroke-width="0.5" stroke-miterlimit="10" stroke-linecap="round" stroke-linejoin="round"/>
<path d="M52.0432 69.4004H51.415V75.2004H52.0432V69.4004Z" fill="white" stroke="#343B45" stroke-width="0.5" stroke-miterlimit="10" stroke-linecap="round" stroke-linejoin="round"/>
<path d="M39.0413 69.4004H38.4131V75.2004H39.0413V69.4004Z" fill="white" stroke="#343B45" stroke-miterlimit="10" stroke-linecap="round" stroke-linejoin="round"/>
<path d="M43.3753 69.4004H42.7471V75.2004H43.3753V69.4004Z" fill="white" stroke="#343B45" stroke-width="0.5" stroke-miterlimit="10" stroke-linecap="round" stroke-linejoin="round"/>
<path opacity="0.2" d="M82.0714 16.6016H69.474H56.5082H43.9108H31.1736H18.576H5.93164V35.8396V37.3368V37.9294C5.93164 40.815 8.27084 43.154 11.1562 43.154H13.284C16.1694 43.154 18.5086 40.8148 18.5086 37.9294C18.5086 40.815 20.8478 43.154 23.7332 43.154H25.861C28.7466 43.154 31.0856 40.8148 31.0856 37.9294V37.3368H31.2V37.9294C31.2 40.815 33.5392 43.154 36.4246 43.154H38.5524C41.438 43.154 43.777 40.8148 43.777 37.9294V37.3368H43.8914V37.9294C43.8914 40.815 46.2306 43.154 49.116 43.154H51.2438C54.1294 43.154 56.4684 40.8148 56.4684 37.9294V37.3368H56.5828V37.9294C56.5828 40.815 58.922 43.154 61.8074 43.154H63.9352C66.8206 43.154 69.1598 40.8148 69.1598 37.9294V37.3368H69.2742V37.9294C69.2742 40.815 71.6134 43.154 74.4988 43.154H76.6266C79.5122 43.154 81.8512 40.8148 81.8512 37.9294V37.3368H81.9656V37.9294C81.9656 40.815 84.3048 43.154 87.1902 43.154H89.318C92.2034 43.154 94.5426 40.8148 94.5426 37.9294V37.3368V35.8396V16.6016H82.0714Z" fill="black"/>
<path d="M25.8612 36.3537H23.7334C20.848 36.3537 18.5088 34.0145 18.5088 31.1291V29.0391H31.086V31.1289C31.086 34.0145 28.7468 36.3537 25.8612 36.3537Z" fill="#E74C3C" stroke="#343B45" stroke-width="0.5" stroke-miterlimit="10" stroke-linecap="round" stroke-linejoin="round"/>
<path d="M13.284 36.3537H11.1562C8.27064 36.3537 5.93164 34.0145 5.93164 31.1291V29.0391H18.5088V31.1289C18.5086 34.0145 16.1694 36.3537 13.284 36.3537Z" fill="#E0E0E0" stroke="#343B45" stroke-width="0.5" stroke-miterlimit="10" stroke-linecap="round" stroke-linejoin="round"/>
<path d="M38.5526 36.3537H36.4248C33.5394 36.3537 31.2002 34.0145 31.2002 31.1291V29.0391H43.7774V31.1289C43.7774 34.0145 41.4382 36.3537 38.5526 36.3537Z" fill="#E0E0E0" stroke="#343B45" stroke-width="0.5" stroke-miterlimit="10" stroke-linecap="round" stroke-linejoin="round"/>
<path d="M51.244 36.3537H49.1162C46.2306 36.3537 43.8916 34.0145 43.8916 31.1291V29.0391H56.4688V31.1289C56.4686 34.0145 54.1294 36.3537 51.244 36.3537Z" fill="#E74C3C" stroke="#343B45" stroke-width="0.5" stroke-miterlimit="10" stroke-linecap="round" stroke-linejoin="round"/>
<path d="M63.9354 36.3537H61.8076C58.922 36.3537 56.583 34.0145 56.583 31.1291V29.0391H69.1602V31.1289C69.16 34.0145 66.821 36.3537 63.9354 36.3537Z" fill="#E0E0E0" stroke="#343B45" stroke-width="0.5" stroke-miterlimit="10" stroke-linecap="round" stroke-linejoin="round"/>
<path d="M76.6268 36.3537H74.499C71.6136 36.3537 69.2744 34.0145 69.2744 31.1291V29.0391H81.8516V31.1289C81.8516 34.0145 79.5124 36.3537 76.6268 36.3537Z" fill="#E74C3C" stroke="#343B45" stroke-width="0.5" stroke-miterlimit="10" stroke-linecap="round" stroke-linejoin="round"/>
<path d="M89.3182 36.3537H87.1904C84.305 36.3537 81.9658 34.0145 81.9658 31.1291V29.0391H94.543V31.1289C94.5428 34.0145 92.2036 36.3537 89.3182 36.3537Z" fill="#E0E0E0" stroke="#343B45" stroke-width="0.5" stroke-miterlimit="10" stroke-linecap="round" stroke-linejoin="round"/>
<path d="M94.5432 9.80078H5.93164V30.536H94.5432V9.80078Z" fill="white" stroke="#343B45" stroke-width="0.5" stroke-miterlimit="10" stroke-linecap="round" stroke-linejoin="round"/>
<path d="M31.1736 9.80078H18.5762V30.536H31.1736V9.80078Z" fill="#E74C3C" stroke="#343B45" stroke-width="0.5" stroke-miterlimit="10" stroke-linecap="round" stroke-linejoin="round"/>
<path d="M56.5085 9.80078H43.9111V30.536H56.5085V9.80078Z" fill="#E74C3C" stroke="#343B45" stroke-width="0.5" stroke-miterlimit="10" stroke-linecap="round" stroke-linejoin="round"/>
<path d="M82.071 9.80078H69.4736V30.536H82.071V9.80078Z" fill="#E74C3C" stroke="#343B45" stroke-width="0.5" stroke-miterlimit="10" stroke-linecap="round" stroke-linejoin="round"/>
<path d="M84.5186 13.2144C85.0914 13.0138 85.6522 12.8096 86.1994 12.6016" stroke="#343B45" stroke-width="0.5" stroke-miterlimit="10" stroke-linecap="round" stroke-linejoin="round"/>
<path d="M65.5879 18.0259C71.9287 16.8163 78.1705 15.3439 83.4735 13.5723" stroke="#343B45" stroke-width="0.5" stroke-miterlimit="10" stroke-linecap="round" stroke-linejoin="round"/>
<path d="M31.9629 22.5173C38.0977 21.9865 51.2509 20.6773 64.2387 18.2793" stroke="#343B45" stroke-width="0.5" stroke-miterlimit="10" stroke-linecap="round" stroke-linejoin="round"/>
<path d="M28.3994 22.8024C28.3994 22.8024 29.0256 22.7594 30.1596 22.668" stroke="#343B45" stroke-width="0.5" stroke-miterlimit="10" stroke-linecap="round" stroke-linejoin="round"/>
<path d="M42.7979 19.4456C45.3147 19.1362 47.8359 18.731 50.1995 18.2012" stroke="#343B45" stroke-width="0.5" stroke-miterlimit="10" stroke-linecap="round" stroke-linejoin="round"/>
<path d="M23.1992 20.4012C23.1992 20.4012 32.152 20.6338 41.547 19.5918" stroke="#343B45" stroke-width="0.5" stroke-miterlimit="10" stroke-linecap="round" stroke-linejoin="round"/>
<path d="M36.7996 95.4003C44.0898 95.4003 49.9996 94.6404 49.9996 93.7031C49.9996 92.7657 44.0898 92.0059 36.7996 92.0059C29.5095 92.0059 23.5996 92.7657 23.5996 93.7031C23.5996 94.6404 29.5095 95.4003 36.7996 95.4003Z" fill="#343B45" stroke="#343B45" stroke-miterlimit="10" stroke-linecap="round" stroke-linejoin="round"/>
<path d="M30.2937 91.0631C30.2937 91.0631 30.8123 91.7231 31.2837 91.9589C31.7551 92.1945 33.0279 92.4303 33.0279 92.8075C33.0279 93.1847 32.2737 93.5147 31.2837 93.4675C30.2937 93.4203 29.3037 92.8075 28.9737 92.7603C28.6437 92.7131 27.3237 92.7131 26.9937 92.5245C26.6637 92.3359 27.1823 90.8273 27.1823 90.8273L29.8695 90.6387L30.2937 91.0631Z" fill="white" stroke="#343B45" stroke-miterlimit="10"/>
<path d="M28.9737 92.7611C29.3037 92.8083 30.2937 93.4211 31.2837 93.4683C32.0831 93.5063 32.7283 93.2985 32.9473 93.0183C31.9335 93.3885 30.2427 92.9897 29.5395 92.6197C28.8263 92.2443 27.4269 92.1679 26.8855 92.1523C26.8797 92.3335 26.9067 92.4757 26.9937 92.5253C27.3237 92.7139 28.6437 92.7139 28.9737 92.7611Z" fill="white" stroke="#343B45" stroke-miterlimit="10"/>
<path d="M31.9437 70.414C31.9437 70.414 30.3409 78.664 29.4451 80.7854C28.5493 82.9068 28.0779 84.321 27.9837 85.8768C27.8895 87.4326 26.9937 90.4026 26.9937 90.8268C26.9937 91.251 26.9465 91.6754 26.9465 91.6754C26.9465 91.6754 26.5693 91.8168 27.5593 91.6754C28.5493 91.534 29.5865 91.0626 29.7279 91.0626C29.8693 91.0626 30.2935 91.0626 30.2935 91.0626C30.2935 91.0626 30.9535 90.1198 30.9535 89.5068C30.9535 88.8938 30.5763 87.7154 30.8593 87.1496C31.1421 86.5838 33.7351 82.2938 34.3479 80.7854C34.9607 79.2768 35.8093 75.9768 35.8565 75.8354C35.9037 75.694 32.6507 69.8482 32.6507 69.8482C32.6507 69.8482 31.9437 69.424 31.9437 70.414Z" fill="#E74C3C" stroke="#343B45" stroke-miterlimit="10" stroke-linecap="round" stroke-linejoin="round"/>
<path d="M45.1437 61.127C45.1437 61.127 46.3011 61.1488 46.5615 61.1488C46.8219 61.1488 47.1691 61.4092 47.2559 61.6262C47.3427 61.8432 47.4729 62.885 47.4295 63.0586C47.3861 63.2322 46.3879 63.4492 46.3879 63.4492L45.8671 63.0586L44.9551 62.6356L45.1437 61.127Z" fill="white" stroke="#343B45" stroke-miterlimit="10"/>
<path d="M46.0838 62.1035L47.2122 62.8413C47.2122 62.8413 47.4726 63.1885 47.299 63.3187C47.1254 63.4489 46.6046 63.0149 46.6046 63.0149C46.6046 63.0149 45.78 63.0149 45.5194 62.8413C45.259 62.6677 45.042 62.4073 45.042 62.4073" fill="white"/>
<path d="M46.0838 62.1035L47.2122 62.8413C47.2122 62.8413 47.4726 63.1885 47.299 63.3187C47.1254 63.4489 46.6046 63.0149 46.6046 63.0149C46.6046 63.0149 45.78 63.0149 45.5194 62.8413C45.259 62.6677 45.042 62.4073 45.042 62.4073" stroke="#343B45" stroke-miterlimit="10"/>
<path d="M39.6758 58.8184C39.6758 58.8184 42.08 59.9026 42.7872 60.2326C43.4944 60.5626 45.1444 61.1284 45.1444 61.1284L44.9558 62.637C44.9558 62.637 41.1844 62.0242 40.8072 62.0242C40.43 62.0242 39.77 61.8356 39.77 61.8356L39.6758 58.8184Z" fill="#343B45" stroke="#343B45" stroke-miterlimit="10"/>
<path d="M26.3793 67.2257L26.7265 68.0503C26.7265 68.0503 26.9001 69.0919 26.9435 69.3525C26.9869 69.6129 27.3775 70.0469 27.1171 70.0903C26.8567 70.1337 26.6831 69.9601 26.5963 69.7431C26.5095 69.5261 26.2925 69.2657 26.2925 69.2657L26.2057 70.3073C26.2057 70.3073 26.5963 70.5243 26.4661 70.7413C26.3359 70.9583 25.9019 70.7847 25.7717 70.6545C25.6415 70.5243 25.4679 70.0903 25.4679 70.0903C25.4679 70.0903 24.6433 69.9601 24.4263 69.6563C24.2093 69.3525 24.0357 68.3977 24.1659 68.0503C24.2961 67.7031 24.8169 66.9219 24.8169 66.9219L26.3793 67.2257Z" fill="white" stroke="#343B45" stroke-miterlimit="10"/>
<path d="M44.4375 90.2143C44.4375 90.2143 45.8047 90.2615 46.7003 90.1201C47.5961 89.9787 48.4917 89.5543 48.5861 90.0729C48.6803 90.5915 48.4919 91.1571 46.7947 92.1471C45.0975 93.1371 43.7775 93.5613 43.4947 93.6557C43.2119 93.7499 42.646 93.8913 42.4104 93.8913C42.1746 93.8913 41.6562 92.0057 41.6562 92.0057L44.1077 90.1671L44.4375 90.2143Z" fill="white" stroke="#343B45" stroke-miterlimit="10"/>
<path d="M46.7949 92.1482C48.4921 91.1582 48.6807 90.5924 48.5863 90.074C48.5645 89.9538 48.4979 89.8858 48.3999 89.8516C48.0291 90.2876 47.4617 90.8764 46.7005 91.441C45.4363 92.3788 42.8335 93.281 42.1533 93.5076C42.2497 93.7332 42.3421 93.8924 42.4105 93.8924C42.6463 93.8924 43.2119 93.751 43.4947 93.6568C43.7779 93.5624 45.0979 93.1382 46.7949 92.1482Z" fill="white" stroke="#343B45" stroke-miterlimit="10"/>
<path d="M30.9073 66.4551C30.9073 66.4551 30.7187 67.9165 30.9545 68.9065C31.1903 69.8965 32.2273 71.0751 32.2273 71.0751C32.2273 71.0751 34.8201 78.4765 35.4331 79.6551C36.0459 80.8337 39.0159 87.2451 39.5817 87.9051C40.1475 88.5651 40.7131 90.8279 40.9961 91.3937C41.2789 91.9595 41.8448 92.1479 41.8448 92.1479L44.7202 90.1209C44.7202 90.1209 44.6259 89.3195 44.4374 88.8951C44.2487 88.4709 41.9387 82.8609 41.7031 81.6351C41.4673 80.4095 40.6189 77.1565 40.6189 76.8265C40.6189 76.4965 38.6861 70.1323 38.6861 70.1323L39.5347 67.1623L39.6289 66.5023L31.0489 66.0781L30.9073 66.4551Z" fill="#E74C3C" stroke="#343B45" stroke-miterlimit="10" stroke-linecap="round" stroke-linejoin="round"/>
<path d="M40.6132 88.7812C40.5896 89.1888 40.5884 89.5238 40.6186 89.7432" stroke="#343B45" stroke-miterlimit="10"/>
<path d="M41.4673 82.5312C41.4673 82.5312 40.8657 85.9221 40.6621 88.1427" stroke="#343B45" stroke-miterlimit="10"/>
<path d="M40.4189 84.4825C40.6271 83.5219 40.8321 82.2853 40.8547 81.0703" stroke="#343B45" stroke-miterlimit="10"/>
<path d="M39.959 86.2552C39.959 86.2552 40.0976 85.8242 40.2658 85.1426" stroke="#343B45" stroke-miterlimit="10"/>
<path d="M36.3291 68.0586C36.3291 68.0586 37.7433 69.0958 37.9319 69.4258C38.1205 69.7558 38.1205 69.7558 38.1205 69.7558" stroke="#343B45" stroke-miterlimit="10"/>
<path d="M37.0361 68.0117L37.9317 68.8131" stroke="#343B45" stroke-miterlimit="10"/>
<path d="M34.2074 48.4453C34.2074 48.4453 31.3788 50.2839 30.9074 50.9911C30.436 51.6983 29.2574 54.4797 29.2574 54.4797C29.2574 54.4797 26.9946 57.2139 26.8532 57.7797C26.7118 58.3455 25.9574 59.6655 25.769 60.7497C25.5804 61.8339 24.5904 66.4069 24.4962 66.7839C24.4018 67.1611 24.3076 67.3025 24.3076 67.3025L26.5234 67.4439C26.5234 67.4439 27.2776 65.2753 27.5606 64.2853C27.8434 63.2953 28.6448 61.4567 29.0692 60.5611C29.4934 59.6655 29.8234 58.8639 29.8234 58.8639L30.5306 58.0153L31.0492 57.5909C31.0492 57.5909 31.0964 63.3895 31.1434 63.5781C31.1906 63.7667 30.8134 65.4637 30.8134 66.0767C30.8134 66.6897 30.8134 66.9253 30.8134 66.9253C30.8134 66.9253 31.0492 66.9253 32.6992 67.2081C34.3492 67.4909 35.5278 67.4909 36.612 67.4437C37.6962 67.3965 39.912 67.3495 39.9592 67.2081C40.0064 67.0667 39.9592 64.8981 39.9592 64.5209C39.9592 64.1437 40.1948 60.5609 40.1478 59.3823C40.1006 58.2037 39.9592 57.3551 39.9592 56.9309C39.9592 56.5067 39.3934 53.5367 39.205 52.8295C39.0164 52.1223 38.2622 50.1895 37.6964 49.6237C37.1302 49.0581 34.2074 48.4453 34.2074 48.4453Z" fill="#343B45" stroke="#343B45" stroke-width="0.5" stroke-miterlimit="10"/>
<path d="M31.0488 57.5919L34.443 54.4805" stroke="#828282" stroke-miterlimit="10"/>
<path d="M32.8398 55.894L35.197 54.9512" stroke="#828282" stroke-miterlimit="10"/>
<path d="M38.2693 40.748C38.2693 40.748 38.8175 41.1866 39.2011 41.8168C39.5847 42.4472 39.6669 43.2694 39.7767 43.379C39.8863 43.4886 40.0233 43.7626 39.8863 44.0094C39.7493 44.256 39.6671 44.5302 39.6671 44.5302C39.6671 44.5302 40.2975 45.2976 40.2701 45.7086C40.2427 46.1198 39.8315 46.2568 39.8315 46.2568L39.7219 46.9146C39.7219 46.9146 39.9137 47.8738 39.2011 48.285C38.4885 48.696 37.8855 48.4494 37.8855 48.4494L37.3647 49.6552L34.5967 48.0382C34.5967 48.0382 34.7611 47.3256 34.7885 47.079C34.8159 46.8324 34.5693 46.0924 34.5145 45.928C34.4597 45.7636 33.6101 44.8592 33.7197 43.9C33.8293 42.9408 34.4871 41.6252 35.2271 41.2142C35.9671 40.803 36.7619 40.6934 37.0907 40.6934C37.4197 40.6932 38.2693 40.748 38.2693 40.748Z" fill="white" stroke="#343B45" stroke-miterlimit="10"/>
<path d="M36.9265 44.4482C36.9265 44.4482 37.1457 44.366 37.2553 44.229C37.3649 44.092 37.3101 43.8728 37.4471 43.7904C37.5841 43.7082 38.1871 43.489 38.1323 43.1052C38.0775 42.7216 37.5841 42.0364 37.3649 41.9542C37.1457 41.872 36.5153 41.6802 37.1183 41.3238C37.7213 40.9676 38.1049 41.2142 38.2693 41.0224C38.4337 40.8306 38.3789 40.5566 37.9131 40.5016C37.4471 40.4468 35.8577 40.0906 34.6791 40.995C33.5007 41.8994 33.0073 42.475 33.2265 44.0098C33.4457 45.5446 35.0901 47.1068 35.1997 47.189C35.3093 47.2712 36.3781 47.3808 36.7619 46.6682C37.1457 45.9556 36.7071 45.3526 36.7071 45.1608C36.7073 44.969 36.9265 44.4482 36.9265 44.4482Z" fill="#343B45" stroke="#343B45" stroke-miterlimit="10"/>
<path d="M36.625 44.3654L40.6538 44.2832" stroke="#343B45" stroke-miterlimit="10"/>
<path d="M39.8867 44.0087C39.8867 44.0087 40.6267 43.8443 40.6541 44.2827C40.6815 44.7213 40.5445 45.0501 40.1607 45.0501" stroke="#343B45" stroke-miterlimit="10"/>
<path d="M37.1329 44.916C37.1329 44.916 36.7487 43.1392 36.1725 44.0516C35.5963 44.964 36.0765 46.1646 36.5567 46.3086C37.0369 46.4526 37.0369 46.4526 37.0369 46.4526C37.0369 46.4526 37.2771 47.269 37.5651 47.509" fill="white"/>
<path d="M37.1329 44.916C37.1329 44.916 36.7487 43.1392 36.1725 44.0516C35.5963 44.964 36.0765 46.1646 36.5567 46.3086C37.0369 46.4526 37.0369 46.4526 37.0369 46.4526C37.0369 46.4526 37.2771 47.269 37.5651 47.509" stroke="#343B45" stroke-miterlimit="10"/>
<path d="M34.5054 47.5664L34.0654 48.5092L37.1454 50.8664L38.151 49.4206L34.5054 47.5664Z" fill="white" stroke="#343B45" stroke-miterlimit="10"/>
</svg>
