<svg width="100" height="101" viewBox="0 0 100 101" fill="none" xmlns="http://www.w3.org/2000/svg">
<path d="M82.482 66.0083L85.1532 65.9525L86.469 65.9301C86.9066 65.9207 87.3418 65.9227 87.7782 65.9191L87.689 66.0083L87.6782 63.7703L87.778 63.8701L85.13 63.8575C84.2474 63.8565 83.3646 63.8351 82.482 63.8247L82.5366 63.7701C82.5328 64.1363 82.5194 64.5047 82.5104 64.8773L82.482 66.0083ZM82.482 66.0083L82.4536 64.9011C82.4446 64.5277 82.4312 64.1501 82.4274 63.7703L82.4268 63.7163L82.482 63.7157C83.3646 63.7055 84.2474 63.6839 85.13 63.6829L87.778 63.6703L87.8784 63.6699L87.878 63.7703L87.8672 66.0083L87.8668 66.0981L87.778 66.0973C87.3316 66.0937 86.8842 66.0957 86.439 66.0863L85.1068 66.0639L82.482 66.0083Z" fill="#EBEBEB"/>
<path d="M85.4361 68.8306L88.1073 68.7748L89.4231 68.7524C89.8607 68.743 90.2959 68.745 90.7323 68.7414L90.6431 68.8306L90.6323 66.5926L90.7321 66.6924L88.0841 66.6798C87.2015 66.6788 86.3187 66.6574 85.4361 66.647L85.4907 66.5924C85.4869 66.9586 85.4735 67.327 85.4645 67.6996L85.4361 68.8306ZM85.4361 68.8306L85.4077 67.7234C85.3987 67.35 85.3853 66.9724 85.3815 66.5926L85.3809 66.5386L85.4361 66.538C86.3187 66.5278 87.2015 66.5062 88.0841 66.5052L90.7321 66.4926L90.8325 66.4922L90.8321 66.5926L90.8213 68.8306L90.8209 68.9204L90.7321 68.9196C90.2857 68.916 89.8383 68.918 89.3931 68.9086L88.0609 68.8862L85.4361 68.8306Z" fill="#EBEBEB"/>
<path d="M57.1753 46.4224L59.8465 46.3666L61.1623 46.3442C61.5999 46.3348 62.0351 46.3368 62.4715 46.3332L62.3823 46.4224L62.3715 44.1844L62.4713 44.2842L59.8233 44.2716C58.9407 44.2706 58.0579 44.2492 57.1753 44.2388L57.2299 44.1842C57.2261 44.5504 57.2127 44.9188 57.2037 45.2914L57.1753 46.4224ZM57.1753 46.4224L57.1469 45.3152C57.1379 44.9418 57.1245 44.5642 57.1207 44.1844L57.1201 44.1304L57.1753 44.1298C58.0579 44.1196 58.9407 44.098 59.8233 44.097L62.4713 44.0844L62.5717 44.084L62.5713 44.1844L62.5605 46.4224L62.5601 46.5122L62.4713 46.5114C62.0249 46.5078 61.5775 46.5098 61.1323 46.5004L59.8001 46.478L57.1753 46.4224Z" fill="#EBEBEB"/>
<path d="M60.1294 49.2447L62.8004 49.1889L64.1162 49.1665C64.5538 49.1571 64.989 49.1591 65.4254 49.1555L65.3362 49.2447L65.3254 47.0066L65.4252 47.1065L62.7772 47.0939C61.8946 47.0929 61.0118 47.0713 60.1292 47.0611L60.1838 47.0065C60.18 47.3727 60.1666 47.7411 60.1576 48.1137L60.1294 49.2447ZM60.1294 49.2447L60.101 48.1375C60.092 47.7641 60.0786 47.3864 60.0748 47.0066L60.0742 46.9527L60.1294 46.9521C61.012 46.9419 61.8948 46.9203 62.7774 46.9193L65.4254 46.9066L65.5258 46.9062L65.5254 47.0066L65.5146 49.2447L65.5142 49.3345L65.4254 49.3337C64.979 49.3301 64.5316 49.3321 64.0864 49.3227L62.7542 49.3003L60.1294 49.2447Z" fill="#EBEBEB"/>
<path d="M63.0728 46.4224L65.744 46.3666L67.0598 46.3442C67.4974 46.3348 67.9326 46.3368 68.369 46.3332L68.2798 46.4224L68.269 44.1844L68.3688 44.2842L65.7208 44.2716C64.8382 44.2706 63.9554 44.2492 63.0728 44.2388L63.1274 44.1842C63.1236 44.5504 63.1102 44.9188 63.1012 45.2914L63.0728 46.4224ZM63.0728 46.4224L63.0444 45.3152C63.0354 44.9418 63.022 44.5642 63.0182 44.1844L63.0176 44.1304L63.0728 44.1298C63.9554 44.1196 64.8382 44.098 65.7208 44.097L68.3688 44.0844L68.4692 44.084L68.4688 44.1844L68.458 46.4224L68.4576 46.5122L68.3688 46.5114C67.9224 46.5078 67.475 46.5098 67.0298 46.5004L65.6976 46.478L63.0728 46.4224Z" fill="#EBEBEB"/>
<path d="M9.26907 68.8306L11.9403 68.7748L13.2561 68.7524C13.6937 68.743 14.1289 68.745 14.5653 68.7414L14.4761 68.8306L14.4653 66.5926L14.5651 66.6924L11.9171 66.6798C11.0345 66.6788 10.1517 66.6574 9.26907 66.647L9.32367 66.5924C9.31987 66.9586 9.30647 67.327 9.29747 67.6996L9.26907 68.8306ZM9.26907 68.8306L9.24067 67.7234C9.23167 67.35 9.21827 66.9724 9.21447 66.5926L9.21387 66.5386L9.26907 66.538C10.1517 66.5278 11.0345 66.5062 11.9171 66.5052L14.5651 66.4926L14.6655 66.4922L14.6651 66.5926L14.6543 68.8306L14.6539 68.9204L14.5651 68.9196C14.1187 68.916 13.6713 68.918 13.2261 68.9086L11.8939 68.8862L9.26907 68.8306Z" fill="#EBEBEB"/>
<path d="M12.2232 14.0943L14.8944 14.0385L16.2102 14.0161C16.6478 14.0067 17.083 14.0087 17.5194 14.0051L17.4302 14.0943L17.4194 11.8563L17.5192 11.9561L14.8712 11.9435C13.9886 11.9425 13.1058 11.9209 12.2232 11.9107L12.2778 11.8561C12.274 12.2223 12.2606 12.5907 12.2516 12.9633L12.2232 14.0943ZM12.2232 14.0943L12.1948 12.9871C12.1858 12.6137 12.1724 12.2361 12.1686 11.8563L12.168 11.8023L12.2232 11.8017C13.1058 11.7915 13.9886 11.7699 14.8712 11.7689L17.5192 11.7563L17.6196 11.7559L17.6192 11.8563L17.6084 14.0943L17.608 14.1841L17.5192 14.1833C17.0728 14.1797 16.6254 14.1817 16.1802 14.1723L14.848 14.1499L12.2232 14.0943Z" fill="#EBEBEB"/>
<path d="M9.26907 16.9165L11.9403 16.8607L13.2561 16.8383C13.6937 16.8289 14.1289 16.8309 14.5653 16.8273L14.4761 16.9165L14.4653 14.6785L14.5651 14.7783L11.9171 14.7657C11.0345 14.7647 10.1517 14.7433 9.26907 14.7329L9.32367 14.6783C9.31987 15.0445 9.30647 15.4129 9.29747 15.7855L9.26907 16.9165ZM9.26907 16.9165L9.24067 15.8093C9.23167 15.4359 9.21827 15.0583 9.21447 14.6785L9.21387 14.6245L9.26907 14.6239C10.1517 14.6137 11.0345 14.5921 11.9171 14.5911L14.5651 14.5785L14.6655 14.5781L14.6651 14.6785L14.6543 16.9165L14.6539 17.0063L14.5651 17.0057C14.1187 17.0021 13.6713 17.0041 13.2261 16.9947L11.8939 16.9723L9.26907 16.9165Z" fill="#EBEBEB"/>
<path d="M85.4361 14.0943L88.1073 14.0385L89.4231 14.0161C89.8607 14.0067 90.2959 14.0087 90.7323 14.0051L90.6431 14.0943L90.6323 11.8563L90.7321 11.9561L88.0841 11.9435C87.2015 11.9425 86.3187 11.9209 85.4361 11.9107L85.4907 11.8561C85.4869 12.2223 85.4735 12.5907 85.4645 12.9633L85.4361 14.0943ZM85.4361 14.0943L85.4077 12.9871C85.3987 12.6137 85.3853 12.2361 85.3815 11.8563L85.3809 11.8023L85.4361 11.8017C86.3187 11.7915 87.2015 11.7699 88.0841 11.7689L90.7321 11.7563L90.8325 11.7559L90.8321 11.8563L90.8213 14.0943L90.8209 14.1841L90.7321 14.1833C90.2857 14.1797 89.8383 14.1817 89.3931 14.1723L88.0609 14.1499L85.4361 14.0943Z" fill="#EBEBEB"/>
<path d="M80.6947 11.4175L79.5175 13.3153L80.0987 13.6753C80.2697 13.7811 80.3623 13.9745 80.3451 14.1749C80.3357 14.2857 80.3321 14.3971 80.3345 14.5087C80.3389 14.7093 80.2341 14.8959 80.0575 14.9905L79.4551 15.3135L80.5109 17.2823L81.1133 16.9593C81.2901 16.8645 81.5035 16.8805 81.6679 16.9951C81.7595 17.0589 81.8543 17.1177 81.9519 17.1709C82.1283 17.2675 82.2381 17.4517 82.2317 17.6525L82.2101 18.3359L84.4423 18.4053L84.4629 17.7195C84.4689 17.5183 84.5923 17.3433 84.7741 17.2575C84.8235 17.2341 84.8725 17.2095 84.9209 17.1835C84.9693 17.1575 85.0171 17.1303 85.0637 17.1021C85.2351 16.9985 85.4479 16.9925 85.6181 17.0979L86.2035 17.4605L87.3807 15.5627L86.7985 15.2013C86.6277 15.0953 86.5351 14.9017 86.5525 14.7013C86.5621 14.5911 86.5657 14.4801 86.5635 14.3689C86.5593 14.1687 86.6641 13.9823 86.8405 13.8875L87.4431 13.5643L86.3873 11.5955L85.7847 11.9187C85.6081 12.0133 85.3951 11.9975 85.2305 11.8833C85.1391 11.8199 85.0447 11.7615 84.9475 11.7085C84.7709 11.6121 84.6609 11.4281 84.6671 11.2271L84.6881 10.5421L82.4559 10.4727L82.4347 11.1579C82.4285 11.3583 82.3055 11.5327 82.1243 11.6183C82.0747 11.6417 82.0253 11.6667 81.9763 11.6929C81.9279 11.7189 81.8801 11.7461 81.8333 11.7743C81.6611 11.8783 81.4471 11.8843 81.2761 11.7783L80.6947 11.4175ZM82.5847 12.8269C83.4749 12.3495 84.5827 12.6839 85.0601 13.5741C85.5375 14.4643 85.2041 15.5737 84.3137 16.0513C83.4235 16.5287 82.3133 16.1937 81.8357 15.3033C81.3581 14.4129 81.6945 13.3045 82.5847 12.8269Z" fill="#EBEBEB"/>
<path d="M88.4636 19.2793L87.1084 20.0611L87.348 20.4759C87.4186 20.5979 87.4118 20.7479 87.3348 20.8659C87.2922 20.9311 87.2532 20.9987 87.2178 21.0685C87.1542 21.1937 87.0276 21.2743 86.8872 21.2743H86.4082V22.8393H86.8872C87.0276 22.8393 87.1542 22.9199 87.2178 23.0451C87.2532 23.1149 87.2924 23.1825 87.3348 23.2477C87.4116 23.3657 87.4184 23.5157 87.348 23.6377L87.1084 24.0525L88.4636 24.8345L88.7034 24.4179C88.7738 24.2957 88.9078 24.2285 89.0486 24.2357C89.0868 24.2377 89.1252 24.2385 89.1638 24.2385C89.2024 24.2385 89.2408 24.2375 89.279 24.2357C89.4192 24.2285 89.5526 24.2953 89.6228 24.4167L89.8642 24.8345L91.2192 24.0525L90.9794 23.6367C90.909 23.5147 90.916 23.3645 90.993 23.2467C91.0354 23.1817 91.0744 23.1145 91.1098 23.0451C91.1736 22.9201 91.3 22.8397 91.4402 22.8397H91.9192V21.2747H91.4402C91.2998 21.2747 91.1736 21.1943 91.1098 21.0693C91.0744 20.9999 91.0354 20.9325 90.993 20.8677C90.916 20.7497 90.909 20.5997 90.9794 20.4775L91.2192 20.0617L89.8642 19.2799L89.6242 19.6959C89.554 19.8175 89.4204 19.8845 89.28 19.8773C89.2416 19.8753 89.203 19.8743 89.164 19.8743C89.1254 19.8743 89.087 19.8753 89.0488 19.8773C88.908 19.8845 88.774 19.8173 88.7034 19.6953L88.4636 19.2793ZM89.1638 20.7753C89.8716 20.7753 90.4448 21.3485 90.4448 22.0563C90.4448 22.7641 89.8716 23.3385 89.1638 23.3385C88.456 23.3385 87.8816 22.7641 87.8816 22.0563C87.8816 21.3485 88.456 20.7753 89.1638 20.7753Z" fill="#EBEBEB"/>
<path d="M8.08125 61.239L8.86325 62.594L9.27785 62.3544C9.39985 62.284 9.54986 62.2906 9.66786 62.3676C9.73306 62.4102 9.80065 62.4492 9.87045 62.4846C9.99565 62.5482 10.0763 62.6748 10.0763 62.8152V63.2942H11.6413V62.8152C11.6413 62.6748 11.7219 62.5482 11.8471 62.4846C11.9169 62.4492 11.9845 62.41 12.0497 62.3676C12.1677 62.2908 12.3177 62.284 12.4397 62.3544L12.8545 62.594L13.6363 61.239L13.2197 60.9992C13.0975 60.9288 13.0303 60.7948 13.0375 60.654C13.0395 60.6158 13.0405 60.5774 13.0405 60.5388C13.0405 60.5002 13.0395 60.4618 13.0375 60.4236C13.0303 60.2834 13.0971 60.15 13.2185 60.0798L13.6361 59.8384L12.8543 58.4832L12.4383 58.723C12.3163 58.7934 12.1661 58.7864 12.0483 58.7094C11.9833 58.667 11.9161 58.628 11.8465 58.5926C11.7215 58.5288 11.6411 58.4024 11.6411 58.2622V57.7832H10.0761V58.2622C10.0761 58.4026 9.99566 58.5288 9.87066 58.5926C9.80126 58.628 9.73385 58.667 9.66905 58.7094C9.55105 58.7864 9.40105 58.7934 9.27885 58.723L8.86305 58.4832L8.08105 59.8384L8.49706 60.0784C8.61886 60.1486 8.68565 60.2822 8.67845 60.4226C8.67645 60.461 8.67565 60.4996 8.67565 60.5386C8.67565 60.5772 8.67665 60.6156 8.67845 60.6538C8.68565 60.7946 8.61845 60.9286 8.49645 60.9992L8.08125 61.239ZM9.57705 60.5388C9.57705 59.831 10.1503 59.2578 10.8581 59.2578C11.5659 59.2578 12.1403 59.831 12.1403 60.5388C12.1403 61.2466 11.5659 61.821 10.8581 61.821C10.1503 61.821 9.57705 61.2464 9.57705 60.5388Z" fill="#EBEBEB"/>
<path d="M73.5092 58.6612H71.9084V80.4198H66.538V58.6612H64.9404L69.2248 53.957L73.5092 58.6612Z" fill="#EBEBEB"/>
<path d="M83.3498 51.0304H81.749V80.4192H76.3789V51.0304H74.7812L79.0654 46.3262L83.3498 51.0304Z" fill="#EBEBEB"/>
<path d="M64.4358 67.0521H62.835V80.4189H57.4648V67.0521H55.8672L60.1516 62.3477L64.4358 67.0521Z" fill="#EBEBEB"/>
<path d="M50.0002 92.8661C72.6428 92.8661 90.9984 91.5297 90.9984 89.8813C90.9984 88.2328 72.6428 86.8965 50.0002 86.8965C27.3575 86.8965 9.00195 88.2328 9.00195 89.8813C9.00195 91.5297 27.3575 92.8661 50.0002 92.8661Z" fill="#EBEBEB"/>
<path d="M8.05762 80.4338L18.5432 80.3852L29.0288 80.3676L50 80.334L70.9712 80.3674L81.4568 80.385L91.9422 80.4338L81.4568 80.4828L70.9712 80.5004L50 80.5336L29.0288 80.5002L18.5432 80.4824L8.05762 80.4338Z" fill="#263238"/>
<path d="M47.194 13.1133H17.458C15.7976 13.1133 14.4502 14.4837 14.4502 16.1775V77.3925C14.4502 79.0829 15.7976 80.4567 17.458 80.4567H47.1938C48.856 80.4567 50.2052 79.0829 50.2052 77.3925V16.1775C50.2054 14.4835 48.8562 13.1133 47.194 13.1133ZM48.325 75.4997C48.325 77.1109 47.1184 78.4143 45.6302 78.4143H19.027C17.5354 78.4143 16.3286 77.1109 16.3286 75.4997V18.4975C16.3286 15.2153 17.5352 15.0551 19.027 15.0551H24.355C24.6646 15.0551 24.9178 15.4069 24.9178 15.8431V16.0313C24.9178 17.0533 25.4772 17.0569 26.165 17.0569H38.4886C39.1816 17.0569 39.7358 17.0533 39.7358 16.0313V15.8431C39.7358 15.4069 39.9856 15.0551 40.3004 15.0551H45.6302C47.1184 15.0551 48.325 15.4913 48.325 18.4975V75.4997Z" fill="#263238"/>
<path d="M34.0077 15.7804H30.6461C30.5313 15.7804 30.4385 15.6874 30.4385 15.5728C30.4385 15.458 30.5315 15.3652 30.6461 15.3652H34.0075C34.1223 15.3652 34.2151 15.4582 34.2151 15.5728C34.2153 15.6874 34.1223 15.7804 34.0077 15.7804Z" fill="white"/>
<path d="M48.3255 18.4971V75.4993C48.3255 77.1105 47.1189 78.4139 45.6307 78.4139H19.0275C17.5359 78.4139 16.3291 77.1105 16.3291 75.4993V18.4971C16.3291 15.2149 17.5357 15.0547 19.0275 15.0547H24.3555C24.6651 15.0547 24.9183 15.4065 24.9183 15.8427V16.0309C24.9183 17.0529 25.4777 17.0565 26.1655 17.0565H38.4891C39.1821 17.0565 39.7363 17.0529 39.7363 16.0309V15.8427C39.7363 15.4065 39.9861 15.0547 40.3009 15.0547H45.6307C47.1187 15.0547 48.3255 15.4911 48.3255 18.4971Z" fill="white"/>
<path d="M23.4356 16.335C23.4184 16.352 23.4012 16.369 23.3842 16.3862C23.3744 16.396 23.3648 16.4058 23.355 16.4156C23.2166 16.2814 23.052 16.2098 22.8592 16.2098C22.6664 16.2098 22.5018 16.2812 22.3624 16.4162C22.3532 16.4066 22.344 16.3968 22.3346 16.3872C22.3178 16.37 22.3008 16.353 22.2838 16.336C22.2834 16.3356 22.2828 16.3354 22.2822 16.3352C22.2822 16.3348 22.2822 16.3344 22.2822 16.334C22.2834 16.333 22.2848 16.332 22.286 16.331C22.3076 16.3118 22.3288 16.2918 22.3512 16.2734C22.3974 16.2352 22.448 16.2038 22.5018 16.1774C22.5654 16.1462 22.6318 16.123 22.7014 16.1104C22.7344 16.1044 22.7678 16.1012 22.801 16.0972C22.8124 16.0958 22.886 16.0956 22.8884 16.0958C22.911 16.0974 22.9338 16.0984 22.9564 16.101C23.0192 16.1078 23.0802 16.123 23.1394 16.1446C23.1824 16.1604 23.2236 16.1798 23.2632 16.2026C23.305 16.2266 23.3446 16.254 23.3814 16.2854C23.4 16.3012 23.4176 16.318 23.4358 16.3344C23.4358 16.3344 23.4356 16.3346 23.4356 16.335Z" fill="#C7C7C7"/>
<path d="M22.5257 16.5771C22.4985 16.5501 22.4717 16.5237 22.4443 16.4965C22.5369 16.4055 22.6465 16.3477 22.7753 16.3303C22.9677 16.3043 23.1331 16.3627 23.2731 16.4953C23.2455 16.5229 23.2187 16.5495 23.1915 16.5767C23.0995 16.4873 22.9885 16.4391 22.8587 16.4391C22.7291 16.4391 22.6183 16.4873 22.5257 16.5771Z" fill="#C7C7C7"/>
<path d="M23.1104 16.6576C23.0836 16.6844 23.0568 16.7112 23.0294 16.7384C22.9826 16.6928 22.9256 16.6676 22.8588 16.6678C22.7922 16.668 22.7354 16.693 22.6882 16.739C22.6612 16.7118 22.6342 16.685 22.6074 16.6582C22.7362 16.5232 22.9678 16.5124 23.1104 16.6576Z" fill="#C7C7C7"/>
<path d="M22.9314 16.8132C22.9314 16.8536 22.8986 16.8864 22.8582 16.8864C22.8178 16.8864 22.7852 16.8536 22.7852 16.8132C22.7852 16.7728 22.818 16.7402 22.8582 16.7402C22.8986 16.7402 22.9314 16.7728 22.9314 16.8132Z" fill="#C7C7C7"/>
<path d="M18.415 16.4913C18.415 16.3741 18.51 16.2793 18.627 16.2793C18.7442 16.2793 18.839 16.3743 18.839 16.4913C18.839 16.6083 18.744 16.7033 18.627 16.7033C18.5098 16.7033 18.415 16.6083 18.415 16.4913Z" fill="#C7C7C7"/>
<path d="M19.083 16.4913C19.083 16.3741 19.178 16.2793 19.295 16.2793C19.412 16.2793 19.507 16.3743 19.507 16.4913C19.507 16.6083 19.412 16.7033 19.295 16.7033C19.178 16.7033 19.083 16.6083 19.083 16.4913Z" fill="#C7C7C7"/>
<path d="M19.963 16.7033C20.0801 16.7033 20.175 16.6084 20.175 16.4913C20.175 16.3742 20.0801 16.2793 19.963 16.2793C19.8459 16.2793 19.751 16.3742 19.751 16.4913C19.751 16.6084 19.8459 16.7033 19.963 16.7033Z" fill="#C7C7C7"/>
<path d="M20.4189 16.4913C20.4189 16.3741 20.5139 16.2793 20.6309 16.2793C20.7479 16.2793 20.8429 16.3743 20.8429 16.4913C20.8429 16.6083 20.7479 16.7033 20.6309 16.7033C20.5139 16.7033 20.4189 16.6083 20.4189 16.4913Z" fill="#C7C7C7"/>
<path d="M21.0869 16.4913C21.0869 16.3741 21.1819 16.2793 21.2989 16.2793C21.4159 16.2793 21.5109 16.3743 21.5109 16.4913C21.5109 16.6083 21.4159 16.7033 21.2989 16.7033C21.1819 16.7033 21.0869 16.6083 21.0869 16.4913Z" fill="#C7C7C7"/>
<path d="M45.9259 16.9545H44.1973V16.1523H45.9259V16.9545ZM44.2877 16.8641H45.8355V16.2429H44.2877V16.8641Z" fill="#C7C7C7"/>
<path d="M45.4546 16.2891H44.3418V16.8171H45.4546V16.2891Z" fill="#C7C7C7"/>
<path d="M46.0794 16.3398H45.9258V16.7676H46.0794V16.3398Z" fill="#C7C7C7"/>
<path d="M32.4059 36.7064C32.8081 36.7064 33.1341 36.3804 33.1341 35.9782C33.1341 35.576 32.8081 35.25 32.4059 35.25C32.0038 35.25 31.6777 35.576 31.6777 35.9782C31.6777 36.3804 32.0038 36.7064 32.4059 36.7064Z" fill="#E74C3C"/>
<path opacity="0.9" d="M28.1846 36.9211C28.1846 37.3035 28.4946 37.6135 28.8772 37.6135C29.2596 37.6135 29.5696 37.3035 29.5696 36.9211C29.5696 36.5387 29.2596 36.2285 28.8772 36.2285C28.4946 36.2285 28.1846 36.5387 28.1846 36.9211Z" fill="#E74C3C"/>
<path opacity="0.8" d="M26.0137 39.3248C26.0137 39.6876 26.3077 39.9816 26.6705 39.9816C27.0333 39.9816 27.3273 39.6876 27.3273 39.3248C27.3273 38.9622 27.0333 38.668 26.6705 38.668C26.3077 38.6682 26.0137 38.9622 26.0137 39.3248Z" fill="#E74C3C"/>
<path opacity="0.7" d="M25.9159 43.1775C26.2589 43.1775 26.5369 42.8995 26.5369 42.5565C26.5369 42.2136 26.2589 41.9355 25.9159 41.9355C25.573 41.9355 25.2949 42.2136 25.2949 42.5565C25.2949 42.8995 25.573 43.1775 25.9159 43.1775Z" fill="#E74C3C"/>
<path opacity="0.6" d="M26.0293 45.6047C26.0293 45.9279 26.2913 46.1899 26.6145 46.1899C26.9377 46.1899 27.1997 45.9279 27.1997 45.6047C27.1997 45.2815 26.9377 45.0195 26.6145 45.0195C26.2913 45.0195 26.0293 45.2815 26.0293 45.6047Z" fill="#E74C3C"/>
<path opacity="0.5" d="M28.2021 48.0963C28.2021 48.3997 28.4481 48.6457 28.7515 48.6457C29.0549 48.6457 29.3009 48.3997 29.3009 48.0963C29.3009 47.7929 29.0549 47.5469 28.7515 47.5469C28.4481 47.5469 28.2021 47.7929 28.2021 48.0963Z" fill="#E74C3C"/>
<path opacity="0.4" d="M31.915 49.1406C31.915 49.4242 32.145 49.6542 32.4286 49.6542C32.7122 49.6542 32.9422 49.4242 32.9422 49.1406C32.9422 48.857 32.7122 48.627 32.4286 48.627C32.145 48.627 31.915 48.8568 31.915 49.1406Z" fill="#E74C3C"/>
<path opacity="0.3" d="M35.6758 48.0169C35.6758 48.2807 35.8898 48.4947 36.1536 48.4947C36.4174 48.4947 36.6314 48.2807 36.6314 48.0169C36.6314 47.7529 36.4174 47.5391 36.1536 47.5391C35.8898 47.5391 35.6758 47.7531 35.6758 48.0169Z" fill="#E74C3C"/>
<path opacity="0.2" d="M37.833 45.401C37.833 45.6452 38.031 45.843 38.275 45.843C38.5192 45.843 38.717 45.645 38.717 45.401C38.717 45.1568 38.519 44.959 38.275 44.959C38.031 44.959 37.833 45.157 37.833 45.401Z" fill="#E74C3C"/>
<path opacity="0.1" d="M38.5479 42.4902C38.5479 42.7146 38.7299 42.8964 38.9541 42.8964C39.1785 42.8964 39.3603 42.7144 39.3603 42.4902C39.3603 42.2658 39.1783 42.084 38.9541 42.084C38.7299 42.0838 38.5479 42.2658 38.5479 42.4902Z" fill="#E74C3C"/>
<path opacity="0.05" d="M37.5322 38.7436C37.5322 38.9482 37.698 39.114 37.9028 39.114C38.1074 39.114 38.2732 38.9482 38.2732 38.7436C38.2732 38.539 38.1074 38.373 37.9028 38.373C37.6982 38.373 37.5322 38.539 37.5322 38.7436Z" fill="#E74C3C"/>
<path opacity="0.01" d="M35.3817 36.9704C35.5666 36.9704 35.7165 36.8205 35.7165 36.6356C35.7165 36.4507 35.5666 36.3008 35.3817 36.3008C35.1968 36.3008 35.0469 36.4507 35.0469 36.6356C35.0469 36.8205 35.1968 36.9704 35.3817 36.9704Z" fill="#E74C3C"/>
<path d="M34.9396 42.2489H33.9636V45.5209H30.6896V42.2489H29.7158L32.3276 39.3809L34.9396 42.2489Z" fill="#E74C3C"/>
<path d="M41.73 53.168H22.9248V54.8074H41.73V53.168Z" stroke="#E74C3C" stroke-width="0.5" stroke-miterlimit="10"/>
<path d="M23.843 53.4805H23.2354V54.4969H23.843V53.4805Z" fill="#E74C3C"/>
<path d="M24.6818 53.4805H24.0742V54.4969H24.6818V53.4805Z" fill="#E74C3C"/>
<path d="M25.5207 53.4805H24.9131V54.4969H25.5207V53.4805Z" fill="#E74C3C"/>
<path d="M26.3596 53.4805H25.752V54.4969H26.3596V53.4805Z" fill="#E74C3C"/>
<path d="M27.1984 53.4805H26.5908V54.4969H27.1984V53.4805Z" fill="#E74C3C"/>
<path d="M28.0373 53.4805H27.4297V54.4969H28.0373V53.4805Z" fill="#E74C3C"/>
<path d="M28.8752 53.4805H28.2676V54.4969H28.8752V53.4805Z" fill="#E74C3C"/>
<path d="M29.714 53.4805H29.1064V54.4969H29.714V53.4805Z" fill="#E74C3C"/>
<path d="M30.5529 53.4805H29.9453V54.4969H30.5529V53.4805Z" fill="#E74C3C"/>
<path d="M31.3918 53.4805H30.7842V54.4969H31.3918V53.4805Z" fill="#E74C3C"/>
<path d="M32.2306 53.4805H31.623V54.4969H32.2306V53.4805Z" fill="#E74C3C"/>
<path d="M33.0695 53.4805H32.4619V54.4969H33.0695V53.4805Z" fill="#E74C3C"/>
<path d="M59.0281 74.5469C59.0281 74.5469 58.4171 83.0227 58.4167 83.0289C58.4083 84.6889 58.4305 86.1443 58.5123 86.8961C58.5121 86.9001 58.5119 86.9041 58.5139 86.9083C58.5445 87.1921 58.5833 87.3731 58.6337 87.4217C58.6377 87.4259 58.6395 87.4299 58.6435 87.4321C59.1359 87.7693 72.3995 88.2233 72.8673 88.0835C73.3371 87.9457 72.9733 86.5991 72.4727 86.1707C71.9681 85.7423 66.9695 83.2973 66.9695 83.2973L67.4983 74.8251L59.0281 74.5469Z" fill="#F7A9A0"/>
<path d="M58.4165 81.2461C58.4165 81.2461 58.4169 83.0221 58.4167 83.0281C58.4083 84.6881 58.4305 86.1435 58.5123 86.8953C58.5121 86.8993 58.5119 86.9033 58.5139 86.9075C58.5607 87.1879 58.6035 87.3733 58.6337 87.4209C58.6377 87.4251 58.6395 87.4291 58.6435 87.4313C59.1359 87.7685 72.3995 88.2225 72.8673 88.0827C73.3371 87.9449 72.9733 86.5983 72.4727 86.1699C71.9681 85.7415 66.9695 83.2965 66.9695 83.2965L66.9939 81.4879L58.4165 81.2461Z" fill="white"/>
<path d="M72.8675 88.0833C72.3989 88.2237 59.1365 87.7697 58.6429 87.4313C58.4531 87.3061 58.4065 85.3697 58.4175 83.0283C58.4179 83.0039 58.4181 82.9795 58.4185 82.9551L66.9781 83.1523L66.9699 83.2975C66.9699 83.2975 71.9687 85.7419 72.4725 86.1711C72.9723 86.5983 73.3361 87.9449 72.8675 88.0833Z" fill="#E74C3C"/>
<path d="M72.7346 87.5646C70.5008 87.4332 61.4788 87.114 59.2608 87.1538C59.2428 87.1542 59.2424 87.1664 59.2604 87.1678C61.4716 87.3464 70.4958 87.5926 72.7336 87.6012C72.7806 87.6014 72.7818 87.5674 72.7346 87.5646Z" fill="#263238"/>
<path d="M67.6875 83.3479C66.8133 83.1537 65.7327 83.2519 65.0391 83.8557C65.0123 83.8791 65.0459 83.9169 65.0747 83.9089C65.9521 83.6651 66.7685 83.5171 67.6803 83.4589C67.7445 83.4547 67.7501 83.3617 67.6875 83.3479Z" fill="#263238"/>
<path d="M68.3096 83.7523C67.4354 83.5579 66.3549 83.6561 65.6613 84.2599C65.6343 84.2833 65.6681 84.3211 65.6969 84.3131C66.5743 84.0691 67.3907 83.9213 68.3025 83.8631C68.3665 83.8593 68.3722 83.7661 68.3096 83.7523Z" fill="#263238"/>
<path d="M68.9317 84.1565C68.0575 83.9623 66.9769 84.0605 66.2833 84.6643C66.2563 84.6877 66.2901 84.7255 66.3189 84.7175C67.1963 84.4737 68.0127 84.3257 68.9245 84.2675C68.9887 84.2635 68.9943 84.1703 68.9317 84.1565Z" fill="#263238"/>
<path d="M57.9062 83.3941L67.1902 83.2087C67.1902 83.2087 68.3224 66.5023 68.1114 60.9325C67.8822 54.8825 65.2834 36.8809 65.2834 36.8809H57.4424C57.4424 36.8809 59.4466 54.9527 59.4892 61.0053C59.5288 66.6163 57.9062 83.3941 57.9062 83.3941Z" fill="#37474F"/>
<path d="M63.7428 36.8809L59.0328 53.1761C58.4752 45.4643 57.4424 36.8809 57.4424 36.8809H63.7428Z" fill="#263238"/>
<path d="M58.9307 37.7676L59.4287 43.1412L59.8897 48.518C60.1851 52.1038 60.4653 55.6902 60.6787 59.284C60.7309 60.182 60.7627 61.0844 60.7501 61.9872C60.7307 62.8882 60.6947 63.7878 60.6491 64.6866C60.5567 66.4842 60.4407 68.2796 60.3025 70.0736C60.1665 71.8676 60.0217 73.6608 59.8671 75.453L59.3661 80.8264L59.7675 75.445C59.9015 73.6512 60.0289 71.8572 60.1457 70.0626C60.2591 68.2678 60.3807 66.4734 60.4633 64.6776C60.5057 63.7798 60.5387 62.8818 60.5549 61.9844C60.5647 61.0884 60.5295 60.1924 60.4751 59.2948C60.2791 55.705 59.9957 52.1178 59.7339 48.5302L58.9307 37.7676Z" fill="#263238"/>
<path d="M66.8014 81.6591C65.352 81.6465 65.768 81.6297 64.3184 81.6333C63.609 81.6351 58.9476 81.6509 58.2862 81.7687C58.2716 81.7713 58.2718 81.7959 58.2866 81.7981C58.9506 81.8999 63.611 81.8027 64.3202 81.7873C65.7694 81.7557 65.353 81.7491 66.8018 81.7013C66.829 81.7005 66.8286 81.6593 66.8014 81.6591Z" fill="#263238"/>
<path d="M43.9367 70C43.9367 70 39.4581 77.2792 39.4553 77.2846C38.7279 78.7766 38.1167 80.0978 37.8645 80.8108C37.8625 80.8144 37.8607 80.8178 37.8605 80.8224C37.7649 81.0914 37.7215 81.2714 37.7459 81.337C37.7475 81.3424 37.7475 81.347 37.7501 81.3506C38.0475 81.868 49.8023 88.0288 50.2845 88.1056C50.7675 88.1852 51.0237 86.814 50.7583 86.211C50.4893 85.606 47.0455 81.2354 47.0455 81.2354L51.4483 73.9238L43.9367 70Z" fill="#F7A9A0"/>
<path d="M37.7466 81.3389C37.7466 81.3431 37.7466 81.3475 37.7488 81.3519C38.0472 81.8693 49.8016 88.0299 50.2846 88.1071C50.7676 88.1865 51.023 86.8149 50.759 86.2117C50.4886 85.6063 47.0454 81.2361 47.0454 81.2361L47.831 79.9309C45.9098 78.9071 42.4174 77.1083 40.2494 75.9941C39.7772 76.7605 39.4552 77.2843 39.4552 77.2863C38.7274 78.7781 38.1158 80.0983 37.8646 80.8109C37.8624 80.8151 37.8604 80.8195 37.8604 80.8237C37.7638 81.0919 37.7208 81.2723 37.7466 81.3389Z" fill="white"/>
<path d="M50.2847 88.1053C49.8017 88.0285 38.0479 81.8685 37.7497 81.3495C37.6329 81.1543 38.4307 79.3894 39.4559 77.2844C39.4669 77.2626 39.4777 77.2406 39.4887 77.2188L47.1161 81.1084L47.0457 81.2355C47.0457 81.2355 50.4901 85.6058 50.7581 86.211C51.0231 86.813 50.7671 88.1839 50.2847 88.1053Z" fill="#E74C3C"/>
<path d="M50.3908 87.5788C48.435 86.4918 40.4438 82.2918 38.4278 81.3658C38.4114 81.3582 38.4056 81.3692 38.4214 81.3784C40.3364 82.4982 48.3614 86.6332 50.374 87.6114C50.4164 87.6318 50.4322 87.6018 50.3908 87.5788Z" fill="#263238"/>
<path d="M47.6707 81.5921C46.9673 81.0379 45.9509 80.6579 45.0641 80.9011C45.0297 80.9105 45.0437 80.9591 45.0731 80.9645C45.9695 81.1251 46.7693 81.3461 47.6161 81.6889C47.6757 81.7131 47.7211 81.6317 47.6707 81.5921Z" fill="#263238"/>
<path d="M48.0565 82.2269C47.3531 81.6727 46.3367 81.2927 45.4499 81.5359C45.4155 81.5453 45.4295 81.5941 45.4589 81.5993C46.3553 81.7601 47.1551 81.9809 48.0019 82.3237C48.0615 82.3479 48.1069 82.2665 48.0565 82.2269Z" fill="#263238"/>
<path d="M48.4413 82.8597C47.7379 82.3055 46.7215 81.9255 45.8347 82.1687C45.8003 82.1781 45.8141 82.2267 45.8437 82.2321C46.7401 82.3929 47.5399 82.6137 48.3867 82.9567C48.4461 82.9807 48.4917 82.8993 48.4413 82.8597Z" fill="#263238"/>
<path d="M64.4814 36.873C64.4814 36.873 64.4814 36.875 64.4794 36.881C64.4452 37.0422 63.8968 39.586 63.3284 41.771C62.9152 43.3674 62.4898 44.7704 62.246 44.9154C61.9698 45.0786 60.6234 45.6752 60.172 45.8628C60.172 45.8628 57.1438 60.9792 55.5452 65.6668C54.07 69.9924 47.9658 81.5538 47.9658 81.5538L39.1094 77.0791C39.1094 77.0791 46.0258 65.3456 46.753 63.2398C47.8802 59.9762 52.1042 44.0404 52.1042 44.0404C52.1042 44.0404 52.072 39.0514 53.7522 36.873H64.4814Z" fill="#37474F"/>
<path d="M47.8356 79.8269C46.5702 79.1199 46.9432 79.3049 45.67 78.6121C45.0468 78.2731 40.9502 76.0489 40.3136 75.8347C40.2996 75.8299 40.288 75.8517 40.2998 75.8607C40.8336 76.2687 44.9682 78.4211 45.5978 78.7481C46.8842 79.4163 46.5222 79.2105 47.816 79.8641C47.84 79.8765 47.8592 79.8401 47.8356 79.8269Z" fill="#263238"/>
<path d="M54.3769 42.6528C54.6193 42.5906 54.8787 42.5708 55.1261 42.5318C55.3259 42.5002 55.5249 42.465 55.7225 42.4214C56.0943 42.3394 56.4707 42.2152 56.7749 41.9784C57.1175 41.7116 57.2917 41.307 57.4573 40.9184C57.5557 40.6874 57.6571 40.4582 57.7599 40.2292C57.8099 40.1182 57.8601 40.0076 57.9115 39.8972C57.9717 39.7682 58.0543 39.6336 58.0985 39.4988C58.1049 39.4792 58.1365 39.4896 58.1287 39.5078C58.0897 39.5978 58.0731 39.7002 58.0445 39.7946C58.0107 39.9058 57.9791 40.0176 57.9447 40.1288C57.8831 40.327 57.8233 40.526 57.7577 40.7228C57.6403 41.0766 57.5357 41.4476 57.3359 41.7658C56.9703 42.348 56.3165 42.5824 55.6629 42.665C55.4755 42.6886 55.2867 42.702 55.0981 42.7128C54.8649 42.726 54.6167 42.747 54.3841 42.7182C54.3487 42.7136 54.3387 42.6628 54.3769 42.6528Z" fill="#263238"/>
<path d="M62.9627 44.5587C62.0017 44.8895 61.0741 45.3591 60.1871 45.8513C60.1523 45.8707 60.1753 45.9245 60.2129 45.9085C61.1479 45.5069 62.1013 45.1227 63.0131 44.6703C63.0847 44.6347 63.0365 44.5333 62.9627 44.5587Z" fill="#263238"/>
<path d="M63.2441 38.1546C63.2415 38.1222 63.1849 38.1152 63.1851 38.15C63.1927 39.26 63.1219 40.2366 63.0283 41.274C62.9849 41.7556 62.5975 44.4174 61.7623 44.2232C61.6225 44.1906 61.5511 44.053 61.5291 43.8422C61.5027 43.5888 61.5981 43.2778 61.6399 43.0258C61.7327 42.4686 61.8071 41.9096 61.8549 41.3468C61.9443 40.2962 61.9487 39.2454 61.8209 38.198C61.8167 38.1636 61.7671 38.1662 61.7671 38.201C61.7683 39.6554 61.7303 41.1072 61.5129 42.5476C61.4083 43.24 61.0597 44.2822 61.7837 44.3888C62.5213 44.4974 62.9983 42.7514 63.0883 42.2738C63.3393 40.9416 63.3493 39.5028 63.2441 38.1546Z" fill="#263238"/>
<path d="M61.7845 44.2947C61.7091 44.4733 61.6483 44.6595 61.5967 44.8463C61.5567 44.9915 61.5021 45.1483 61.5187 45.2997C61.5219 45.3291 61.5607 45.332 61.5765 45.3122C61.6745 45.188 61.7159 45.0182 61.7705 44.8708C61.8339 44.7002 61.9013 44.5307 61.9599 44.3583C61.9989 44.2441 61.8311 44.1845 61.7845 44.2947Z" fill="#263238"/>
<path d="M41.5002 75.6097C42.7608 73.2365 44.0602 70.8849 45.3648 68.5353C46.0078 67.3773 46.6788 66.2321 47.2926 65.0583C47.899 63.8985 48.3102 62.6801 48.694 61.4327C49.4738 58.8979 50.2126 56.3507 50.9096 53.7919C51.6066 51.2333 52.258 48.6621 52.8736 46.0827C53.0276 45.4377 53.196 44.7927 53.3204 44.1411C53.4496 43.4641 53.4108 42.8315 53.3174 42.1533C53.232 41.5333 53.208 40.9231 53.303 40.3023C53.397 39.6887 53.5504 39.0855 53.7358 38.4937C53.8336 38.1819 53.9396 37.8727 54.0466 37.5641C54.0586 37.5297 54.112 37.5453 54.1012 37.5807C53.7194 38.8301 53.329 40.0933 53.411 41.4163C53.4504 42.0525 53.6188 42.6769 53.6078 43.3171C53.597 43.9539 53.4294 44.5785 53.2864 45.1951C52.6846 47.7909 52.0348 50.3749 51.3462 52.9491C50.6574 55.5229 49.9268 58.0857 49.1538 60.6355C48.778 61.8753 48.4266 63.1349 47.8932 64.3185C47.3588 65.5043 46.6822 66.6245 46.0458 67.7569C44.7302 70.0971 43.4034 72.4315 42.0472 74.7485C41.8754 75.0421 41.7018 75.3347 41.5288 75.6275C41.5178 75.6461 41.4902 75.6287 41.5002 75.6097Z" fill="#263238"/>
<path d="M72.779 16.9662L71.3442 22.4736C71.284 22.635 71.3642 22.7672 71.5234 22.7686L74.371 22.7914C74.53 22.7926 74.7082 22.6624 74.7684 22.501L76.203 16.9936C76.2634 16.8318 76.183 16.7 76.024 16.6986L73.1764 16.6758C73.0174 16.6746 72.8394 16.8044 72.779 16.9662Z" fill="#A6A6A6"/>
<path d="M73.1167 16.9662L71.6821 22.4736C71.6219 22.635 71.7021 22.7672 71.8613 22.7686L74.7089 22.7914C74.8679 22.7926 75.0461 22.6624 75.1063 22.501L76.5409 16.9936C76.6013 16.8318 76.5209 16.6998 76.3619 16.6986L73.5143 16.6758C73.3551 16.6746 73.1771 16.8044 73.1167 16.9662Z" fill="#DBDBDB"/>
<path d="M73.896 17.2239C73.892 17.3575 73.7804 17.4625 73.6468 17.4585C73.5132 17.4545 73.4082 17.3429 73.4122 17.2093C73.4162 17.0757 73.5278 16.9707 73.6614 16.9747C73.795 16.9789 73.9 17.0903 73.896 17.2239Z" fill="#455A64"/>
<path d="M63.9392 25.175C65.4928 28.6336 69.5264 33.4948 71.0226 33.5396C71.7346 33.561 73.0034 33.7526 73.9516 32.95C76.021 31.1986 77.783 27.8124 78.1636 25.863C78.299 25.1698 74.9414 23.6062 74.4322 24.1642C73.2402 25.4706 71.8362 28.0496 71.6296 28.0304C70.8644 27.9592 67.5722 25.3828 65.4622 23.7916C62.8148 21.7948 63.32 23.7966 63.9392 25.175Z" fill="#F7A9A0"/>
<path d="M78.3073 22.2707C77.9731 20.8529 77.6697 20.5403 78.0229 19.1939C78.2547 18.3105 77.7901 17.7833 77.1493 18.4845C76.1011 19.6315 76.1481 21.5513 76.3561 22.2121L78.3073 22.2707Z" fill="#F7A9A0"/>
<path d="M77.9874 26.4658C77.9874 26.4658 78.6508 24.509 78.4442 22.9628C78.3012 21.8936 77.731 19.6022 74.7656 18.3478C74.0622 18.0504 72.849 18.1252 73.8214 19.0284C74.512 19.6698 75.1438 19.868 75.4776 20.3144C75.4776 20.3144 73.9458 20.5928 73.6752 21.309C73.5544 21.629 73.2448 22.5106 73.1016 23.2312C73.1016 23.2312 73.2502 23.3046 73.4516 23.3708C73.4516 23.3708 73.262 24.0638 73.7516 25.04L77.9874 26.4658Z" fill="#F7A9A0"/>
<path d="M78.1452 21.9634C77.7202 21.5904 76.8064 20.8152 75.8382 20.441C74.7628 20.0254 72.5792 19.5146 72.2806 20.3116C72.0616 20.896 72.8783 21.1644 72.8783 21.1644C72.8783 21.1644 71.9313 21.1436 71.8489 21.7146C71.7739 22.2352 72.4179 22.4048 72.4179 22.4048C72.4179 22.4048 71.8413 22.491 71.8655 23.0062C71.8947 23.626 73.0985 23.3438 73.6705 23.946C73.7991 24.0812 78.1452 21.9634 78.1452 21.9634Z" fill="#F7A9A0"/>
<path d="M75.5884 21.6508C75.1312 21.3656 73.9268 20.9844 72.8964 21.1492C72.873 21.153 72.8634 21.1726 72.8854 21.1736C74.0586 21.233 75.135 21.5142 75.5846 21.6608C75.5906 21.6628 75.5936 21.654 75.5884 21.6508Z" fill="#263238"/>
<path d="M75.138 22.725C74.7182 22.5194 73.4592 22.182 72.4208 22.3848C72.3976 22.3894 72.3892 22.4098 72.4114 22.41C73.6396 22.4216 74.6772 22.6158 75.1348 22.7354C75.1408 22.737 75.1434 22.7276 75.138 22.725Z" fill="#263238"/>
<path d="M69.0032 26.0937L66.4476 30.3907C66.4476 30.3907 63.5658 25.7083 63.107 24.0921C62.5906 22.2731 63.6336 22.4069 65.2106 23.2689C66.7878 24.1309 69.0032 26.0937 69.0032 26.0937Z" fill="#E74C3C"/>
<path opacity="0.1" d="M69.0032 26.0937L66.4476 30.3907C66.4476 30.3907 63.5658 25.7083 63.107 24.0921C62.5906 22.2731 63.6336 22.4069 65.2106 23.2689C66.7878 24.1309 69.0032 26.0937 69.0032 26.0937Z" fill="black"/>
<path d="M68.1359 25.7819C67.7363 26.2849 66.7509 27.9627 66.5851 28.2383C66.4977 28.3837 66.1747 28.9787 66.0865 29.1231C66.0751 29.1415 66.1059 29.1555 66.1171 29.1373C66.2855 28.8621 66.4829 28.6035 66.6539 28.3289C66.8289 28.0479 67.8891 26.3839 68.1569 25.7953C68.1631 25.7825 68.1451 25.7705 68.1359 25.7819Z" fill="#263238"/>
<path d="M52.5314 38.6983C52.5316 38.6971 65.992 40.5673 65.9918 40.5683C65.9546 40.8321 66.7044 29.9209 64.0928 23.0783C63.9148 22.6119 61.864 21.8521 60.812 22.5825C56.202 25.7827 52.5074 38.8695 52.5314 38.6983Z" fill="#E74C3C"/>
<path opacity="0.1" d="M60.5583 22.7695L64.1743 23.3035C64.1843 23.3235 64.1923 23.3455 64.1983 23.3655L60.4943 22.8195C60.5143 22.8015 60.5363 22.7855 60.5583 22.7695ZM59.4283 23.8535L64.6043 24.6135C64.6003 24.5935 64.5943 24.5735 64.5863 24.5535L59.4743 23.7995C59.4583 23.8175 59.4423 23.8355 59.4283 23.8535ZM58.5843 24.9175L64.9323 25.8515C64.9283 25.8315 64.9243 25.8115 64.9183 25.7915L58.6223 24.8635C58.6083 24.8815 58.5963 24.8995 58.5843 24.9175ZM57.8603 25.9995L65.2003 27.0815C65.1963 27.0595 65.1923 27.0395 65.1883 27.0195L57.8923 25.9455C57.8823 25.9635 57.8703 25.9815 57.8603 25.9995ZM57.2143 27.0935L65.4183 28.3015C65.4163 28.2815 65.4123 28.2615 65.4083 28.2415L57.2443 27.0395C57.2343 27.0575 57.2243 27.0755 57.2143 27.0935ZM56.6243 28.1975L65.5963 29.5175C65.5943 29.4975 65.5903 29.4775 65.5883 29.4575L56.6523 28.1415C56.6423 28.1595 56.6323 28.1795 56.6243 28.1975ZM56.0783 29.3055L65.7383 30.7275C65.7363 30.7075 65.7343 30.6875 65.7323 30.6675L56.1043 29.2495C56.0963 29.2675 56.0883 29.2855 56.0783 29.3055ZM55.5663 30.4195L65.8523 31.9335C65.8503 31.9135 65.8483 31.8935 65.8463 31.8735L55.5923 30.3635C55.5843 30.3835 55.5763 30.4015 55.5663 30.4195ZM55.0883 31.5375L65.9383 33.1355C65.9383 33.1155 65.9363 33.0955 65.9343 33.0755L55.1103 31.4815C55.1023 31.5015 55.0943 31.5195 55.0883 31.5375ZM54.6303 32.6575L66.0023 34.3315C66.0003 34.3115 66.0003 34.2935 65.9983 34.2735L54.6523 32.6035C54.6463 32.6215 54.6383 32.6395 54.6303 32.6575ZM54.1983 33.7835L66.0403 35.5275C66.0423 35.5075 66.0403 35.4895 66.0403 35.4695L54.2183 33.7295C54.2123 33.7475 54.2043 33.7655 54.1983 33.7835ZM53.7843 34.9115L66.0603 36.7195C66.0623 36.7015 66.0623 36.6815 66.0603 36.6615L53.8043 34.8575C53.7983 34.8755 53.7923 34.8935 53.7843 34.9115ZM53.3903 36.0435L66.0623 37.9075V37.8515L53.4083 35.9875C53.4023 36.0055 53.3963 36.0255 53.3903 36.0435ZM53.0123 37.1775L66.0423 39.0955C66.0423 39.0755 66.0423 39.0555 66.0443 39.0355L53.0303 37.1195C53.0243 37.1395 53.0183 37.1595 53.0123 37.1775ZM52.6543 38.3135L66.0023 40.2775C66.0023 40.2595 66.0043 40.2395 66.0043 40.2195L52.6703 38.2575C52.6643 38.2755 52.6583 38.2955 52.6543 38.3135Z" fill="black"/>
<path d="M63.6217 24.6571C62.9655 24.7645 61.6737 23.9089 61.2783 22.9541C61.2515 22.8885 61.4171 22.2475 61.5815 21.4589C61.6793 20.9801 61.7771 20.4445 61.8309 19.9495C61.8415 19.8477 64.8539 21.0415 64.8539 21.0415C64.8539 21.0415 64.4357 22.0461 64.3473 22.9099C64.3407 22.9821 64.3405 23.0501 64.3465 23.1153C64.3465 23.1247 64.3481 23.1363 64.3473 23.1495C64.3683 23.5423 64.3241 24.5425 63.6217 24.6571Z" fill="#F7A9A0"/>
<path d="M64.3474 23.1159C64.3466 23.1259 64.3478 23.1379 64.3468 23.1499C64.2484 23.1525 64.1424 23.1465 64.0272 23.1319C62.204 22.8929 61.9704 20.5527 61.9404 19.9629C62.4836 20.1019 64.8538 21.0419 64.8538 21.0419C64.8538 21.0419 64.4354 22.0475 64.3466 22.9111C64.3412 22.9831 64.3402 23.0511 64.3474 23.1159Z" fill="#263238"/>
<path d="M61.6735 16.0314C61.2519 17.1098 61.5901 20.3444 62.3209 21.116C63.3805 22.2344 65.2369 22.476 66.2181 21.1746C67.1691 19.913 66.6535 15.7054 65.8259 14.9916C64.6067 13.9406 62.2965 14.4384 61.6735 16.0314Z" fill="#F7A9A0"/>
<path d="M64.6387 18.1797C64.6361 18.1715 64.6227 18.1917 64.6239 18.2007C64.6525 18.4179 64.6487 18.6717 64.4587 18.7637C64.4527 18.7665 64.4545 18.7775 64.4617 18.7757C64.6991 18.7177 64.7007 18.3809 64.6387 18.1797Z" fill="#263238"/>
<path d="M64.4212 17.9708C64.068 17.9792 64.1106 18.685 64.4378 18.6774C64.76 18.6696 64.7174 17.9638 64.4212 17.9708Z" fill="#263238"/>
<path d="M65.9065 18.1389C65.9077 18.1305 65.9243 18.1481 65.9245 18.1571C65.9307 18.3761 65.9747 18.6259 66.1769 18.6867C66.1833 18.6885 66.1833 18.6997 66.1759 18.6991C65.9325 18.6797 65.8773 18.3475 65.9065 18.1389Z" fill="#263238"/>
<path d="M66.0883 17.8988C66.4383 17.8508 66.5085 18.5546 66.1841 18.599C65.8651 18.6426 65.7949 17.9388 66.0883 17.8988Z" fill="#263238"/>
<path d="M64.1229 17.6663C64.2175 17.6363 64.2999 17.5929 64.3905 17.5535C64.4927 17.5091 64.5787 17.4843 64.6415 17.3865C64.6751 17.3341 64.6545 17.2447 64.6067 17.2073C64.4951 17.1199 64.3565 17.1431 64.2313 17.1917C64.0955 17.2443 64.0043 17.3195 63.9323 17.4459C63.8621 17.5681 63.9981 17.7059 64.1229 17.6663Z" fill="#263238"/>
<path d="M66.3393 17.5271C66.2405 17.5171 66.1511 17.4913 66.0543 17.4713C65.9451 17.4487 65.8559 17.4419 65.7745 17.3589C65.7307 17.3143 65.7329 17.2229 65.7721 17.1763C65.8635 17.0681 66.0039 17.0627 66.1363 17.0845C66.2801 17.1081 66.3847 17.1633 66.4811 17.2723C66.5745 17.3777 66.4695 17.5403 66.3393 17.5271Z" fill="#263238"/>
<path d="M64.5582 20.2218C64.6136 20.2698 64.6702 20.3372 64.7498 20.339C64.8262 20.3408 64.9134 20.301 64.9816 20.2698C64.9884 20.2668 64.9958 20.2736 64.9918 20.2804C64.94 20.3678 64.8238 20.4276 64.7214 20.4158C64.6214 20.4044 64.5672 20.3218 64.5378 20.2328C64.5336 20.2204 64.55 20.2148 64.5582 20.2218Z" fill="#263238"/>
<path d="M64.7486 19.5533C64.8824 19.7357 65.0686 19.8285 65.2656 19.8545C65.3536 19.8667 65.445 19.8641 65.5342 19.8505C65.5518 19.8491 65.5694 19.8461 65.585 19.8415C65.6008 19.8387 65.6152 19.8359 65.6324 19.8313C65.6578 19.8261 65.6704 19.8041 65.6732 19.7797L65.673 19.7781C65.6724 19.7701 65.6718 19.7637 65.6696 19.7559C65.6696 19.7559 65.6696 19.7559 65.6696 19.7543L65.668 19.7351C65.6624 19.5665 65.6306 19.3115 65.6306 19.3115C65.694 19.3387 66.0162 19.4607 66.0058 19.3731C65.9184 18.6475 65.8212 17.8407 65.5808 17.1373C65.574 17.1137 65.5376 17.1215 65.5412 17.1453C65.5976 17.8459 65.777 18.5319 65.8448 19.2347C65.7424 19.2027 65.5748 19.1421 65.487 19.1493C65.4636 19.1577 65.5572 19.6411 65.5536 19.7171C65.5536 19.7171 65.5538 19.7203 65.5526 19.7251C65.2718 19.7783 65.0536 19.7057 64.7674 19.5323C64.7508 19.5209 64.7344 19.5367 64.7486 19.5533Z" fill="#263238"/>
<path d="M65.4299 19.7709C65.4299 19.7709 65.2927 19.9813 65.0927 20.0663C65.0191 20.0979 64.9385 20.1135 64.8523 20.0959C64.6749 20.0605 64.6609 19.9005 64.6847 19.7615C64.7039 19.6471 64.7503 19.5469 64.7503 19.5469C64.7503 19.5469 65.0195 19.7703 65.4299 19.7709Z" fill="#263238"/>
<path d="M65.0927 20.0665C65.0191 20.0981 64.9385 20.1137 64.8523 20.0961C64.6749 20.0607 64.6609 19.9007 64.6847 19.7617C64.8729 19.7697 65.0659 19.8855 65.0927 20.0665Z" fill="#FF99BA"/>
<path d="M66.3564 16.0361C66.2202 15.7657 66.0656 15.4943 65.8954 15.4493C65.7252 15.4043 65.6392 15.8177 65.2608 15.8657C64.7498 15.9305 64.4736 15.4739 63.7534 15.4663C62.7188 15.4553 62.3156 16.3427 62.377 17.8063C62.4318 19.1135 61.65 19.2829 61.65 19.2829C61.65 19.2829 61.0022 16.4315 61.758 15.4303C62.5138 14.4291 64.3508 13.8983 65.655 14.7343C66.13 15.0389 66.3564 16.0361 66.3564 16.0361Z" fill="#263238"/>
<path d="M62.2779 18.7289C62.2779 18.7289 61.6141 17.6551 61.1307 17.8861C60.6475 18.1171 61.1059 19.6451 61.6445 19.8811C62.1831 20.1171 62.4113 19.6227 62.4113 19.6227L62.2779 18.7289Z" fill="#F7A9A0"/>
<path d="M61.2728 18.3204C61.264 18.3192 61.2616 18.3314 61.269 18.335C61.646 18.513 61.8288 18.8824 61.9502 19.2614C61.8436 19.1122 61.6918 19.025 61.4928 19.1508C61.4824 19.1574 61.4912 19.1738 61.502 19.172C61.662 19.147 61.7744 19.181 61.874 19.3136C61.9446 19.4076 61.9898 19.5238 62.0382 19.6304C62.0544 19.6658 62.1176 19.651 62.1068 19.6104C62.106 19.6074 62.105 19.6044 62.1042 19.6014C62.1416 19.1098 61.7982 18.3998 61.2728 18.3204Z" fill="#263238"/>
<path d="M85.7573 22.1358H84.1563V35.5028H78.7861V22.1358H77.1885L81.4729 17.4316L85.7573 22.1358Z" fill="#455A64"/>
<path d="M76.6829 25.2687H75.0821V38.6357H69.7119V25.2687H68.1143L72.3987 20.5645L76.6829 25.2687Z" fill="#455A64"/>
<path d="M79.4143 27.084H65.0527V44.3732H79.4143V27.084Z" fill="#E74C3C"/>
<path opacity="0.1" d="M79.4143 27.084H65.0527V44.3732H79.4143V27.084Z" fill="black"/>
<path d="M86.8297 27.0859H79.4141V44.3759H86.8297V27.0859Z" fill="#E74C3C"/>
<path d="M73.4521 30.8221H73.1481H72.9197L72.7891 30.5345L72.6065 30.8221L72.3583 30.2299L72.1235 30.8221H71.4511H71.1443L71.0335 30.4271L70.9291 30.8221H70.7295V27.0859H73.4521V30.8221Z" fill="white"/>
<g opacity="0.1">
<path d="M86.3186 43.1832C85.7694 41.9538 85.2248 40.7206 84.686 39.483L83.0772 35.7642L81.489 32.0292C80.9622 30.7822 80.4412 29.5306 79.9248 28.2754C80.4742 29.5048 81.0188 30.7378 81.5576 31.9754L83.1664 35.6944L84.7546 39.4296C85.2812 40.6764 85.8022 41.928 86.3186 43.1832Z" fill="black"/>
<path d="M86.319 28.2754C85.8026 29.5306 85.2816 30.7822 84.7546 32.0292L83.1664 35.7642L81.5576 39.4832C81.0188 40.7208 80.4742 41.9538 79.9248 43.1832C80.4412 41.928 80.9622 40.6764 81.489 39.4294L83.0772 35.6944L84.686 31.9756C85.2252 30.738 85.7698 29.505 86.319 28.2754Z" fill="black"/>
</g>
<path d="M62.6689 30.8238H77.0287L79.4125 27.084H65.0527L62.6689 30.8238Z" fill="#E74C3C"/>
<g opacity="0.2">
<path d="M62.6689 30.8238H77.0287L79.4125 27.084H65.0527L62.6689 30.8238Z" fill="black"/>
</g>
<path d="M81.7961 30.8259H89.1899L86.8061 27.0859H79.4121L81.7961 30.8259Z" fill="#E74C3C"/>
<path opacity="0.1" d="M81.7961 30.8259H89.1899L86.8061 27.0859H79.4121L81.7961 30.8259Z" fill="black"/>
<path d="M70.1197 34.7754L70.5805 36.064L71.0365 34.7754H71.3843L70.7197 36.4794H70.4411L69.7715 34.7754H70.1197Z" fill="#263238"/>
<path d="M71.4248 36.4801C71.4248 36.4081 71.4304 36.3431 71.4416 36.2847C71.4528 36.2263 71.4724 36.1721 71.5004 36.1225C71.5284 36.0729 71.5668 36.0267 71.6156 35.9833C71.6644 35.9401 71.7264 35.8977 71.8016 35.8561C71.8672 35.8209 71.9252 35.7901 71.9756 35.7637C72.026 35.7373 72.068 35.7129 72.1016 35.6905C72.1352 35.6683 72.1608 35.6453 72.1786 35.6221C72.1962 35.5989 72.205 35.5721 72.205 35.5417C72.205 35.4939 72.1856 35.4527 72.1474 35.4183C72.109 35.3837 72.0538 35.3665 71.9818 35.3665C71.9434 35.3665 71.9082 35.3717 71.8762 35.3821C71.8442 35.3927 71.8142 35.4065 71.7864 35.4241C71.7582 35.4419 71.7328 35.4615 71.7094 35.4829C71.6862 35.5045 71.665 35.5275 71.646 35.5515L71.4396 35.3137C71.4602 35.2913 71.49 35.2669 71.5284 35.2405C71.5666 35.2141 71.612 35.1893 71.664 35.1661C71.716 35.1431 71.7736 35.1237 71.8368 35.1085C71.8998 35.0935 71.9674 35.0859 72.0396 35.0859C72.1212 35.0859 72.1938 35.0959 72.258 35.1157C72.322 35.1359 72.376 35.1637 72.42 35.1997C72.464 35.2359 72.4976 35.2789 72.5208 35.3293C72.5438 35.3797 72.5556 35.4345 72.5556 35.4937C72.5556 35.5495 72.545 35.5991 72.5244 35.6423C72.5038 35.6857 72.4772 35.7239 72.4452 35.7575C72.4132 35.7911 72.3782 35.8203 72.3408 35.8451C72.303 35.8699 72.2668 35.8917 72.2316 35.9111C72.203 35.9271 72.17 35.9455 72.1332 35.9661C72.0964 35.9871 72.06 36.0099 72.024 36.0347C71.988 36.0595 71.9548 36.0851 71.9244 36.1115C71.894 36.1379 71.8708 36.1639 71.8548 36.1895H72.582V36.4799L71.4248 36.4801Z" fill="#263238"/>
<path d="M72.8271 36.4802V36.1348H73.0911V36.4802H72.8271Z" fill="#263238"/>
<path d="M74.5837 35.7765C74.5837 35.8819 74.5681 35.9793 74.5369 36.0681C74.5059 36.1567 74.4625 36.2335 74.4075 36.2983C74.3523 36.3631 74.2867 36.4135 74.2107 36.4495C74.1347 36.4857 74.0527 36.5037 73.9649 36.5037C73.8753 36.5037 73.7929 36.4857 73.7177 36.4495C73.6425 36.4135 73.5773 36.3631 73.5221 36.2983C73.4669 36.2335 73.4237 36.1567 73.3925 36.0681C73.3613 35.9793 73.3457 35.8819 73.3457 35.7765C73.3457 35.6709 73.3613 35.5735 73.3925 35.4849C73.4237 35.3961 73.4669 35.3193 73.5221 35.2545C73.5771 35.1897 73.6425 35.1389 73.7177 35.1021C73.7929 35.0653 73.8753 35.0469 73.9649 35.0469C74.0527 35.0469 74.1349 35.0653 74.2107 35.1021C74.2867 35.1389 74.3523 35.1897 74.4075 35.2545C74.4625 35.3193 74.5059 35.3961 74.5369 35.4849C74.5681 35.5737 74.5837 35.6709 74.5837 35.7765ZM74.2597 35.7765C74.2597 35.7125 74.2525 35.6537 74.2381 35.5999C74.2239 35.5463 74.2033 35.5003 74.1769 35.4621C74.1505 35.4237 74.1193 35.3941 74.0833 35.3733C74.0473 35.3525 74.0077 35.3421 73.9645 35.3421C73.9195 35.3421 73.8791 35.3527 73.8431 35.3733C73.8071 35.3943 73.7759 35.4237 73.7495 35.4621C73.7231 35.5003 73.7027 35.5465 73.6883 35.5999C73.6739 35.6537 73.6667 35.7125 73.6667 35.7765C73.6667 35.8403 73.6739 35.8987 73.6883 35.9517C73.7025 36.0045 73.7231 36.0499 73.7495 36.0885C73.7759 36.1269 73.8071 36.1565 73.8431 36.1773C73.8791 36.1981 73.9195 36.2083 73.9645 36.2083C74.0077 36.2083 74.0473 36.1979 74.0833 36.1773C74.1193 36.1563 74.1505 36.1269 74.1769 36.0885C74.2033 36.0501 74.2237 36.0045 74.2381 35.9517C74.2525 35.8989 74.2597 35.8405 74.2597 35.7765Z" fill="#263238"/>
<path d="M58.7862 25.8935C57.8784 29.0369 55.8012 35.5075 56.8788 37.6797C58.2926 40.5299 63.943 43.0919 65.415 43.8257C66.0564 44.1455 68.434 40.0073 68.1516 39.2951C67.869 38.5827 61.81 35.0407 61.4474 34.5967C61.085 34.1529 61.6202 29.0659 61.441 26.2943C61.2148 22.7983 59.5546 23.2329 58.7862 25.8935Z" fill="#F7A9A0"/>
<path d="M69.7765 41.1024C69.5723 40.7992 69.7301 40.69 70.3483 40.8894C70.9743 41.0896 73.2453 42.4022 73.6363 41.5686C74.0301 40.7328 70.7859 38.9282 69.7307 38.6752C68.6759 38.4198 66.8799 38.3828 66.8799 38.3828C67.4407 38.861 68.6893 40.1502 69.7765 41.1024Z" fill="#F7A9A0"/>
<path d="M63.833 42.8702C65.4606 44.1592 67.4086 45.863 69.7288 46.1848C70.184 46.248 70.4774 46.0562 70.4774 46.0562C71.5148 46.2188 71.9032 45.778 71.9032 45.778C72.916 45.6336 73.251 45.128 73.251 45.128C73.251 45.128 74.471 45.3058 74.701 44.5862C74.9612 43.78 73.1968 43.6882 72.2576 43.0442C70.1054 41.569 67.4588 38.87 66.8804 38.3828L63.833 42.8702Z" fill="#F7A9A0"/>
<path d="M68.9152 43.0841C69.5572 43.5057 70.177 43.9365 70.8728 44.2689C71.6362 44.6335 72.432 44.8565 73.2364 45.1037C73.2616 45.1115 73.2534 45.1471 73.2274 45.1435C71.7002 44.9267 70.0554 44.1255 68.8956 43.1131C68.8674 43.0885 68.883 43.0629 68.9152 43.0841Z" fill="#263238"/>
<path d="M67.8366 44.2537C68.484 44.6291 69.6262 45.2819 71.9088 45.7543C71.9162 45.7559 71.916 45.7689 71.9076 45.7683C70.3848 45.6587 69.0602 45.1509 67.8188 44.2845C67.7802 44.2577 67.7934 44.2287 67.8366 44.2537Z" fill="#263238"/>
<path d="M67.2681 44.8923C68.3933 45.4889 69.1783 45.7227 70.4737 46.0497C70.4811 46.0515 70.4797 46.0649 70.4715 46.0637C68.9603 45.8465 68.4369 45.5965 67.2423 44.9281C67.2011 44.9051 67.2241 44.8689 67.2681 44.8923Z" fill="#263238"/>
<path d="M61.7491 30.0961L56.8389 31.0363C56.8389 31.0363 58.4287 25.7729 59.3331 24.3571C60.3509 22.7635 60.9431 23.6325 61.3451 25.3843C61.7469 27.1363 61.7491 30.0961 61.7491 30.0961Z" fill="#E74C3C"/>
<path opacity="0.1" d="M61.7491 30.0961L56.8389 31.0363C56.8389 31.0363 58.4287 25.7729 59.3331 24.3571C60.3509 22.7635 60.9431 23.6325 61.3451 25.3843C61.7469 27.1363 61.7491 30.0961 61.7491 30.0961Z" fill="black"/>
<path d="M61.4064 29.2422C60.7648 29.2772 58.856 29.6536 58.5398 29.7126C58.373 29.7438 57.7136 29.8972 57.547 29.9268C57.5258 29.9306 57.5356 29.9628 57.5568 29.959C57.8744 29.9022 58.1988 29.8784 58.5178 29.824C58.844 29.7684 60.7924 29.4572 61.4104 29.2668C61.424 29.2628 61.421 29.2414 61.4064 29.2422Z" fill="#263238"/>
<path d="M58.4335 26.3772C58.4405 26.3548 58.4083 26.3468 58.3995 26.3672C58.2145 26.7964 58.0407 27.2304 57.8737 27.6672C57.9037 27.424 57.9627 27.1886 58.0371 26.9522C58.0403 26.9418 58.0249 26.9374 58.0209 26.9474C57.9193 27.2092 57.8647 27.493 57.8337 27.7734C57.7181 28.078 57.6051 28.3836 57.4957 28.6904C57.2177 29.4712 56.9295 30.2506 56.6967 31.0464C56.6843 31.0888 56.7233 31.1272 56.7653 31.1176C56.9347 31.0792 57.1023 31.0368 57.2689 30.9872C57.2863 30.982 57.2849 30.9528 57.2651 30.954C57.1213 30.9632 56.9789 30.98 56.8363 30.9974C57.1249 30.2506 57.3755 29.4888 57.6427 28.734C57.9191 27.9528 58.1887 27.1686 58.4335 26.3772Z" fill="#263238"/>
<path d="M61.7525 27.9508C61.7695 27.6874 61.7859 27.4242 61.7939 27.1602C61.7941 27.1546 61.7861 27.1548 61.7855 27.16C61.7655 27.3532 61.7501 27.5466 61.7361 27.7402C61.7027 27.354 61.6625 26.969 61.6047 26.5876C61.6039 26.582 61.5947 26.5832 61.5947 26.5888C61.5965 27.1752 61.6307 27.7612 61.6463 28.3472C61.6617 28.9224 61.6867 29.4964 61.7125 30.0712C61.6041 30.11 61.4951 30.1462 61.3853 30.1812C61.3643 30.1878 61.3723 30.2168 61.3937 30.2138C61.5185 30.1958 61.6431 30.1784 61.7687 30.166C61.7983 30.163 61.8251 30.1444 61.8253 30.1114C61.8295 29.3942 61.8071 28.6706 61.7525 27.9508Z" fill="#263238"/>
<path d="M81.0502 58.8221C81.2094 59.9121 81.15 61.0361 80.8842 62.1031C80.7594 62.6027 80.5882 63.0843 80.3814 63.5535C80.1204 64.1537 79.8476 64.7399 79.9134 65.3967C79.9768 65.4391 79.7592 65.4321 79.7522 65.3683C77.997 64.3691 75.746 64.1861 74.3952 62.5519C73.7554 61.7783 73.4326 60.7977 73.2796 59.8167C73.1134 58.7487 73.0674 57.5663 73.3428 56.5135C73.575 55.6233 74.0954 54.7645 74.932 54.3283C75.7956 53.8791 76.9264 53.9167 77.8356 54.1989C79.7974 54.8083 80.7728 56.9249 81.0502 58.8221Z" fill="#E74C3C"/>
<path d="M81.9518 71.8144C81.7122 71.016 81.473 70.2176 81.227 69.4212C80.7454 67.8612 80.2446 66.307 79.6904 64.771C79.3584 63.851 79.0082 62.94 78.6398 62.0376C78.7026 61.4708 78.7274 60.906 78.8494 60.341C78.9962 59.6606 79.2094 59.0032 79.4078 58.3372C79.42 58.2962 79.3536 58.2746 79.337 58.3136C78.9428 59.231 78.4286 60.405 78.4158 61.4916C77.9872 60.4706 77.5292 59.4634 77.0362 58.472C77.0084 57.6268 76.9776 56.8076 77.1134 55.957C77.1196 55.9188 77.0612 55.9072 77.0542 55.9454C76.9224 56.6596 76.8294 57.4254 76.8824 58.1654C76.505 57.4206 76.1076 56.6846 75.6846 55.9602C75.6464 55.895 75.5562 55.9616 75.5896 56.026C76.2492 57.296 76.8612 58.5928 77.435 59.9068C76.6398 59.2018 75.677 58.6678 74.6832 58.3132C74.6394 58.2976 74.6066 58.3608 74.651 58.3794C75.7822 58.8522 76.7318 59.5206 77.6276 60.35C78.0402 61.312 78.4332 62.2826 78.8076 63.2594C77.7092 62.1828 76.2064 61.4744 74.7526 61.0946C74.703 61.0816 74.69 61.1574 74.7376 61.1718C76.42 61.6784 77.727 62.6322 79.0064 63.778C79.155 64.1732 79.301 64.5692 79.444 64.9658C79.986 66.47 80.4998 67.9844 80.9926 69.5054C81.2288 70.2346 81.4612 70.9648 81.6894 71.6966C81.935 72.4838 82.1268 73.3148 82.4464 74.075C82.477 74.1476 82.6074 74.131 82.5908 74.044C82.4466 73.2902 82.1724 72.5494 81.9518 71.8144Z" fill="#263238"/>
<path d="M79.0397 57.2854C78.7253 57.7672 78.5153 58.297 78.4075 58.861C78.4047 58.8754 78.4273 58.884 78.4327 58.8694C78.6283 58.3386 78.8583 57.8256 79.1181 57.3234C79.1445 57.2722 79.0693 57.24 79.0397 57.2854Z" fill="#263238"/>
<path d="M75.9086 60.9426C75.4542 60.6842 74.8512 60.4802 74.3334 60.4122C74.3192 60.4104 74.3102 60.4312 74.325 60.4374C74.5782 60.5424 74.8442 60.6158 75.1006 60.7144C75.358 60.8134 75.609 60.9334 75.8692 61.0238C75.9232 61.0428 75.9602 60.972 75.9086 60.9426Z" fill="#263238"/>
<path d="M75.0266 56.5435C74.867 56.4377 74.6972 56.3023 74.5198 56.2307C74.492 56.2195 74.4676 56.2539 74.4906 56.2751C74.631 56.4045 74.8268 56.5005 74.99 56.5991C75.0222 56.6183 75.0582 56.5645 75.0266 56.5435Z" fill="#263238"/>
<path d="M86.9663 64.7835C85.7021 65.1587 84.4315 65.5055 83.1677 65.8765C83.0579 65.9095 80.9209 61.8145 81.6933 59.7049C82.4071 57.7523 84.0415 56.2911 85.9899 55.6277C86.8925 55.3211 88.0021 55.0635 88.9559 55.2739C89.8037 55.4615 90.4025 56.1553 90.6781 56.9527C91.0533 58.0365 90.9283 59.3291 90.7241 60.4355C90.5343 61.4615 90.1589 62.4719 89.4803 63.2779C88.8083 64.0761 87.9517 64.4913 86.9663 64.7835Z" fill="#E74C3C"/>
<path d="M88.7992 60.8918C87.9942 61.2976 87.1788 61.5918 86.3206 61.8676C85.7832 62.0404 85.1812 62.1962 84.666 62.4666C85.1998 61.2764 85.7856 60.111 86.4074 58.9564C87.224 58.72 88.0828 58.3514 88.6988 57.7734C88.7324 57.742 88.6892 57.6946 88.6528 57.7202C87.9792 58.1962 87.2362 58.482 86.491 58.8038C86.6594 58.493 86.8286 58.1826 87.0018 57.873C87.05 57.7868 86.9314 57.7012 86.8734 57.785C86.2108 58.7412 85.6148 59.7546 85.0772 60.8016C84.9438 59.8776 84.8958 58.9776 84.9472 58.0376C84.9484 58.0136 84.9142 58.0118 84.9104 58.035C84.754 59.029 84.7614 60.0808 84.9416 61.072C84.4984 61.957 84.0944 62.8634 83.7316 63.7812C83.5872 63.2298 83.4 62.687 83.2748 62.131C83.0948 61.331 83.0104 60.5158 83.0932 59.6976C83.0956 59.6736 83.0604 59.672 83.0564 59.695C82.8112 61.1458 83.0348 62.784 83.5868 64.1622C83.3754 64.7148 83.1738 65.2694 82.9894 65.825C82.0454 68.6694 81.4636 71.602 81.3116 74.596C81.3082 74.6652 81.4104 74.672 81.4184 74.6036C81.7618 71.6666 82.3684 68.7432 83.3022 65.9358C83.6688 64.8336 84.0908 63.7636 84.5538 62.7134C85.3004 62.4928 86.0442 62.1934 86.7776 61.9394C87.4932 61.6916 88.2264 61.405 88.8272 60.9344C88.851 60.9164 88.8254 60.8786 88.7992 60.8918Z" fill="#263238"/>
<path d="M89.9778 59.7029C89.2046 59.9779 88.4718 60.3629 87.6994 60.6415C87.6632 60.6545 87.6844 60.7119 87.7208 60.7043C88.538 60.5355 89.3486 60.2829 90.0072 59.7471C90.0324 59.7265 90.0046 59.6933 89.9778 59.7029Z" fill="#263238"/>
<path d="M83.665 58.0349C83.6744 57.9939 83.6144 57.9703 83.602 58.0125C83.39 58.7251 83.2437 59.4813 83.4501 60.2099C83.4581 60.2385 83.503 60.2393 83.5046 60.2065C83.5416 59.4725 83.5006 58.7583 83.665 58.0349Z" fill="#263238"/>
<path d="M86.8598 56.3888C86.6006 56.7196 86.5074 57.1892 86.5244 57.6006C86.5254 57.6278 86.569 57.6436 86.5764 57.6114C86.6706 57.2038 86.828 56.8322 86.9532 56.4362C86.9714 56.378 86.8966 56.3418 86.8598 56.3888Z" fill="#263238"/>
<path d="M71.9303 66.5897C72.3009 67.7659 73.1815 69.3919 74.5761 69.4047C75.4801 69.4133 76.3907 69.3061 77.2969 69.2933C78.2673 69.2783 79.2401 69.2805 80.2083 69.3383C80.2875 69.3425 80.0921 66.4323 77.7597 65.0151C77.1063 64.6181 76.3071 64.4923 75.5659 64.3317C74.7175 64.1475 73.8435 64.0231 72.9737 64.0617C72.4381 64.0831 71.9925 64.1967 71.8019 64.7451C71.6025 65.3193 71.7525 66.0305 71.9303 66.5897Z" fill="#E74C3C"/>
<path d="M72.934 65.118C73.5008 65.2638 74.0726 65.4312 74.6414 65.6118C74.4894 65.4542 74.341 65.2944 74.1714 65.1534C73.9272 64.9502 73.6584 64.7882 73.3962 64.6102C73.3744 64.5954 73.3874 64.5532 73.4156 64.5644C73.9328 64.7676 74.4706 65.1922 74.7912 65.6584C75.5002 65.8874 76.2022 66.1402 76.8782 66.4176C77.3578 66.6144 77.8002 66.8492 78.2144 67.1212C78.0656 66.8334 77.9298 66.5378 77.7308 66.28C77.4214 65.8788 77.0024 65.6552 76.5972 65.3704C76.5588 65.3434 76.5914 65.2896 76.6334 65.3082C77.5486 65.715 78.1052 66.3752 78.4524 67.2808C78.931 67.6222 79.369 68.0204 79.7756 68.4822C81.3188 70.235 82.534 72.5672 82.5386 74.947C82.5388 75.0038 82.4476 75.0198 82.4366 74.9608C81.9986 72.597 81.0652 70.4742 79.4936 68.6394C79.3832 68.5106 79.2698 68.3878 79.1542 68.269C78.7298 68.2244 78.3094 68.1678 77.8794 68.1744C77.3828 68.1818 76.8902 68.2474 76.3958 68.2876C75.5816 68.3538 74.6812 68.3632 73.9468 67.9538C73.9144 67.9358 73.9362 67.8794 73.9726 67.8926C75.61 68.488 77.3272 67.7328 78.9684 68.0878C78.2682 67.4164 77.4728 66.9102 76.548 66.5268C76.498 66.506 76.4476 66.4868 76.3974 66.4666C75.3466 66.593 74.2372 66.8666 73.2138 66.5252C73.1834 66.515 73.1956 66.469 73.2272 66.4768C74.216 66.7238 75.1644 66.4132 76.1402 66.3638C75.0776 65.9502 73.9948 65.621 72.9288 65.2102C72.839 65.175 72.837 65.0932 72.934 65.118Z" fill="#263238"/>
<path d="M72.4704 66.1527C72.9834 66.2371 73.4842 66.2399 73.9998 66.2685C74.0114 66.2691 74.0152 66.2871 74.0028 66.2899C73.4998 66.4029 72.9496 66.3333 72.4598 66.1915C72.4344 66.1841 72.4454 66.1487 72.4704 66.1527Z" fill="#263238"/>
<path d="M75.925 65.1447C76.204 65.2411 76.4636 65.4777 76.682 65.6711C76.7086 65.6947 76.6728 65.7425 76.6434 65.7211C76.5152 65.6277 76.383 65.5397 76.2496 65.4535C76.128 65.3749 75.9922 65.3125 75.8808 65.2203C75.8462 65.1915 75.8834 65.1303 75.925 65.1447Z" fill="#263238"/>
<path d="M84.1605 68.9311C84.1433 68.9697 84.1991 69.0061 84.2205 68.9653C84.2227 68.9653 84.2227 68.9653 84.2227 68.9631C84.2313 68.9739 84.2419 68.9845 84.2591 68.9867C85.2017 69.1901 86.1487 69.3981 87.1085 69.4837C87.8797 69.5523 88.7689 69.5951 89.4437 69.1473C90.3585 68.5411 90.9605 66.9193 90.4655 65.8889C89.8807 64.6655 88.1175 65.3297 87.2327 65.7647C85.8723 66.4289 84.7797 67.5515 84.1605 68.9311Z" fill="#E74C3C"/>
<path d="M83.4765 69.4977C83.9955 68.9901 84.5693 68.5673 85.1779 68.2027C85.5951 67.4945 86.2351 66.9065 86.9033 66.4443C86.9367 66.4211 86.9653 66.4741 86.9345 66.4977C86.3585 66.9411 85.9089 67.4615 85.4807 68.0271C86.1615 67.6473 86.8811 67.3345 87.6153 67.0563C87.8709 66.5875 88.2873 66.1489 88.7619 65.9073C88.7715 65.9025 88.7835 65.9157 88.7741 65.9231C88.3601 66.2471 88.0279 66.5835 87.7385 67.0099C88.1721 66.8481 88.6101 66.6973 89.0479 66.5521C89.0873 66.5391 89.1021 66.5989 89.0649 66.6135C88.2855 66.9181 87.4889 67.2391 86.7167 67.6097C87.6915 67.7405 88.5691 67.7707 89.5605 67.6013C89.5865 67.5969 89.5981 67.6341 89.5717 67.6417C88.6151 67.9147 87.5185 67.9653 86.5543 67.6867C86.0619 67.9289 85.5809 68.1929 85.1231 68.4883C85.5063 68.4385 85.8917 68.5057 86.2799 68.5829C86.9571 68.7175 87.6193 68.8369 88.3127 68.8131C88.3385 68.8123 88.3453 68.8545 88.3189 68.8591C87.1397 69.0619 86.0247 68.5261 84.8559 68.6655C84.4231 68.9631 84.0139 69.2915 83.6387 69.6597C82.9041 70.3807 82.3165 71.2425 81.8635 72.1645C81.3715 73.1659 81.1047 74.2273 80.7071 75.2619C80.6897 75.3073 80.6265 75.2899 80.6345 75.2419C80.9745 73.2017 81.9903 70.9519 83.4765 69.4977Z" fill="#263238"/>
<path d="M87.0331 66.7C87.1019 66.5594 87.2221 66.4394 87.3351 66.3336C87.4339 66.241 87.5545 66.1214 87.6833 66.073C87.6951 66.0686 87.7017 66.0846 87.6947 66.0926C87.5981 66.2024 87.4635 66.2828 87.3591 66.3878C87.2539 66.4938 87.1671 66.6174 87.0607 66.7214C87.0461 66.7358 87.0247 66.7176 87.0331 66.7Z" fill="#263238"/>
<path d="M88.9783 67.3338C89.1531 67.29 89.3383 67.293 89.5161 67.2568C89.6961 67.22 89.8633 67.1558 90.0373 67.1006C90.0603 67.0934 90.0735 67.127 90.0535 67.1388C89.7665 67.3092 89.3135 67.4542 88.9783 67.3886C88.9505 67.3832 88.9521 67.3404 88.9783 67.3338Z" fill="#263238"/>
<path d="M78.6172 72.7266L78.7718 74.4844L79.2972 80.4194H83.9452L84.6016 74.4844L84.7952 72.7266H78.6172Z" fill="#455A64"/>
<path d="M78.6172 72.7266L78.7718 74.4844H84.6016L84.7952 72.7266H78.6172Z" fill="#263238"/>
<path d="M78.1573 73.6738H85.2559V72.2478H78.1573V73.6738Z" fill="#455A64"/>
<path d="M43.853 74.5469H30.4844V89.3509H43.853V74.5469Z" fill="#E74C3C"/>
<path opacity="0.1" d="M43.853 74.5469H30.4844V89.3509H43.853V74.5469Z" fill="black"/>
<path d="M50.7555 74.5488H43.8525V89.3534H50.7555V74.5488Z" fill="#E74C3C"/>
<path d="M38.3028 77.7463H38.02H37.8074L37.6858 77.4999L37.5158 77.7463L37.2848 77.2391L37.0662 77.7463H36.4404H36.1548L36.0516 77.4079L35.9542 77.7463H35.7686V74.5469H38.3028V77.7463Z" fill="white"/>
<g opacity="0.1">
<path d="M50.2809 88.3332C49.7697 87.2804 49.2627 86.2246 48.7611 85.165L47.2635 81.9808L45.7851 78.7826C45.2947 77.7148 44.8097 76.6432 44.3291 75.5684C44.8405 76.621 45.3473 77.6768 45.8489 78.7366L47.3463 81.921L48.8245 85.1192C49.3153 86.1868 49.8001 87.2586 50.2809 88.3332Z" fill="black"/>
<path d="M50.2807 75.5684C49.7999 76.6432 49.3149 77.7148 48.8245 78.7826L47.3463 81.9808L45.8489 85.1652C45.3473 86.225 44.8403 87.2808 44.3291 88.3334C44.8097 87.2586 45.2947 86.1868 45.7851 85.1192L47.2635 81.921L48.7611 78.7368C49.2625 77.677 49.7695 76.6212 50.2807 75.5684Z" fill="black"/>
</g>
<path d="M28.2656 77.7493H41.6324L43.8514 74.5469H30.4846L28.2656 77.7493Z" fill="#E74C3C"/>
<g opacity="0.2">
<path d="M28.2656 77.7493H41.6324L43.8514 74.5469H30.4846L28.2656 77.7493Z" fill="black"/>
</g>
<path d="M46.0708 77.751H52.9534L50.7342 74.5488H43.8516L46.0708 77.751Z" fill="#E74C3C"/>
<path opacity="0.1" d="M46.0708 77.751H52.9534L50.7342 74.5488H43.8516L46.0708 77.751Z" fill="black"/>
<path d="M35.2093 80.9961L35.6701 82.2847L36.1261 80.9961H36.4741L35.8093 82.7001H35.5309L34.8613 80.9961H35.2093Z" fill="#263238"/>
<path d="M37.5536 82.4101V82.7005H36.5793V82.4101H36.9201V81.6829C36.9057 81.7021 36.8829 81.7217 36.8517 81.7417C36.8205 81.7617 36.7864 81.7805 36.7496 81.7981C36.7128 81.8157 36.6749 81.8301 36.6357 81.8413C36.5965 81.8525 36.5616 81.8581 36.5312 81.8581V81.5581C36.56 81.5581 36.5952 81.5489 36.6368 81.5305C36.6784 81.5121 36.7192 81.4901 36.7592 81.4645C36.7992 81.4389 36.8341 81.4137 36.8637 81.3889C36.8933 81.3641 36.9121 81.3443 36.9201 81.3301H37.2488V82.4099L37.5536 82.4101Z" fill="#263238"/>
<path d="M37.751 82.7011V82.3555H38.015V82.7011H37.751Z" fill="#263238"/>
<path d="M38.8481 81.9351C38.9281 81.9351 39.0025 81.9483 39.0713 81.9747C39.1401 82.0011 39.1993 82.0383 39.2489 82.0863C39.2985 82.1343 39.3373 82.1919 39.3653 82.2591C39.3933 82.3263 39.4073 82.4007 39.4073 82.4823C39.4073 82.5687 39.3917 82.6471 39.3605 82.7175C39.3293 82.7879 39.2857 82.8483 39.2297 82.8987C39.1737 82.9491 39.1073 82.9881 39.0305 83.0163C38.9537 83.0443 38.8705 83.0583 38.7809 83.0583C38.6561 83.0583 38.5445 83.0319 38.4461 82.9791C38.3477 82.9263 38.2729 82.8543 38.2217 82.7631L38.4065 82.5711C38.4513 82.6337 38.5073 82.6833 38.5745 82.7199C38.6419 82.7569 38.7113 82.7751 38.7833 82.7751C38.8697 82.7751 38.9405 82.7491 38.9957 82.6971C39.0509 82.6449 39.0785 82.5757 39.0785 82.4895C39.0785 82.4063 39.0525 82.3391 39.0005 82.2877C38.9485 82.2365 38.8825 82.2109 38.8025 82.2109C38.7497 82.2109 38.7005 82.2231 38.6549 82.2471C38.6093 82.2709 38.5729 82.3037 38.5457 82.3453H38.2649C38.2649 82.3407 38.2681 82.3227 38.2745 82.2913C38.2809 82.2601 38.2889 82.2201 38.2985 82.1711C38.3081 82.1225 38.3185 82.0679 38.3297 82.0081C38.3409 81.9481 38.3529 81.8869 38.3657 81.8245C38.3945 81.6773 38.4265 81.5125 38.4617 81.3301H39.3017V81.6229H38.6945L38.6249 82.0043C38.6441 81.9835 38.6725 81.9667 38.7101 81.9539C38.7477 81.9417 38.7937 81.9351 38.8481 81.9351Z" fill="#263238"/>
<path d="M21.3583 78.0039H11.1113V89.3511H21.3583V78.0039Z" fill="#E74C3C"/>
<path opacity="0.1" d="M21.3583 78.0039H11.1113V89.3511H21.3583V78.0039Z" fill="black"/>
<path d="M26.6494 78.0039H21.3584V89.3517H26.6494V78.0039Z" fill="#E74C3C"/>
<path d="M17.1037 80.4561H16.8867H16.7239L16.6307 80.2673L16.5003 80.4561L16.3233 80.0675L16.1557 80.4561H15.6761H15.4571L15.3779 80.1967L15.3035 80.4561H15.1611V78.0039H17.1037V80.4561Z" fill="white"/>
<g opacity="0.1">
<path d="M26.2847 88.5696C25.8929 87.7626 25.5043 86.9534 25.1199 86.1412L23.9719 83.7004L22.8387 81.249C22.4629 80.4306 22.0911 79.6092 21.7227 78.7852C22.1147 79.592 22.5033 80.4014 22.8877 81.2136L24.0355 83.6544L25.1685 86.1058C25.5445 86.9244 25.9163 87.7458 26.2847 88.5696Z" fill="black"/>
<path d="M26.2847 78.7852C25.9161 79.609 25.5445 80.4304 25.1685 81.2488L24.0355 83.7002L22.8877 86.141C22.5033 86.9532 22.1147 87.7626 21.7227 88.5694C22.0911 87.7456 22.4629 86.9242 22.8387 86.1056L23.9719 83.6542L25.1199 81.2136C25.5043 80.4014 25.8929 79.592 26.2847 78.7852Z" fill="black"/>
</g>
<path d="M9.41016 80.4583H19.656L21.3568 78.0039H11.1112L9.41016 80.4583Z" fill="#E74C3C"/>
<g opacity="0.2">
<path d="M9.41016 80.4583H19.656L21.3568 78.0039H11.1112L9.41016 80.4583Z" fill="black"/>
</g>
<path d="M23.0574 80.4585H28.3328L26.632 78.0039H21.3564L23.0574 80.4585Z" fill="#E74C3C"/>
<path opacity="0.1" d="M23.0574 80.4585H28.3328L26.632 78.0039H21.3564L23.0574 80.4585Z" fill="black"/>
<path d="M14.2025 82.7246L14.6633 84.0132L15.1193 82.7246H15.4673L14.8025 84.4286H14.5241L13.8545 82.7246H14.2025Z" fill="#263238"/>
<path d="M16.5478 84.1386V84.429H15.5734V84.1386H15.9142V83.4114C15.8998 83.4306 15.877 83.4502 15.8458 83.4702C15.8146 83.4902 15.7806 83.509 15.7438 83.5266C15.707 83.5442 15.669 83.5586 15.6298 83.5698C15.5906 83.581 15.5558 83.5866 15.5254 83.5866V83.2866C15.5542 83.2866 15.5894 83.2774 15.631 83.259C15.6726 83.2406 15.7134 83.2186 15.7534 83.193C15.7934 83.1674 15.8282 83.1422 15.8578 83.1174C15.8874 83.0926 15.9062 83.0728 15.9142 83.0586H16.243V84.1384H16.5478V84.1386Z" fill="#263238"/>
<path d="M16.7441 84.4276V84.082H17.0081V84.4276H16.7441Z" fill="#263238"/>
<path d="M18.5011 83.7257C18.5011 83.8311 18.4855 83.9285 18.4543 84.0173C18.4231 84.1059 18.3799 84.1827 18.3247 84.2475C18.2695 84.3123 18.2039 84.3627 18.1279 84.3987C18.0519 84.4349 17.9699 84.4529 17.8819 84.4529C17.7923 84.4529 17.7099 84.4349 17.6347 84.3987C17.5595 84.3627 17.4943 84.3123 17.4391 84.2475C17.3839 84.1827 17.3407 84.1059 17.3095 84.0173C17.2783 83.9285 17.2627 83.8311 17.2627 83.7257C17.2627 83.6201 17.2783 83.5227 17.3095 83.4341C17.3407 83.3453 17.3839 83.2685 17.4391 83.2037C17.4943 83.1389 17.5595 83.0881 17.6347 83.0513C17.7099 83.0143 17.7923 82.9961 17.8819 82.9961C17.9699 82.9961 18.0519 83.0145 18.1279 83.0513C18.2039 83.0881 18.2695 83.1389 18.3247 83.2037C18.3799 83.2685 18.4231 83.3453 18.4543 83.4341C18.4855 83.5229 18.5011 83.6201 18.5011 83.7257ZM18.1771 83.7257C18.1771 83.6617 18.1699 83.6029 18.1555 83.5491C18.1411 83.4957 18.1207 83.4495 18.0943 83.4113C18.0679 83.3729 18.0367 83.3433 18.0007 83.3225C17.9647 83.3017 17.9251 83.2913 17.8819 83.2913C17.8371 83.2913 17.7967 83.3019 17.7607 83.3225C17.7247 83.3435 17.6935 83.3729 17.6671 83.4113C17.6407 83.4495 17.6203 83.4957 17.6059 83.5491C17.5915 83.6029 17.5843 83.6617 17.5843 83.7257C17.5843 83.7895 17.5915 83.8479 17.6059 83.9009C17.6203 83.9537 17.6407 83.9991 17.6671 84.0377C17.6935 84.0761 17.7247 84.1057 17.7607 84.1265C17.7967 84.1473 17.8371 84.1575 17.8819 84.1575C17.9251 84.1575 17.9647 84.1471 18.0007 84.1265C18.0367 84.1057 18.0679 84.0761 18.0943 84.0377C18.1207 83.9993 18.1411 83.9537 18.1555 83.9009C18.1699 83.8481 18.1771 83.7897 18.1771 83.7257Z" fill="#263238"/>
<path d="M75.6227 11.8359C75.3981 13.9827 73.4749 15.5417 71.3281 15.3171C70.4605 15.2263 69.6893 14.8581 69.0921 14.3081L67.1367 14.5951L68.1151 12.9045C67.8777 12.3269 67.7777 11.6841 67.8469 11.0223C68.0713 8.87545 69.9947 7.31645 72.1415 7.54105C74.2881 7.76565 75.8471 9.68905 75.6227 11.8359Z" fill="white"/>
<path d="M75.6231 11.8349C75.5415 12.5485 75.2805 13.2479 74.8341 13.8163C74.7315 13.9651 74.5995 14.0895 74.4799 14.2241C74.3441 14.3425 74.2173 14.4721 74.0673 14.5733C73.7815 14.7935 73.4601 14.9661 73.1243 15.0983C72.7901 15.2389 72.4305 15.3061 72.0719 15.3493C71.8911 15.3591 71.7099 15.3755 71.5289 15.3597C71.3475 15.3555 71.1667 15.3361 70.9879 15.3033C70.2727 15.1737 69.5953 14.8389 69.0541 14.3485L69.1003 14.3627L67.1467 14.6627L67.0049 14.6845L67.0767 14.5595L68.0493 12.8657L68.0447 12.9327C67.5709 11.8169 67.6777 10.4885 68.2855 9.44888C68.5885 8.92828 69.0109 8.47988 69.5097 8.14528C70.0081 7.80988 70.5861 7.59948 71.1779 7.51928C71.7703 7.44068 72.3797 7.49468 72.9453 7.68268C73.5103 7.87288 74.0281 8.19288 74.4527 8.60688C75.3161 9.42728 75.7499 10.6579 75.6231 11.8349ZM75.6231 11.8349C75.7419 10.6569 75.2995 9.43368 74.4363 8.62448C74.0077 8.21968 73.4889 7.91308 72.9289 7.73508C72.3681 7.55968 71.7681 7.51768 71.1905 7.60468C70.6133 7.69328 70.0541 7.90828 69.5763 8.24228C69.0995 8.57708 68.6973 9.01508 68.4067 9.51788C68.1105 10.0197 67.9571 10.5947 67.9107 11.1719C67.8741 11.7509 67.9687 12.3369 68.1857 12.8747L68.1999 12.9097L68.1813 12.9417L67.1971 14.6289L67.1271 14.5257L69.0845 14.2515L69.1115 14.2477L69.1307 14.2657C69.6481 14.7513 70.3029 15.0905 71.0023 15.2297C71.1771 15.2649 71.3543 15.2871 71.5325 15.2941C71.7105 15.3129 71.8889 15.2997 72.0673 15.2933C72.4213 15.2569 72.7781 15.1971 73.1113 15.0635C73.4459 14.9383 73.7693 14.7739 74.0541 14.5553C74.2041 14.4557 74.3307 14.3275 74.4669 14.2107C74.5869 14.0777 74.7193 13.9547 74.8225 13.8069C75.2711 13.2441 75.5365 12.5479 75.6231 11.8349Z" fill="#263238"/>
<path d="M71.2778 13.6578L69.6084 11.9678L70.1692 11.4138L71.1444 12.4008L73.1706 9.22461L73.8354 9.64841L71.2778 13.6578Z" fill="#E74C3C"/>
</svg>
