<svg width="162" height="100" viewBox="0 0 162 100" fill="none" xmlns="http://www.w3.org/2000/svg">
<path d="M160.693 59.0195H135.819V86.4593H160.693V59.0195Z" fill="#EBEBEB"/>
<path d="M153.362 61.4473H143.153V61.8326H153.362V61.4473Z" fill="#C7C7C7"/>
<path d="M150.878 62.5469H145.636V62.9322H150.878V62.5469Z" fill="#C7C7C7"/>
<path d="M148.395 65.8516H138.187V66.2841H148.395V65.8516Z" fill="#C7C7C7"/>
<path d="M150.878 67.0879H138.187V67.5204H150.878V67.0879Z" fill="#C7C7C7"/>
<path d="M144.792 68.3242H138.187V68.7568H144.792V68.3242Z" fill="#C7C7C7"/>
<path d="M149.498 69.5586H138.187V69.9911H149.498V69.5586Z" fill="#C7C7C7"/>
<path d="M150.654 70.7949H138.187V71.2275H150.654V70.7949Z" fill="#C7C7C7"/>
<path d="M149.608 72.0293H138.187V72.4618H149.608V72.0293Z" fill="#C7C7C7"/>
<path d="M150.878 73.2695H138.187V73.7021H150.878V73.2695Z" fill="#C7C7C7"/>
<path d="M149.911 74.5039H138.187V74.9365H149.911V74.5039Z" fill="#C7C7C7"/>
<path d="M147.764 75.7402H138.187V76.1728H147.764V75.7402Z" fill="#C7C7C7"/>
<path d="M150.764 76.9766H138.187V77.4091H150.764V76.9766Z" fill="#C7C7C7"/>
<path d="M150.049 78.2109H138.187V78.6435H150.049V78.2109Z" fill="#C7C7C7"/>
<path d="M158.327 67.0879H154.48V67.5204H158.327V67.0879Z" fill="#C7C7C7"/>
<path d="M158.327 68.3242H154.48V68.7568H158.327V68.3242Z" fill="#C7C7C7"/>
<path d="M158.327 69.5586H154.48V69.9911H158.327V69.5586Z" fill="#C7C7C7"/>
<path d="M158.327 70.7949H154.48V71.2275H158.327V70.7949Z" fill="#C7C7C7"/>
<path d="M158.327 72.0293H154.48V72.4618H158.327V72.0293Z" fill="#C7C7C7"/>
<path d="M158.327 73.2695H154.48V73.7021H158.327V73.2695Z" fill="#C7C7C7"/>
<path d="M158.327 74.5039H154.48V74.9365H158.327V74.5039Z" fill="#C7C7C7"/>
<path d="M158.327 75.7402H154.48V76.1728H158.327V75.7402Z" fill="#C7C7C7"/>
<path d="M147.764 83.3379H138.187V83.7704H147.764V83.3379Z" fill="#C7C7C7"/>
<path d="M158.327 83.3379H154.48V83.7704H158.327V83.3379Z" fill="#C7C7C7"/>
<path d="M158.327 76.9766H154.48V77.4091H158.327V76.9766Z" fill="#C7C7C7"/>
<path d="M158.327 78.2109H154.48V78.6435H158.327V78.2109Z" fill="#C7C7C7"/>
<path d="M46.2513 1.84239L51.8957 26.4038C52.2113 27.7777 51.3542 29.1464 49.9833 29.4615L11.0273 38.4137C9.65615 38.7288 8.28749 37.8716 7.97189 36.4977L2.32739 11.9365C2.0339 10.659 2.83146 9.38543 4.10874 9.09169L43.4064 0.0607918C44.6839 -0.232706 45.9578 0.564853 46.2513 1.84239Z" fill="#EBEBEB"/>
<path d="M14.993 17.0293L8.78159 18.4568C8.21992 18.586 7.66024 18.2354 7.53112 17.6737L6.68887 14.0092C6.55975 13.4475 6.91036 12.8878 7.47203 12.7587L13.6834 11.3314C14.2451 11.2023 14.805 11.5529 14.9339 12.1146L15.7759 15.7789C15.9052 16.3403 15.5546 16.9002 14.993 17.0293Z" fill="#DBDBDB"/>
<path d="M8.65647 23.9534L8.36396 24.2293C8.35527 24.2385 8.33963 24.2492 8.32597 24.2524C8.29518 24.2596 8.26389 24.2487 8.24477 24.2278C8.21051 24.1891 8.21349 24.1379 8.24949 24.1081L8.64653 23.722C8.67931 23.693 8.73717 23.694 8.76647 23.727C8.78136 23.7451 8.78956 23.7647 8.7908 23.7861L9.29561 25.9833C9.30579 26.0278 9.28046 26.073 9.23254 26.0842C9.18809 26.0943 9.14166 26.0655 9.13148 26.0211L8.65647 23.9534Z" fill="#C7C7C7"/>
<path d="M9.8678 25.7837L10.7535 24.5188C10.8585 24.3651 10.8926 24.1846 10.8533 24.0137C10.8196 23.8667 10.7309 23.7324 10.5983 23.6405C10.4483 23.5348 10.2651 23.505 10.0977 23.5434C9.94725 23.578 9.81217 23.6629 9.71683 23.7965L9.62495 23.9291C9.59863 23.971 9.54326 23.9802 9.508 23.9524C9.46604 23.9263 9.45685 23.8707 9.48466 23.8355L9.57579 23.6994C9.69547 23.5315 9.87127 23.4193 10.0592 23.3761C10.2676 23.3282 10.4982 23.3614 10.6919 23.5005C10.8667 23.6187 10.9747 23.7915 11.0172 23.9762C11.0659 24.188 11.0291 24.4197 10.8945 24.6161L10.1365 25.7005L11.2675 25.4405C11.3119 25.4303 11.3579 25.4591 11.3691 25.5071C11.3792 25.5515 11.3504 25.5977 11.306 25.6079L9.97333 25.914L9.95967 25.917C9.93583 25.9227 9.91026 25.9212 9.89263 25.9071C9.85315 25.877 9.84148 25.8256 9.8678 25.7837Z" fill="#C7C7C7"/>
<path d="M12.8496 22.8934L12.3771 23.6711C12.5345 23.6673 12.6945 23.7063 12.8375 23.7955C13.0307 23.9166 13.1573 24.1071 13.2052 24.3154C13.2531 24.5237 13.2224 24.7502 13.098 24.9444C12.9768 25.1378 12.7873 25.2677 12.5787 25.3156C12.3736 25.3625 12.1472 25.332 11.9533 25.2076C11.912 25.1847 11.8994 25.1299 11.9257 25.0881C11.9485 25.0467 12.0032 25.0343 12.0454 25.0606C12.2001 25.1542 12.3749 25.179 12.5388 25.1413C12.7029 25.1035 12.8526 25.0042 12.9507 24.8525C13.048 24.6971 13.0719 24.5188 13.0344 24.3546C12.9966 24.1908 12.8976 24.0408 12.7426 23.9469C12.5904 23.8488 12.4124 23.825 12.2482 23.8627C12.2209 23.869 12.1939 23.8608 12.1723 23.8441L12.1688 23.8449C12.1266 23.8185 12.1142 23.7639 12.1405 23.7217L12.5944 22.9736L11.6786 23.1839C11.6307 23.1951 11.5845 23.166 11.5736 23.1181C11.5627 23.0702 11.5915 23.024 11.6394 23.013L12.7568 22.7563C12.8045 22.7451 12.8509 22.7742 12.8621 22.8221C12.865 22.8358 12.8648 22.8504 12.8603 22.8621C12.8593 22.873 12.8551 22.8849 12.8496 22.8934Z" fill="#C7C7C7"/>
<path d="M15.2597 24.1822L13.9645 24.48L13.961 24.4807L13.9541 24.4822C13.9372 24.4862 13.9158 24.4874 13.899 24.4767C13.855 24.4581 13.8391 24.4042 13.862 24.363L14.85 22.3229L14.8527 22.3187C14.8748 22.274 14.922 22.2596 14.9667 22.2817C14.9828 22.2887 14.9935 22.3043 15.0032 22.3165C15.0047 22.3234 15.0089 22.3259 15.0099 22.3294L15.0121 22.3398L15.389 23.9799L15.5497 23.9429C15.5974 23.9319 15.6438 23.961 15.654 24.0052C15.6642 24.0499 15.6351 24.0958 15.5874 24.1067L15.4268 24.1437L15.5211 24.5539C15.5313 24.5984 15.5025 24.6446 15.4546 24.6555C15.4101 24.6657 15.364 24.6366 15.3538 24.5924L15.2597 24.1822ZM15.2219 24.0184L14.9001 22.6174L14.0909 24.2783L15.2219 24.0184Z" fill="#C7C7C7"/>
<path d="M18.3162 23.7493C18.274 23.723 18.2613 23.6683 18.2886 23.6296C18.3149 23.5876 18.3696 23.575 18.4115 23.6013C18.5665 23.6954 18.741 23.72 18.9052 23.6822C19.0691 23.6445 19.2156 23.5462 19.3129 23.3907C19.4102 23.2353 19.4348 23.0605 19.3973 22.8966C19.3588 22.7292 19.2598 22.5793 19.1085 22.4844C18.9573 22.3896 18.779 22.3657 18.6149 22.4035C18.4475 22.442 18.301 22.5403 18.2037 22.696C18.1774 22.7379 18.1228 22.7504 18.0843 22.7235C18.0724 22.7191 18.0632 22.7104 18.0575 22.7009L18.0567 22.6975C18.0525 22.6947 18.0517 22.6913 18.051 22.688C18.046 22.6818 18.0436 22.6716 18.0413 22.6615C18.0403 22.658 18.0423 22.6505 18.0408 22.6438L17.9355 21.6536C17.9293 21.6263 17.9385 21.6027 17.9557 21.5843C17.9663 21.5674 17.9852 21.556 18.0056 21.5513L19.1195 21.2953C19.1674 21.2844 19.2136 21.3132 19.2245 21.3611C19.2362 21.4122 19.2064 21.4552 19.1587 21.4661L18.1166 21.7055L18.1945 22.436C18.301 22.3359 18.4324 22.2662 18.5759 22.2334C18.7842 22.1855 19.0067 22.2135 19.2009 22.3379C19.3976 22.4581 19.5197 22.6461 19.5684 22.8579C19.6153 23.063 19.589 23.2919 19.4646 23.4858C19.3427 23.676 19.1498 23.8064 18.9447 23.8536C18.7358 23.9013 18.5094 23.8705 18.3162 23.7493Z" fill="#C7C7C7"/>
<path d="M20.2176 21.594C20.3149 21.266 20.5421 20.9871 20.9355 20.8823C20.9792 20.8687 21.0253 20.8975 21.039 20.9412C21.0499 20.9891 21.0211 21.0353 20.9774 21.0489C20.6457 21.1393 20.4731 21.3588 20.3802 21.6429C20.3303 21.8018 20.3142 21.9818 20.3194 22.1606C20.4252 21.9635 20.6127 21.8088 20.8483 21.7546C21.2891 21.6533 21.7228 21.9279 21.8227 22.3617C21.9232 22.799 21.6521 23.232 21.2113 23.3331C20.7842 23.4312 20.3581 23.1732 20.2469 22.7526C20.2283 22.7029 20.2166 22.6515 20.204 22.5969C20.1339 22.2788 20.1188 21.9153 20.2176 21.594ZM20.4108 22.7007C20.4148 22.7178 20.4215 22.7307 20.4279 22.7434C20.4302 22.7538 20.4319 22.7605 20.4299 22.7682C20.5409 23.0627 20.858 23.2383 21.1723 23.166C21.521 23.0858 21.7367 22.7414 21.6583 22.3995C21.5798 22.0578 21.2352 21.842 20.8865 21.9222C20.5449 22.0007 20.3291 22.3453 20.4078 22.687L20.4108 22.7007Z" fill="#C7C7C7"/>
<path d="M22.8481 22.8316L23.2509 20.5303L22.096 20.7958C22.0516 20.806 22.0054 20.7771 21.9952 20.7327C21.985 20.6883 22.0138 20.6421 22.0583 20.6319L23.3227 20.3414C23.339 20.3339 23.3562 20.3302 23.3746 20.3329C23.3976 20.3384 23.4195 20.3553 23.4309 20.3739C23.4366 20.3833 23.4418 20.3895 23.4441 20.3997C23.4481 20.4169 23.4476 20.4313 23.4404 20.4474L23.0202 22.8607C23.0135 22.8945 22.9877 22.922 22.9569 22.9292C22.9432 22.9322 22.9363 22.9339 22.9211 22.9302C22.876 22.9225 22.8437 22.8761 22.8481 22.8316Z" fill="#C7C7C7"/>
<path d="M24.6881 20.0169C24.9615 19.9543 25.2381 20.1244 25.3009 20.3978C25.3394 20.5651 25.2905 20.7275 25.1887 20.8479C25.4991 20.8988 25.7615 21.1337 25.8353 21.4548C25.9343 21.8854 25.6684 22.3097 25.2378 22.4085C24.8108 22.5069 24.3829 22.2417 24.2838 21.8111C24.2101 21.4898 24.3439 21.164 24.5972 20.9835C24.4564 20.919 24.3449 20.7936 24.3064 20.626C24.2439 20.3528 24.4115 20.0804 24.6881 20.0169ZM25.2001 22.2447C25.5418 22.1662 25.7489 21.8307 25.6711 21.4925C25.5942 21.1576 25.2607 20.9428 24.919 21.0213C24.5808 21.099 24.371 21.4387 24.448 21.7734C24.5259 22.1118 24.8622 22.3224 25.2001 22.2447ZM24.8798 20.8504C25.0635 20.8047 25.1792 20.6197 25.137 20.4353C25.0946 20.2508 24.9106 20.1383 24.7258 20.1807C24.5413 20.2232 24.4281 20.404 24.4706 20.5885C24.513 20.773 24.6945 20.8894 24.8798 20.8504Z" fill="#C7C7C7"/>
<path d="M28.9388 19.0389C29.349 18.9445 29.7503 19.1724 29.8849 19.5553C29.8899 19.5615 29.8906 19.5648 29.8956 19.5707C29.9142 19.6348 29.9331 19.7023 29.9497 19.7741C30.0227 20.0919 30.0354 20.4597 29.9398 20.7802C29.8409 21.1013 29.6117 21.3878 29.2219 21.4919L29.2184 21.4926C29.1708 21.5035 29.1251 21.478 29.1149 21.4335C29.104 21.3858 29.1295 21.3404 29.1765 21.326C29.5047 21.2361 29.6843 21.0149 29.7739 20.7318C29.8231 20.5694 29.8434 20.3921 29.835 20.2141C29.7289 20.411 29.54 20.5587 29.3006 20.6139C28.8666 20.7137 28.4313 20.4467 28.33 20.0058C28.2304 19.5722 28.5048 19.1387 28.9388 19.0389ZM29.7448 19.681C29.6664 19.3393 29.3259 19.1263 28.9773 19.2062C28.6357 19.2847 28.4191 19.6259 28.4976 19.9675C28.5778 20.3161 28.9207 20.525 29.2624 20.4465C29.611 20.3665 29.8248 20.0296 29.7448 19.681Z" fill="#C7C7C7"/>
<path d="M30.6134 19.913C30.5394 19.5919 30.5538 19.2791 30.6499 19.0233C30.7482 18.7777 30.9228 18.5831 31.1653 18.5272C31.4079 18.4716 31.6503 18.5706 31.8457 18.7484C32.0401 18.9376 32.1966 19.211 32.2706 19.5323C32.3443 19.8536 32.323 20.168 32.2298 20.4195C32.1325 20.6686 31.9577 20.8633 31.7151 20.9191C31.4725 20.975 31.2302 20.8759 31.0337 20.6944C30.8366 20.5092 30.6871 20.2343 30.6134 19.913ZM30.7807 19.8745C30.8483 20.1682 30.9873 20.4136 31.1527 20.5695C31.3173 20.7225 31.5058 20.7905 31.6766 20.7513C31.8474 20.712 31.9838 20.5693 32.0684 20.3592C32.1491 20.1464 32.1707 19.8643 32.1032 19.5706C32.0357 19.2766 31.8931 19.0325 31.7278 18.8763C31.5582 18.7174 31.3749 18.6551 31.2041 18.6946C31.0333 18.7338 30.892 18.8706 30.812 19.0866C30.7313 19.2997 30.7132 19.5808 30.7807 19.8745Z" fill="#C7C7C7"/>
<path d="M33.1572 18.3245L32.8647 18.6007C32.856 18.6098 32.8404 18.6205 32.8267 18.6235C32.7959 18.6307 32.7649 18.6198 32.7458 18.5992C32.7115 18.5602 32.7145 18.5093 32.7505 18.4792L33.1475 18.0931C33.1803 18.0641 33.2381 18.0651 33.2674 18.0981C33.2823 18.1162 33.2905 18.1361 33.2918 18.1574L33.7966 20.3544C33.8068 20.3989 33.7814 20.4443 33.7335 20.455C33.6891 20.4652 33.6426 20.4364 33.6325 20.3919L33.1572 18.3245Z" fill="#C7C7C7"/>
<path d="M34.3678 20.1524L35.2535 18.8876C35.3585 18.7339 35.3926 18.5536 35.3533 18.3828C35.3196 18.2358 35.2309 18.1014 35.0983 18.0096C34.9483 17.9038 34.7651 17.874 34.5977 17.9125C34.4473 17.947 34.3122 18.0322 34.2168 18.1655L34.125 18.2981C34.0986 18.3401 34.0433 18.349 34.008 18.3214C33.966 18.2951 33.9569 18.2397 33.9847 18.2045L34.0758 18.0684C34.1955 17.9006 34.371 17.7883 34.5592 17.7451C34.7676 17.6974 34.9982 17.7305 35.1919 17.8695C35.3667 17.9877 35.4747 18.1608 35.5172 18.3453C35.5659 18.5571 35.5291 18.7885 35.3945 18.9849L34.6365 20.0693L35.7675 19.8093C35.8119 19.7991 35.8579 19.8282 35.8691 19.8761C35.8792 19.9205 35.8504 19.9665 35.806 19.9766L34.4733 20.2828L34.4599 20.286C34.4358 20.2915 34.4105 20.2903 34.3926 20.2761C34.3531 20.2458 34.3412 20.1944 34.3678 20.1524Z" fill="#C7C7C7"/>
<path d="M39.3982 16.7934L38.9257 17.5709C39.0831 17.5671 39.243 17.6061 39.3861 17.6953C39.5792 17.8164 39.7059 18.0069 39.7538 18.2152C39.8017 18.4238 39.7709 18.6503 39.6465 18.8442C39.5254 19.0376 39.3359 19.1675 39.1276 19.2154C38.9225 19.2626 38.696 19.2318 38.5018 19.1074C38.4606 19.0845 38.448 19.0299 38.4743 18.988C38.4971 18.9467 38.5517 18.9341 38.594 18.9604C38.7487 19.0543 38.9235 19.0788 39.0876 19.0411C39.2515 19.0036 39.4015 18.9043 39.4995 18.7523C39.5969 18.5969 39.6207 18.4186 39.5832 18.2547C39.5455 18.0908 39.4464 17.9408 39.2915 17.8467C39.1392 17.7487 38.9612 17.7248 38.7971 17.7626C38.7698 17.769 38.7427 17.7606 38.7211 17.7442L38.7176 17.7449C38.6754 17.7186 38.6627 17.664 38.6893 17.622L39.1432 16.8739L38.2275 17.0842C38.1795 17.0951 38.1334 17.0663 38.1224 17.0184C38.1115 16.9707 38.1403 16.9243 38.1882 16.9134L39.3056 16.6566C39.3535 16.6457 39.3997 16.6745 39.4109 16.7222C39.4139 16.7358 39.4136 16.7502 39.4092 16.7621C39.4079 16.7731 39.4034 16.785 39.3982 16.7934Z" fill="#C7C7C7"/>
<path d="M41.8082 18.0828L40.5133 18.3803L40.5098 18.381L40.5028 18.3825C40.4859 18.3865 40.4646 18.3877 40.4477 18.3771C40.4038 18.3584 40.3879 18.3046 40.411 18.2633L41.399 16.2233L41.4017 16.219C41.4238 16.1746 41.471 16.1599 41.5157 16.182C41.5318 16.1892 41.5425 16.2049 41.5524 16.2168C41.5539 16.2238 41.5581 16.2262 41.5589 16.2297L41.5611 16.2399L41.938 17.88L42.0987 17.843C42.1466 17.8318 42.1928 17.8608 42.2032 17.9053C42.2134 17.9497 42.1844 17.9959 42.1364 18.0068L41.9758 18.0438L42.0699 18.454C42.0801 18.4985 42.0513 18.5444 42.0033 18.5556C41.9589 18.5658 41.9127 18.537 41.9023 18.4925L41.8082 18.0828ZM41.7704 17.9189L41.4486 16.518L40.6394 18.1787L41.7704 17.9189Z" fill="#C7C7C7"/>
<path d="M42.8162 18.121C42.774 18.0949 42.7616 18.04 42.7887 18.0013C42.815 17.9593 42.8696 17.9469 42.9116 17.973C43.0665 18.0671 43.2411 18.0917 43.4052 18.0539C43.5693 18.0162 43.7158 17.9178 43.8129 17.7624C43.9103 17.607 43.9348 17.4322 43.8973 17.268C43.8589 17.1007 43.7598 16.9507 43.6086 16.8558C43.4573 16.761 43.2791 16.7371 43.1149 16.7749C42.9476 16.8134 42.8013 16.9117 42.7037 17.0674C42.6774 17.1094 42.6228 17.122 42.5843 17.095C42.5724 17.0905 42.5632 17.0818 42.5575 17.0726L42.5567 17.0691C42.5525 17.0664 42.5518 17.0632 42.551 17.0597C42.5461 17.0535 42.5436 17.0433 42.5413 17.0331C42.5404 17.0297 42.5423 17.0222 42.5408 17.0153L42.4356 16.025C42.4294 15.9977 42.4383 15.9739 42.4554 15.9555C42.4661 15.9388 42.485 15.9272 42.5056 15.9225L43.6195 15.6665C43.6674 15.6553 43.7136 15.6843 43.7245 15.732C43.7362 15.7832 43.7066 15.8261 43.6587 15.8373L42.6166 16.0767L42.6943 16.8069C42.8008 16.7069 42.9322 16.6371 43.0757 16.6041C43.284 16.5561 43.5065 16.5842 43.7007 16.7086C43.8973 16.8288 44.0195 17.0167 44.0682 17.2285C44.1151 17.4336 44.0888 17.6626 43.9644 17.8568C43.8422 18.047 43.6495 18.1776 43.4444 18.2245C43.2361 18.2727 43.0094 18.2419 42.8162 18.121Z" fill="#C7C7C7"/>
<path d="M44.7178 15.9631C44.8151 15.6351 45.0423 15.356 45.4354 15.2514C45.4791 15.2378 45.5255 15.2668 45.5389 15.3103C45.5498 15.3582 45.521 15.4044 45.4773 15.4181C45.1456 15.5087 44.973 15.7279 44.8802 16.0123C44.8302 16.1712 44.8141 16.3512 44.8191 16.53C44.9249 16.3331 45.1123 16.1784 45.3482 16.1242C45.789 16.0229 46.2225 16.2973 46.3223 16.7314C46.4229 17.1686 46.1517 17.6017 45.711 17.703C45.2839 17.8011 44.8578 17.5428 44.7466 17.1222C44.7279 17.0725 44.7163 17.0214 44.7036 16.9667C44.6341 16.6482 44.6187 16.2844 44.7178 15.9631ZM44.9107 17.07C44.9147 17.0872 44.9214 17.1001 44.9278 17.1128C44.9301 17.1232 44.9318 17.1299 44.9298 17.1378C45.0408 17.4323 45.3579 17.6076 45.6723 17.5356C46.0209 17.4554 46.2366 17.1108 46.1582 16.7691C46.0797 16.4274 45.7351 16.2116 45.3865 16.2919C45.0448 16.3703 44.829 16.715 44.9077 17.0566L44.9107 17.07Z" fill="#C7C7C7"/>
<path d="M31.2551 25.3426L10.3965 30.1367L10.6321 31.1618L31.4907 26.3677L31.2551 25.3426Z" fill="#C7C7C7"/>
<path d="M25.6882 29.018L10.9209 32.4121L11.1565 33.4372L25.9238 30.0431L25.6882 29.018Z" fill="#C7C7C7"/>
<path d="M34.8816 6.45664L24.4785 8.84766L24.7141 9.87276L35.1172 7.48175L34.8816 6.45664Z" fill="#C7C7C7"/>
<path d="M43.4914 9.11435C43.412 9.06394 43.3322 9.01329 43.2525 8.96288C43.2071 8.93408 43.1617 8.90577 43.1157 8.87721C43.5066 8.23534 43.6367 7.54778 43.4703 6.81478C43.3042 6.08178 42.8905 5.51738 42.2568 5.1042C42.2854 5.06125 42.3149 5.01779 42.3432 4.97335C42.3937 4.89463 42.4436 4.81517 42.4935 4.73621C42.4947 4.73448 42.495 4.73174 42.4955 4.72951C42.4969 4.72901 42.4987 4.72876 42.5002 4.72852C42.5051 4.73249 42.5101 4.73646 42.5151 4.74019C42.6069 4.80599 42.7011 4.86906 42.7904 4.93784C42.9754 5.08037 43.1386 5.24599 43.2851 5.42725C43.4586 5.64179 43.6036 5.87445 43.7124 6.12797C43.7638 6.2479 43.8045 6.37255 43.8487 6.49546C43.8639 6.53743 43.9284 6.81727 43.9297 6.82596C43.9428 6.91361 43.9587 7.00077 43.9689 7.08891C43.9975 7.33374 43.9922 7.57832 43.9607 7.82266C43.9381 7.99945 43.8996 8.17302 43.8472 8.34336C43.7919 8.52338 43.7221 8.69744 43.6347 8.86405C43.5905 8.94823 43.5421 9.03017 43.4956 9.11311C43.4946 9.1136 43.4932 9.1141 43.4914 9.11435Z" fill="white"/>
<path d="M41.7842 5.86524C41.8634 5.73836 41.9409 5.61421 42.0208 5.48633C42.4467 5.75996 42.761 6.12671 42.9383 6.60122C43.2035 7.31038 43.1238 7.98925 42.7407 8.63634C42.612 8.55489 42.4874 8.47593 42.361 8.39598C42.6212 7.96889 42.7091 7.5058 42.5969 7.01192C42.4847 6.51903 42.2056 6.14012 41.7842 5.86524Z" fill="white"/>
<path d="M41.981 8.15535C41.8559 8.07639 41.7307 7.99768 41.6036 7.91748C41.7362 7.69996 41.7829 7.46183 41.725 7.20807C41.6672 6.95504 41.5231 6.76087 41.3076 6.62107C41.3873 6.49468 41.466 6.36954 41.545 6.24414C42.169 6.6171 42.4098 7.4884 41.981 8.15535Z" fill="white"/>
<path d="M0.958984 98.9735L21.0892 98.9132L41.2193 98.8911L81.4797 98.8496L121.74 98.8908L141.87 98.9127L162 98.9735L141.87 99.0341L121.74 99.056L81.4797 99.0974L41.2193 99.0557L21.0892 99.0338L0.958984 98.9735Z" fill="#263238"/>
<path d="M11.7736 57.4826C11.7736 57.4826 5.93224 56.6649 7.29767 49.6133C7.29767 49.6133 13.8242 51.0783 11.7736 57.4826Z" fill="#E74C3C"/>
<path opacity="0.1" d="M11.7736 57.4826C11.7736 57.4826 5.93224 56.6649 7.29767 49.6133C7.29767 49.6133 13.8242 51.0783 11.7736 57.4826Z" fill="black"/>
<path d="M11.4785 56.0097C11.3643 55.6531 11.2299 55.3027 11.0807 54.9586C11.0762 54.9136 11.0695 54.8684 11.0656 54.8252C11.0569 54.7281 11.0489 54.6311 11.0415 54.534C11.0251 54.3237 11.0117 54.1129 10.9993 53.9023C10.9744 53.4812 10.9474 53.0595 10.9412 52.6377C10.9409 52.6148 10.9057 52.6156 10.9054 52.6387C10.9017 53.061 10.8955 53.4824 10.9116 53.9045C10.9198 54.1153 10.932 54.3259 10.9459 54.5362C10.9489 54.5831 10.9526 54.6298 10.9558 54.6765C10.6293 53.9738 10.2342 53.3021 9.78455 52.6737C9.58392 52.3931 9.37261 52.1234 9.14591 51.8637C8.913 51.5973 8.66693 51.3435 8.43153 51.0798C8.41639 51.0627 8.39106 51.089 8.40695 51.1056C8.83652 51.5536 9.1916 52.0854 9.53277 52.6022C9.71006 52.8708 9.87767 53.1467 10.0373 53.4268C10.0192 53.4196 10.0008 53.4129 9.98295 53.4054C9.91367 53.3769 9.84464 53.3481 9.77462 53.3213C9.61595 53.2602 9.45704 53.1998 9.29763 53.1407C8.98426 53.0245 8.6704 52.9101 8.35804 52.7911C8.33941 52.7839 8.32625 52.8167 8.34512 52.8241C8.65575 52.948 8.96316 53.0789 9.27006 53.2112C9.42079 53.2763 9.57176 53.3409 9.72248 53.4059C9.79796 53.4384 9.87444 53.4692 9.95067 53.5C10.0018 53.5209 10.052 53.5462 10.1056 53.5547C10.2236 53.7662 10.3403 53.9783 10.4475 54.1948C10.7179 54.7403 10.9583 55.3037 11.1614 55.8776C11.1758 55.9178 11.1895 55.9583 11.2036 55.9987C11.0594 55.9014 10.8754 55.8378 10.7249 55.7681C10.524 55.6749 10.3216 55.5848 10.1205 55.4924C9.71106 55.3042 9.30383 55.1135 8.91126 54.8915C8.89115 54.8801 8.87402 54.9119 8.89413 54.9228C9.29564 55.1421 9.68871 55.3755 10.091 55.5937C10.2918 55.7028 10.494 55.8088 10.6998 55.9086C10.8687 55.9903 11.0589 56.1043 11.2486 56.1284C11.4313 56.6677 11.5845 57.2137 11.6315 57.785C11.6968 58.5824 11.6893 59.3864 11.7079 60.1857C11.7082 60.1996 11.728 60.1986 11.7293 60.1852C11.7874 59.4601 11.8202 58.7284 11.8236 58.0006C11.8264 57.3095 11.6883 56.6659 11.4785 56.0097Z" fill="#263238"/>
<path d="M10.5794 51.8648C10.5337 52.2752 10.4927 52.6956 10.521 53.1083C10.5218 53.1197 10.5382 53.1192 10.5389 53.1078C10.5623 52.6954 10.566 52.2842 10.6139 51.8732C10.6164 51.8509 10.5819 51.8422 10.5794 51.8648Z" fill="#263238"/>
<path d="M8.90886 52.2176C8.65013 52.1079 8.39313 52.0048 8.15749 51.8486C8.13862 51.836 8.12074 51.8675 8.14036 51.8799C8.37625 52.0269 8.62878 52.1705 8.89918 52.2425C8.91358 52.2462 8.92302 52.2236 8.90886 52.2176Z" fill="#263238"/>
<path d="M11.9596 68.6788C11.9549 68.0332 11.9427 67.3878 11.935 66.7422C11.9229 64.5986 11.9052 62.455 11.8668 60.3111C11.8362 58.6092 11.796 56.9081 11.7478 55.2064C11.7476 55.1967 11.7414 55.1898 11.7329 55.1846C11.7307 54.72 11.7285 54.2552 11.7257 53.7906C11.7257 53.7787 11.7118 53.7732 11.6979 53.7734C11.6838 53.7737 11.6699 53.7797 11.6699 53.7916C11.6669 54.2571 11.6639 54.7227 11.6612 55.188C11.6542 55.1933 11.648 55.1992 11.6478 55.2082C11.5618 58.2367 11.4851 61.2661 11.4672 64.2954C11.4635 64.9112 11.464 65.5273 11.4613 66.1431C11.4407 68.1181 11.4315 70.0931 11.4387 72.0684C11.4367 72.3827 11.4327 72.6974 11.4317 73.0117C11.4253 74.8186 11.4503 76.6258 11.4511 78.4327C11.4511 78.5301 11.5591 78.5782 11.6738 78.583C11.8047 78.5882 11.9445 78.536 11.9445 78.4248C11.9452 76.4319 11.9581 74.4392 11.9579 72.4466C11.9643 71.1906 11.9691 69.9347 11.9596 68.6788Z" fill="#263238"/>
<path d="M9.52008 66.716C9.52008 66.716 6.7105 64.6342 4.04394 66.0406C1.37738 67.447 0.958984 72.8692 0.958984 72.8692C0.958984 72.8692 4.87477 73.4292 7.34045 71.0824C9.71699 68.8209 9.52008 66.716 9.52008 66.716Z" fill="#E74C3C"/>
<path d="M10.2867 66.8433C9.77817 66.6298 9.21204 66.5769 8.65906 66.631C8.54707 66.6059 8.42813 66.6057 8.31466 66.5975C8.18281 66.5881 8.05071 66.5781 7.91886 66.5677C7.64597 66.5463 7.37258 66.5302 7.0997 66.5098C6.54548 66.4684 5.98952 66.4346 5.43629 66.379C5.41643 66.377 5.41246 66.4115 5.43257 66.414C5.97984 66.484 6.52487 66.5617 7.07412 66.6174C7.35645 66.6459 7.63902 66.675 7.92209 66.6953C7.98863 66.7 8.05766 66.7075 8.12768 66.7154C8.04376 66.7343 7.96033 66.7542 7.87839 66.7773C7.43789 66.9022 7.01304 67.0809 6.60532 67.2947C6.38383 67.3345 6.16408 67.3963 5.94681 67.4474C5.59918 67.5291 5.25305 67.619 4.90765 67.7097C4.22531 67.8884 3.55016 68.0893 2.87328 68.2865C2.85118 68.2929 2.86136 68.3262 2.88371 68.3207C3.56034 68.1549 4.24045 68.0027 4.91808 67.8415C5.24758 67.763 5.57733 67.6858 5.90609 67.6049C5.99101 67.5838 6.07767 67.5646 6.16433 67.5453C5.40774 68.0111 4.72713 68.6088 4.1672 69.2814C3.60827 69.9531 3.16305 70.6881 2.77942 71.4703C2.76949 71.4904 2.79779 71.5097 2.80946 71.4894C3.26362 70.6938 3.83472 69.9444 4.48901 69.2849C4.47684 69.3222 4.46418 69.3597 4.45226 69.3971C4.39987 69.5625 4.34822 69.7279 4.29607 69.8935C4.19203 70.2243 4.08675 70.5547 3.98793 70.8872C3.98122 70.9096 4.01474 70.9168 4.02244 70.8959C4.14088 70.5754 4.25312 70.2526 4.36634 69.9303C4.42197 69.7721 4.47758 69.6139 4.53321 69.4557C4.56201 69.3738 4.58982 69.2916 4.61738 69.2092C4.62582 69.1838 4.636 69.1588 4.64445 69.1337C4.96004 68.8285 5.29178 68.5422 5.6409 68.2845C6.10175 67.9443 6.60507 67.657 7.13247 67.4296C7.12279 67.4782 7.11385 67.5272 7.10392 67.5733C7.07636 67.7015 7.0478 67.8293 7.02123 67.9577C6.96636 68.2237 6.91471 68.4903 6.86256 68.757C6.75679 69.3008 6.69123 69.8513 6.58918 70.3953C6.58496 70.4177 6.61873 70.4264 6.62369 70.404C6.74959 69.8573 6.91223 69.3192 7.0339 68.7709C7.09473 68.4968 7.15656 68.2229 7.21367 67.948C7.24024 67.8197 7.26581 67.691 7.29164 67.5627C7.30604 67.4912 7.32292 67.4194 7.33112 67.3476C7.38227 67.3273 7.43218 67.3037 7.48358 67.2848C8.2208 67.0119 9.03549 66.8138 9.82138 66.9645C10.573 67.1088 11.2174 67.6131 11.5123 68.3195C11.5379 68.3806 11.6343 68.3423 11.6201 68.28C11.4676 67.6041 10.904 67.1028 10.2867 66.8433Z" fill="#263238"/>
<path d="M5.98536 69.1597C5.9059 69.5155 5.82694 69.8716 5.74822 70.2277C5.67323 70.5676 5.58037 70.919 5.55181 71.2663C5.55057 71.2802 5.57068 71.2803 5.57466 71.2688C5.68938 70.9341 5.745 70.5691 5.81328 70.2225C5.88256 69.8711 5.95134 69.5195 6.01987 69.1682C6.02409 69.1458 5.99032 69.1371 5.98536 69.1597Z" fill="#263238"/>
<path d="M3.2679 70.0615C2.91034 70.243 2.56321 70.4491 2.18976 70.5978C2.16592 70.6073 2.18107 70.6418 2.20441 70.6301C2.56421 70.4506 2.93666 70.2919 3.2766 70.0751C3.28504 70.0697 3.27709 70.057 3.2679 70.0615Z" fill="#263238"/>
<path d="M10.1511 62.8949C10.1511 62.8949 6.71725 63.1139 5.1199 60.8496C3.52255 58.585 3.8811 55.3516 3.8811 55.3516C3.8811 55.3516 7.488 55.7898 8.92047 57.416C10.353 59.0419 10.1511 62.8949 10.1511 62.8949Z" fill="#E74C3C"/>
<path d="M11.7625 66.2825C11.6436 65.9145 11.4961 65.5522 11.3575 65.1912C11.2242 64.8446 11.0814 64.5017 10.9304 64.1625C10.6218 63.4704 10.2816 62.7948 9.90119 62.1393C9.65885 61.7219 9.39937 61.3171 9.13194 60.9179C9.12648 60.857 9.11431 60.7962 9.10512 60.7348C9.08923 60.6286 9.07384 60.5223 9.0572 60.416C9.02318 60.1988 8.98519 59.9817 8.94894 59.7647C8.86973 59.2907 8.77215 58.8197 8.69666 58.3449C8.69318 58.3228 8.65768 58.3231 8.6609 58.3459C8.73018 58.8142 8.77736 59.2857 8.84291 59.7548C8.87519 59.9852 8.90524 60.2159 8.94025 60.4458C8.95291 60.529 8.96607 60.6119 8.97923 60.6951C8.45456 59.9308 7.89016 59.1949 7.28057 58.4917C7.19838 58.3968 7.11371 58.3044 7.02978 58.2111C7.02134 58.185 7.00818 58.1592 6.998 58.1326C6.97267 58.0673 6.94784 58.0017 6.92351 57.9359C6.8731 57.7999 6.82369 57.6631 6.77477 57.5265C6.67843 57.2576 6.59202 56.9862 6.51902 56.7101C6.51306 56.6877 6.47953 56.6981 6.48475 56.7205C6.55403 57.0023 6.62728 57.2836 6.70972 57.562C6.74944 57.6966 6.79364 57.8292 6.84107 57.961C6.84902 57.9831 6.85746 58.0052 6.8654 58.0273C6.4264 57.5488 5.96877 57.0877 5.50618 56.6321C5.48979 56.616 5.4657 56.6415 5.48159 56.6579C6.37897 57.5766 7.17206 58.5912 7.91474 59.6383C7.83082 59.6115 7.7449 59.5902 7.66048 59.5738C7.39603 59.5226 7.12935 59.4851 6.86242 59.4511C6.30274 59.3801 5.74505 59.3093 5.18785 59.2214C5.1655 59.2179 5.15656 59.2515 5.17916 59.2559C5.71128 59.361 6.23843 59.4807 6.76707 59.6021C7.01637 59.6594 7.26667 59.7081 7.5177 59.7575C7.72678 59.7987 7.92095 59.8626 8.12059 59.9293C8.17596 60.0088 8.23357 60.087 8.28844 60.167C8.54048 60.534 8.78208 60.9079 9.01896 61.2851C8.90226 61.2618 8.78531 61.2394 8.6686 61.2166C8.40341 61.1652 8.13723 61.117 7.87079 61.0733C7.34712 60.9871 6.82294 60.8963 6.30522 60.7783C6.28288 60.7733 6.27419 60.8076 6.29653 60.8128C6.8217 60.936 7.3419 61.08 7.8631 61.2188C8.11438 61.2856 8.36815 61.3472 8.62192 61.4033C8.74905 61.4314 8.87619 61.4597 9.00382 61.4857C9.05869 61.4969 9.10984 61.5113 9.15851 61.5123C9.66009 62.3257 10.1311 63.1583 10.5667 64.0078C10.7583 64.3815 10.9423 64.7589 11.1211 65.1388C11.3049 65.5287 11.4618 65.9267 11.6311 66.3225C11.6649 66.4014 11.7903 66.3689 11.7625 66.2825Z" fill="#263238"/>
<path d="M8.24742 58.3913C8.18186 58.0638 8.11283 57.737 8.04033 57.411C8.03536 57.3884 8.00159 57.3991 8.00631 57.4214C8.07137 57.7432 8.13344 58.0655 8.19179 58.3886C8.24965 58.7091 8.29633 59.0374 8.38671 59.3507C8.38845 59.3564 8.39739 59.3552 8.39714 59.349C8.37951 59.0277 8.31049 58.7059 8.24742 58.3913Z" fill="#263238"/>
<path d="M6.24463 58.2947C6.08522 58.2155 5.91687 58.1511 5.75125 58.0868C5.66434 58.0531 5.57743 58.0193 5.49077 57.9848C5.44658 57.9672 5.40238 57.9495 5.35818 57.9316C5.31125 57.9128 5.25364 57.8986 5.21317 57.8681C5.18734 57.8487 5.17071 57.8939 5.19653 57.8984C5.24719 57.9068 5.2966 57.9376 5.34328 57.9585C5.38648 57.9778 5.42994 57.9972 5.47314 58.0166C5.55658 58.0538 5.64026 58.0913 5.72369 58.1283C5.88931 58.2016 6.05791 58.2751 6.23073 58.3292C6.25134 58.3354 6.2635 58.3041 6.24463 58.2947Z" fill="#263238"/>
<path d="M13.666 60.1921C13.666 60.1921 15.7443 56.31 18.906 55.7089C22.0675 55.1077 24.0025 58.3608 24.0025 58.3608C24.0025 58.3608 21.6965 61.3057 18.795 61.8199C15.8938 62.3339 13.666 60.1921 13.666 60.1921Z" fill="#E74C3C"/>
<path d="M21.0247 57.448C20.2055 57.3355 19.3665 57.3486 18.5451 57.4773C18.5925 57.4512 18.6394 57.4251 18.6861 57.4018C18.9208 57.2828 19.1542 57.1619 19.3876 57.0405C19.873 56.788 20.3637 56.519 20.872 56.3157C20.8958 56.3062 20.8811 56.2725 20.8573 56.2834C20.3627 56.5138 19.8502 56.7068 19.3541 56.935C19.106 57.0489 18.8619 57.1679 18.6206 57.296C18.4646 57.3787 18.2918 57.4569 18.1386 57.5557C17.4441 57.6982 16.7657 57.919 16.1291 58.2234C16.2609 58.0799 16.393 57.9369 16.5244 57.7928C16.8188 57.4703 17.1086 57.1316 17.4327 56.8376C17.4498 56.8222 17.4237 56.7976 17.4068 56.813C17.0758 57.1135 16.7267 57.3916 16.4057 57.7042C16.25 57.8557 16.101 58.0129 15.9557 58.1745C15.8835 58.255 15.811 58.3384 15.7422 58.4245C14.3673 59.1719 13.1976 60.3 12.4261 61.6634C11.9876 62.4384 11.6814 63.2764 11.5034 64.1482C11.4989 64.1701 11.5304 64.1823 11.5371 64.1597C11.9712 62.6942 12.7906 61.3171 13.8613 60.2265C15.0229 59.0436 16.4898 58.1889 18.0971 57.776C19.0514 57.5306 20.0379 57.4455 21.0204 57.5105C21.0609 57.5128 21.0641 57.4532 21.0247 57.448Z" fill="#263238"/>
<path opacity="0.1" d="M24.0036 58.363C24.0036 58.363 21.6971 61.3084 18.7949 61.8217C16.5818 62.2142 14.7612 61.0596 14.022 60.4915L13.8623 60.229C13.8623 60.229 15.3591 58.9674 18.1903 58.2396C21.0215 57.5118 24.0036 58.363 24.0036 58.363Z" fill="black"/>
<path d="M19.1884 56.0634C18.9483 56.2096 18.7097 56.3554 18.4862 56.5267C18.2662 56.6953 18.0618 56.8785 17.8763 57.0846C17.86 57.103 17.8855 57.1261 17.9034 57.1105C18.1132 56.9282 18.3243 56.7457 18.5421 56.5731C18.7561 56.4035 18.9739 56.2357 19.207 56.0936C19.2269 56.0817 19.208 56.0512 19.1884 56.0634Z" fill="#263238"/>
<path d="M20.9236 56.7222C20.8064 56.7711 20.6868 56.813 20.5698 56.8617C20.4526 56.9104 20.3351 56.9591 20.2179 57.008C20.1929 57.0184 20.2048 57.0594 20.2304 57.0489C20.3481 57.0013 20.4655 56.9536 20.5832 56.9059C20.7012 56.858 20.8161 56.8041 20.9341 56.7564C20.9549 56.7477 20.9447 56.7132 20.9236 56.7222Z" fill="#263238"/>
<path d="M13.2529 65.0817C13.2529 65.0817 13.8084 68.9325 16.7039 70.2795C19.5994 71.6266 23.1298 70.2795 23.1298 70.2795C23.1298 70.2795 21.7415 61.9481 13.2529 65.0817Z" fill="#E74C3C"/>
<path d="M21.1347 67.7746C20.8675 67.7443 20.6021 67.6986 20.3376 67.6505C20.2077 67.6266 20.0781 67.6023 19.9485 67.577C19.8827 67.5641 19.8142 67.5482 19.7454 67.5362C19.6674 67.4635 19.5907 67.3895 19.5107 67.3192C18.9625 66.8363 18.368 66.408 17.7398 66.0355C17.3977 65.8326 17.0428 65.6509 16.6786 65.4902C16.6967 65.491 16.7148 65.4919 16.7332 65.4927C17.0508 65.5064 17.3686 65.5193 17.6862 65.5342C18.3219 65.5637 18.9573 65.5776 19.5924 65.6188C19.6153 65.6203 19.6143 65.5848 19.5914 65.5833C18.9538 65.5401 18.3199 65.4701 17.6832 65.4152C17.3743 65.3887 17.0659 65.3606 16.757 65.3328C16.5981 65.3184 16.439 65.305 16.28 65.2913C16.2393 65.2878 16.1986 65.2829 16.1579 65.2782C15.9927 65.2166 15.8264 65.1582 15.658 65.1061C14.8662 64.8603 14.017 64.7629 13.2053 64.9708C12.4767 65.1572 11.7499 65.6347 11.5612 66.4027C11.5548 66.4293 11.596 66.4477 11.6072 66.4209C11.8788 65.779 12.5912 65.4562 13.2341 65.3226C13.6664 65.2327 14.1088 65.2377 14.5454 65.297C14.5632 65.4942 14.6377 65.697 14.6916 65.8791C14.7718 66.15 14.8508 66.4214 14.9327 66.6918C15.0969 67.2326 15.2779 67.7684 15.4378 68.3102C15.4442 68.3323 15.4775 68.3221 15.4718 68.2998C15.3375 67.7595 15.2237 67.214 15.0936 66.6724C15.0296 66.4065 14.9628 66.1413 14.897 65.8758C14.8548 65.7057 14.8193 65.5049 14.751 65.3283C15.0055 65.373 15.2573 65.4333 15.5026 65.5054C15.9473 65.636 16.3858 65.7986 16.8149 65.9861C16.8573 66.2607 16.9187 66.5328 16.9818 66.8032C17.061 67.1432 17.1494 67.4801 17.2569 67.8124C17.2638 67.8335 17.2936 67.8235 17.2894 67.8024C17.2852 67.7816 17.2807 67.7605 17.2765 67.7396C17.2762 67.7391 17.276 67.7391 17.2757 67.7386C17.2109 67.4238 17.1414 67.1099 17.0749 66.7953C17.0212 66.5418 16.9721 66.2868 16.9169 66.0337C17.2767 66.1954 17.6303 66.3719 17.9722 66.5684C17.9792 66.6468 17.9986 66.727 18.0097 66.7985C18.0306 66.9306 18.0547 67.0622 18.0788 67.1936C18.1334 67.4906 18.1925 67.7868 18.2638 68.0803C18.4008 68.6454 18.5545 69.2108 18.7616 69.7549C18.7574 69.7613 18.7557 69.7698 18.7621 69.7772C18.7676 69.7837 18.773 69.7901 18.7785 69.7963C18.7909 69.811 18.8115 69.7939 18.8078 69.7782C18.6737 69.2076 18.5208 68.6417 18.3954 68.0689C18.3328 67.7831 18.2697 67.497 18.2124 67.21C18.1836 67.0665 18.1575 66.9227 18.1302 66.7789C18.1225 66.7387 18.1168 66.6945 18.1101 66.6503C18.5009 66.8815 18.8793 67.1318 19.2376 67.4024C19.8554 67.8687 20.4474 68.4013 20.9636 68.9779C20.9842 69.001 21.0252 68.9685 21.006 68.9434C20.7851 68.6531 20.5656 68.3693 20.3158 68.1014C20.1703 67.9452 20.019 67.7945 19.8648 67.6467C19.8807 67.6495 19.8974 67.6525 19.9128 67.6552C20.0483 67.678 20.1844 67.6981 20.3207 67.7163C20.5884 67.752 20.8573 67.7784 21.1255 67.8089C21.1486 67.8119 21.1573 67.7774 21.1347 67.7746Z" fill="#263238"/>
<path d="M19.0988 69.0798C19.0943 69.0463 19.0886 69.0128 19.0821 68.98C19.0737 68.9373 19.0531 68.8968 19.0471 68.8541C19.0471 68.8534 19.0464 68.8534 19.0461 68.8526C18.9863 68.5954 18.9361 68.3361 18.8897 68.0757C18.8865 68.0575 18.8577 68.063 18.8584 68.0806C18.8708 68.4245 18.956 68.7657 19.0787 69.0858C19.0826 69.0959 19.1008 69.095 19.0993 69.0825C19.099 69.0818 19.099 69.0808 19.0988 69.0798Z" fill="#263238"/>
<path d="M16.676 69.0175C16.6752 69.0068 16.667 69.0016 16.6588 69.0013C16.5776 68.6604 16.4994 68.3192 16.4292 67.9756C16.3922 67.7951 16.3544 67.6148 16.3199 67.4338C16.3013 67.3364 16.2834 67.2388 16.266 67.1413C16.2511 67.0571 16.2437 66.9672 16.2037 66.891C16.197 66.8781 16.1734 66.881 16.1712 66.8959C16.1471 67.0576 16.2136 67.2537 16.2437 67.4127C16.2792 67.6006 16.3157 67.7886 16.3569 67.9753C16.4408 68.3552 16.5362 68.7336 16.6432 69.1076C16.6492 69.1287 16.6832 69.124 16.6817 69.1014C16.6797 69.0733 16.6777 69.0453 16.676 69.0175Z" fill="#263238"/>
<path d="M20.8711 66.6666C20.3422 66.5941 19.8138 66.5176 19.2837 66.4533C19.2613 66.4505 19.2521 66.4846 19.275 66.4878C19.8031 66.5658 20.333 66.6313 20.8624 66.7011C20.8847 66.7043 20.8937 66.6698 20.8711 66.6666Z" fill="#263238"/>
<path d="M11.7695 56.0482C11.7695 56.0482 9.99783 48.2744 18.3501 45.1289C18.3501 45.1289 20.6643 55.3611 11.7695 56.0482Z" fill="#E74C3C"/>
<path d="M13.5727 51.6382C13.604 51.6183 13.6343 51.5989 13.6624 51.5835C13.8203 51.4966 13.9772 51.4077 14.1344 51.3198L15.1033 50.778C15.7407 50.4215 16.3701 50.0507 17.0118 49.7016C17.0319 49.6907 17.0133 49.6604 16.9931 49.6713C16.3503 50.0209 15.696 50.3485 15.0489 50.6901L14.0914 51.1962C13.9611 51.265 13.8307 51.3337 13.7004 51.4028C13.979 50.8744 14.2767 50.3562 14.6037 49.8573C15.0402 49.1916 15.5185 48.5572 16.0166 47.9367C16.0394 47.9084 16.0022 47.8716 15.9753 47.8974C15.2386 48.6021 14.601 49.4086 14.0443 50.265C14.045 50.2377 14.0455 50.2102 14.0467 50.1841C14.0562 49.9907 14.0611 49.7972 14.0641 49.6038C14.0696 49.2244 14.0515 48.8442 14.0629 48.4656C14.0636 48.4425 14.0281 48.4435 14.0271 48.4663C14.0115 48.8398 13.9665 49.212 13.9454 49.5852C13.9348 49.7716 13.9268 49.9576 13.9213 50.1444C13.9184 50.2452 13.9087 50.3599 13.9124 50.4704C13.7403 50.744 13.5752 51.0219 13.419 51.3034C13.1407 51.805 12.8916 52.3302 12.6724 52.8688C12.6642 52.6751 12.6523 52.4817 12.6408 52.2882C12.6158 51.8626 12.5641 51.4388 12.546 51.0129C12.545 50.9901 12.5097 50.9908 12.5102 51.0137C12.5192 51.4395 12.4993 51.8654 12.5125 52.2912C12.5192 52.504 12.5256 52.7166 12.5395 52.9291C12.5447 53.0071 12.5487 53.0868 12.5542 53.1665C12.288 53.8642 12.0742 54.5821 11.9235 55.3027C11.7606 56.0814 11.6943 56.8613 11.6123 57.6502C11.6116 57.6559 11.6205 57.6556 11.6213 57.6499C11.6945 56.9467 11.8728 56.2363 12.0645 55.5567C12.1681 55.1899 12.2768 54.8247 12.3945 54.4626C12.7421 54.299 13.0746 54.0947 13.4103 53.9087C13.7587 53.7155 14.1093 53.5268 14.4584 53.3351C15.1549 52.9532 15.8507 52.5641 16.5698 52.2264C16.5906 52.2167 16.5715 52.1867 16.5512 52.1961C15.8226 52.5259 15.0889 52.8397 14.3743 53.1988C14.0182 53.3775 13.6681 53.5685 13.3212 53.7642C13.0314 53.9275 12.7332 54.0912 12.4561 54.2792C12.5373 54.0373 12.6215 53.7964 12.7141 53.5581C12.9674 52.905 13.2537 52.2632 13.5727 51.6382Z" fill="#263238"/>
<path d="M12.8678 49.8624C12.8661 49.8396 12.8306 49.8403 12.8321 49.8634C12.8621 50.3069 12.877 50.7501 12.924 51.1924C12.9267 51.2172 12.9642 51.217 12.9632 51.1914C12.948 50.7469 12.9004 50.3057 12.8678 49.8624Z" fill="#263238"/>
<path d="M16.8734 51.3471C16.3504 51.5577 15.823 51.7575 15.3031 51.9753C15.2884 51.9813 15.2951 52.0049 15.3103 51.9991C15.8382 51.8015 16.3589 51.5862 16.8838 51.3814C16.9049 51.3729 16.8947 51.3384 16.8734 51.3471Z" fill="#263238"/>
<path d="M17.6666 47.7596C17.1556 47.9965 16.6598 48.2587 16.1813 48.5565C16.1569 48.5716 16.1798 48.6089 16.2046 48.5945C16.6891 48.3111 17.1825 48.0395 17.6853 47.7899C17.7061 47.7798 17.6873 47.7502 17.6666 47.7596Z" fill="#263238"/>
<path d="M17.5395 72.8574H5.49414V85.5538H17.5395V72.8574Z" fill="#455A64"/>
<path d="M5.28231 77.3496H4.66602V99.097H5.28231V77.3496Z" fill="#263238"/>
<path d="M18.3048 77.3496H17.6885V99.097H18.3048V77.3496Z" fill="#263238"/>
<path d="M12.1212 77.3496H11.5049V99.097H12.1212V77.3496Z" fill="#263238"/>
<path d="M17.9965 84.7383H4.97461V86.4963H17.9965V84.7383Z" fill="#263238"/>
<path d="M157.554 93.4297H5.40723V98.9711H157.554V93.4297Z" fill="#C7C7C7"/>
<path d="M144.067 9.69727H18.8926V93.4301H144.067V9.69727Z" fill="#DBDBDB"/>
<path d="M143.158 10.7188H19.8027V92.4087H143.158V10.7188Z" fill="#263238"/>
<path d="M137.696 15.9707H25.2646V87.1588H137.696V15.9707Z" fill="white"/>
<path d="M155.839 19.4342H7.12207L18.6015 9.66211H143.894L155.839 19.4342Z" fill="#E74C3C"/>
<path d="M39.5161 9.66016L30.0022 19.4337H18.5625L28.9501 9.66016H39.5161Z" fill="#EBEBEB"/>
<path d="M59.7614 9.66016L52.8821 19.4337H41.4424L49.6184 9.66016H59.7614Z" fill="#EBEBEB"/>
<path d="M76.9474 9.66016L75.761 19.4337H64.3213L67.9696 9.66016H76.9474Z" fill="#EBEBEB"/>
<path d="M132.96 19.4337L123.087 9.66016H133.653L144.4 19.4337H132.96Z" fill="#EBEBEB"/>
<path d="M110.081 19.4337L103.979 9.66016H113.288L121.521 19.4337H110.081Z" fill="#EBEBEB"/>
<path d="M87.2 19.4337L85.5225 9.66016H94.5044L98.64 19.4337H87.2Z" fill="#EBEBEB"/>
<path d="M12.8418 25.2231C9.68285 25.2231 7.12207 22.6623 7.12207 19.5031V19.4336H18.5618V19.5031C18.5615 22.6621 16.0008 25.2231 12.8418 25.2231Z" fill="#E74C3C"/>
<path opacity="0.1" d="M12.8418 25.2231C9.68285 25.2231 7.12207 22.6623 7.12207 19.5031V19.4336H18.5618V19.5031C18.5615 22.6621 16.0008 25.2231 12.8418 25.2231Z" fill="black"/>
<path d="M24.2815 25.2231C21.1226 25.2231 18.5615 22.6623 18.5615 19.5031V19.4336H30.0012V19.5031C30.0012 22.6621 27.4405 25.2231 24.2815 25.2231Z" fill="#DBDBDB"/>
<path d="M35.7219 25.2231C32.563 25.2231 30.002 22.6623 30.002 19.5031V19.4336H41.4417V19.5031C41.4417 22.6621 38.8809 25.2231 35.7219 25.2231Z" fill="#E74C3C"/>
<path opacity="0.1" d="M35.7219 25.2231C32.563 25.2231 30.002 22.6623 30.002 19.5031V19.4336H41.4417V19.5031C41.4417 22.6621 38.8809 25.2231 35.7219 25.2231Z" fill="black"/>
<path d="M47.1614 25.2231C44.0024 25.2231 41.4414 22.6623 41.4414 19.5031V19.4336H52.8811V19.5031C52.8811 22.6621 50.3203 25.2231 47.1614 25.2231Z" fill="#DBDBDB"/>
<path d="M58.6008 25.2231C55.4419 25.2231 52.8809 22.6623 52.8809 19.5031V19.4336H64.3206V19.5031C64.3206 22.6621 61.7598 25.2231 58.6008 25.2231Z" fill="#E74C3C"/>
<path opacity="0.1" d="M58.6008 25.2231C55.4419 25.2231 52.8809 22.6623 52.8809 19.5031V19.4336H64.3206V19.5031C64.3206 22.6621 61.7598 25.2231 58.6008 25.2231Z" fill="black"/>
<path d="M70.041 25.2231C66.8821 25.2231 64.3213 22.6623 64.3213 19.5031V19.4336H75.761V19.5031C75.7607 22.6621 73.2 25.2231 70.041 25.2231Z" fill="#DBDBDB"/>
<path d="M81.4788 25.2231C78.3198 25.2231 75.7588 22.6623 75.7588 19.5031V19.4336H87.1985V19.5031C87.1985 22.6621 84.6377 25.2231 81.4788 25.2231Z" fill="#E74C3C"/>
<path opacity="0.1" d="M81.4788 25.2231C78.3198 25.2231 75.7588 22.6623 75.7588 19.5031V19.4336H87.1985V19.5031C87.1985 22.6621 84.6377 25.2231 81.4788 25.2231Z" fill="black"/>
<path d="M92.9192 25.2231C89.7603 25.2231 87.1992 22.6623 87.1992 19.5031V19.4336H98.6389V19.5031C98.6392 22.6621 96.0782 25.2231 92.9192 25.2231Z" fill="#DBDBDB"/>
<path d="M104.36 25.2231C101.201 25.2231 98.6396 22.6623 98.6396 19.5031V19.4336H110.079V19.5031C110.08 22.6621 107.519 25.2231 104.36 25.2231Z" fill="#E74C3C"/>
<path opacity="0.1" d="M104.36 25.2231C101.201 25.2231 98.6396 22.6623 98.6396 19.5031V19.4336H110.079V19.5031C110.08 22.6621 107.519 25.2231 104.36 25.2231Z" fill="black"/>
<path d="M115.8 25.2231C112.641 25.2231 110.08 22.6623 110.08 19.5031V19.4336H121.52V19.5031C121.52 22.6621 118.959 25.2231 115.8 25.2231Z" fill="#DBDBDB"/>
<path d="M127.24 25.2231C124.081 25.2231 121.52 22.6623 121.52 19.5031V19.4336H132.959V19.5031C132.959 22.6621 130.398 25.2231 127.24 25.2231Z" fill="#E74C3C"/>
<path opacity="0.1" d="M127.24 25.2231C124.081 25.2231 121.52 22.6623 121.52 19.5031V19.4336H132.959V19.5031C132.959 22.6621 130.398 25.2231 127.24 25.2231Z" fill="black"/>
<path d="M138.679 25.2231C135.52 25.2231 132.959 22.6623 132.959 19.5031V19.4336H144.399V19.5031C144.399 22.6621 141.838 25.2231 138.679 25.2231Z" fill="#DBDBDB"/>
<path d="M150.119 25.2231C146.96 25.2231 144.399 22.6623 144.399 19.5031V19.4336H155.839V19.5031C155.839 22.6621 153.278 25.2231 150.119 25.2231Z" fill="#E74C3C"/>
<path opacity="0.1" d="M150.119 25.2231C146.96 25.2231 144.399 22.6623 144.399 19.5031V19.4336H155.839V19.5031C155.839 22.6621 153.278 25.2231 150.119 25.2231Z" fill="black"/>
<path d="M155.085 22.7773L155.105 22.8146C155.097 22.8111 155.089 22.8044 155.085 22.7977C155.076 22.791 155.06 22.7843 155.052 22.7773H155.085Z" fill="#E74C3C"/>
<path d="M75.7605 35.1621H36.7861V74.1365H75.7605V35.1621Z" fill="#E74C3C"/>
<path d="M67.2848 60.1394H50.6014C50.2863 60.1394 50.0067 59.9368 49.9086 59.6371L45.1424 45.063H41.2542C40.8517 45.063 40.5254 44.7368 40.5254 44.3342C40.5254 43.9317 40.8517 43.6055 41.2542 43.6055H45.6708C45.9859 43.6055 46.2655 43.8081 46.3636 44.1078L51.1296 58.6819H67.2846C67.6871 58.6819 68.0134 59.0081 68.0134 59.4107C68.0134 59.8132 67.6873 60.1394 67.2848 60.1394Z" fill="white"/>
<path d="M65.668 65.6897C64.3763 65.6897 63.3252 64.6386 63.3252 63.3467C63.3252 62.055 64.3763 61.0039 65.668 61.0039C66.9597 61.0039 68.0107 62.0547 68.0107 63.3467C68.0107 64.6389 66.9597 65.6897 65.668 65.6897ZM65.668 62.4617C65.1798 62.4617 64.7828 62.8588 64.7828 63.3469C64.7828 63.8351 65.1798 64.2324 65.668 64.2324C66.1561 64.2324 66.5532 63.8353 66.5532 63.3469C66.5532 62.8588 66.1561 62.4617 65.668 62.4617Z" fill="white"/>
<path d="M51.8887 65.6897C50.597 65.6897 49.5459 64.6386 49.5459 63.3467C49.5459 62.055 50.597 61.0039 51.8887 61.0039C53.1804 61.0039 54.2314 62.0547 54.2314 63.3467C54.2312 64.6389 53.1804 65.6897 51.8887 65.6897ZM51.8887 62.4617C51.4005 62.4617 51.0035 62.8588 51.0035 63.3469C51.0035 63.8351 51.4005 64.2324 51.8887 64.2324C52.3768 64.2324 52.7739 63.8353 52.7739 63.3469C52.7736 62.8588 52.3766 62.4617 51.8887 62.4617Z" fill="white"/>
<path d="M71.2951 46.2227L67.5822 57.8717H51.8272L48.1143 46.2227L60.4143 46.2331L71.2951 46.2227Z" fill="white"/>
<path d="M41.7307 39.4037C44.0733 36.6717 43.7576 32.558 41.0257 30.2154C38.2937 27.8728 34.1799 28.1885 31.8373 30.9205C29.4947 33.6525 29.8104 37.7662 32.5424 40.1088C35.2744 42.4514 39.3882 42.1357 41.7307 39.4037Z" fill="#455A64"/>
<path d="M36.0421 38.8806L33.2422 36.0464L34.1828 35.117L35.8184 36.7725L39.2164 31.4453L40.3313 32.1565L36.0421 38.8806Z" fill="white"/>
<path d="M126.031 68.4023H106.888V74.6383H126.031V68.4023Z" fill="#E74C3C"/>
<path d="M111.711 72.9915V70.0495C111.711 69.8951 111.836 69.7754 111.985 69.7754C111.99 69.7754 111.99 69.7754 112 69.7754C112 69.7754 112 69.7754 112.005 69.7754H112.693C113.217 69.7754 113.641 70.1995 113.641 70.7227C113.641 70.9372 113.571 71.1316 113.451 71.2913C113.75 71.4808 113.955 71.8147 113.955 72.1936C113.955 72.7868 113.476 73.2658 112.887 73.2658H112.005C112 73.2658 112 73.2609 112 73.2609C111.99 73.2609 111.99 73.2658 111.985 73.2658C111.836 73.2656 111.711 73.1409 111.711 72.9915ZM112.264 71.1267H112.693C112.912 71.1267 113.087 70.9422 113.087 70.7227C113.087 70.5032 112.912 70.3289 112.693 70.3289H112.264V71.1267ZM112.264 72.7121H112.887C113.171 72.7071 113.401 72.4827 113.401 72.1934C113.401 71.9093 113.171 71.6849 112.887 71.6799H112.264V72.7121Z" fill="white"/>
<path d="M116.118 73.2653C115.315 73.2653 114.677 72.6173 114.677 71.8244V70.0495C114.677 69.8951 114.796 69.7754 114.951 69.7754C115.101 69.7754 115.23 69.8951 115.23 70.0495V71.8244C115.23 72.3131 115.629 72.7121 116.118 72.7121C116.611 72.7121 117.005 72.3131 117.005 71.8244V70.0495C117.005 69.8951 117.13 69.7754 117.284 69.7754C117.439 69.7754 117.559 69.8951 117.559 70.0495V71.8244C117.559 72.6173 116.915 73.2653 116.118 73.2653Z" fill="white"/>
<path d="M121.159 70.2434L120.136 71.6443V72.9906C120.136 73.1451 120.017 73.2648 119.862 73.2648C119.718 73.2648 119.588 73.1451 119.588 72.9906V71.6443L118.576 70.2434C118.482 70.1237 118.506 69.9541 118.631 69.8642C118.756 69.7743 118.925 69.7994 119.01 69.9243L119.863 71.0908L120.715 69.9243C120.81 69.7996 120.98 69.7746 121.099 69.8642C121.218 69.9541 121.243 70.1237 121.159 70.2434Z" fill="white"/>
<path d="M126.031 65.1807C116.101 65.2102 96.1225 65.2666 86.1942 65.2686L86.1066 65.2688V65.1807L86.0706 34.8019L86.0703 34.6777L86.1945 34.678C86.2727 34.678 126.037 34.7242 126.109 34.7244C126.189 34.7545 125.973 65.133 126.031 65.1807ZM126.031 65.1807C126.026 65.2087 125.866 34.4664 126.03 34.8791C126.031 34.8794 86.1942 34.9255 86.1942 34.9255L86.3181 34.8016C86.297 34.7644 86.3996 65.5643 86.1947 65.0928C96.1217 65.0935 116.105 65.1489 126.031 65.1807Z" fill="#C7C7C7"/>
<path d="M104.405 37.6445H88.8682V40.8037H104.405V37.6445Z" fill="#EBEBEB"/>
<path d="M123.881 61.4121H111.558V63.448H123.881V61.4121Z" fill="#C7C7C7"/>
<path d="M88.8682 43.674C94.4059 43.5071 99.9806 43.5071 105.52 43.674C99.9801 43.8408 94.4064 43.8408 88.8682 43.674Z" fill="#C7C7C7"/>
<path d="M88.8682 45.6818C94.4059 45.5149 99.9806 45.5149 105.52 45.6818C99.9801 45.8486 94.4064 45.8486 88.8682 45.6818Z" fill="#C7C7C7"/>
<path d="M88.8682 47.6896C94.4059 47.5227 99.9806 47.5227 105.52 47.6896C99.9801 47.8565 94.4064 47.8565 88.8682 47.6896Z" fill="#C7C7C7"/>
<path d="M88.8682 49.6974C94.4059 49.5306 99.9806 49.5306 105.52 49.6974C99.9801 49.8643 94.4064 49.8643 88.8682 49.6974Z" fill="#C7C7C7"/>
<path d="M88.8682 51.7033C94.4059 51.5364 99.9806 51.5364 105.52 51.7033C99.9801 51.8701 94.4064 51.8701 88.8682 51.7033Z" fill="#C7C7C7"/>
<path d="M88.8682 53.715C94.4059 53.5481 99.9806 53.5481 105.52 53.715C99.9801 53.8819 94.4064 53.8819 88.8682 53.715Z" fill="#C7C7C7"/>
<path d="M88.8682 55.7208C94.4059 55.554 99.9806 55.554 105.52 55.7208C99.9801 55.8877 94.4064 55.8877 88.8682 55.7208Z" fill="#C7C7C7"/>
<path d="M106.857 43.6758C109.228 43.5065 111.625 43.5065 113.996 43.6758C111.625 43.8452 109.228 43.8452 106.857 43.6758Z" fill="#C7C7C7"/>
<path d="M106.857 45.6797C109.228 45.5104 111.625 45.5104 113.996 45.6797C111.625 45.8491 109.228 45.8491 106.857 45.6797Z" fill="#C7C7C7"/>
<path d="M106.857 47.6876C109.228 47.5182 111.625 47.5182 113.996 47.6876C111.625 47.8569 109.228 47.8569 106.857 47.6876Z" fill="#C7C7C7"/>
<path d="M106.857 49.6973C109.228 49.528 111.625 49.528 113.996 49.6973C111.625 49.8667 109.228 49.8667 106.857 49.6973Z" fill="#C7C7C7"/>
<path d="M106.857 51.7051C109.228 51.5358 111.625 51.5358 113.996 51.7051C111.625 51.8745 109.228 51.8745 106.857 51.7051Z" fill="#C7C7C7"/>
<path d="M106.857 53.7129C109.228 53.5436 111.625 53.5436 113.996 53.7129C111.625 53.8825 109.228 53.8823 106.857 53.7129Z" fill="#C7C7C7"/>
<path d="M117.719 43.673C119.77 43.5029 121.822 43.5016 123.873 43.673C121.822 43.8443 119.77 43.8428 117.719 43.673Z" fill="#C7C7C7"/>
<path d="M117.719 45.6808C119.77 45.5107 121.822 45.5094 123.873 45.6808C121.822 45.8521 119.77 45.8509 117.719 45.6808Z" fill="#C7C7C7"/>
<path d="M117.719 47.6886C119.77 47.5185 121.822 47.5172 123.873 47.6886C121.822 47.8599 119.77 47.8587 117.719 47.6886Z" fill="#C7C7C7"/>
<path d="M117.719 49.6944C119.77 49.5243 121.822 49.5231 123.873 49.6944C121.822 49.8658 119.77 49.8645 117.719 49.6944Z" fill="#C7C7C7"/>
<path d="M117.719 51.7062C119.77 51.5361 121.822 51.5348 123.873 51.7062C121.822 51.8775 119.77 51.8762 117.719 51.7062Z" fill="#C7C7C7"/>
<path d="M117.719 53.714C119.77 53.5439 121.822 53.5426 123.873 53.714C121.822 53.8856 119.77 53.8841 117.719 53.714Z" fill="#C7C7C7"/>
<path d="M117.719 55.7198C119.77 55.5497 121.822 55.5485 123.873 55.7198C121.822 55.8914 119.77 55.8899 117.719 55.7198Z" fill="#C7C7C7"/>
<path d="M86.1943 76.0129H107.493L104.386 54.3184H89.2994L86.1943 76.0129Z" fill="#E74C3C"/>
<path d="M89.2992 54.3184L91.6658 76.0139H86.1934L89.2992 54.3184Z" fill="#E74C3C"/>
<path opacity="0.1" d="M89.2992 54.3184L91.6658 76.0139H86.1934L89.2992 54.3184Z" fill="black"/>
<path d="M100.137 55.8144L100.803 55.6736C100.799 55.6555 100.413 53.8327 100.001 51.993C99.5548 50.0043 97.5991 49.0893 95.965 49.353C94.7416 49.5506 93.3854 50.5051 93.59 52.5445C93.8085 54.7276 93.9741 55.7558 93.9808 55.7985L94.6522 55.6895C94.6507 55.6793 94.4831 54.6352 94.2666 52.4764C94.1094 50.9094 95.0969 50.1823 96.0735 50.0244C97.3947 49.8109 98.9784 50.5441 99.337 52.1417C99.7484 53.9774 100.133 55.7963 100.137 55.8144Z" fill="#263238"/>
<path d="M91.3778 75.8456C90.9398 75.5342 90.4866 75.2486 90.0335 74.9633C89.5781 74.6818 89.118 74.4084 88.6526 74.1439L88.5886 74.1074L88.5307 74.1506C88.1702 74.4203 87.8104 74.6907 87.4613 74.9758C87.1087 75.2561 86.7601 75.5416 86.4229 75.8426C86.8102 75.6097 87.1864 75.3611 87.5584 75.1074C87.9338 74.8583 88.2988 74.5946 88.6631 74.3304L88.5412 74.3371C89.003 74.6075 89.4698 74.8695 89.9413 75.1228C90.4151 75.3723 90.8889 75.6221 91.3778 75.8456Z" fill="white"/>
<path d="M88.5967 74.2407C88.6905 72.8574 88.7596 71.4731 88.8246 70.0888C88.8904 68.7045 88.9359 67.3194 88.9925 65.9349C89.0307 64.5496 89.0786 63.1648 89.1077 61.779L89.1467 59.7004C89.1514 59.0074 89.1641 58.3144 89.1618 57.6211C89.1127 58.3129 89.0781 59.0049 89.0357 59.6967L88.9334 61.773C88.8681 63.1573 88.8221 64.5424 88.766 65.9269C88.7285 67.3122 88.6796 68.697 88.6513 70.0828C88.6223 71.4684 88.5972 72.8542 88.5967 74.2407Z" fill="white"/>
<path d="M99.5654 55.7459C99.5654 56.245 99.9702 56.65 100.469 56.65C100.969 56.65 101.373 56.2452 101.373 55.7459C101.373 55.2468 100.968 54.8418 100.469 54.8418C99.9699 54.8418 99.5654 55.2465 99.5654 55.7459Z" fill="#263238"/>
<path d="M93.4814 55.7456C93.4814 56.245 93.8862 56.6497 94.3853 56.6495C94.8846 56.6495 95.2894 56.2447 95.2894 55.7456C95.2894 55.2463 94.8846 54.8415 94.3853 54.8418C93.8862 54.8415 93.4814 55.2463 93.4814 55.7456Z" fill="#263238"/>
<path d="M117.931 55.6805C117.887 55.8998 117.803 56.0895 117.678 56.2295C117.677 56.1903 117.674 56.1496 117.669 56.1086C117.665 56.0669 117.658 56.0242 117.649 55.9807C117.603 55.7401 117.495 55.4658 117.297 55.1579C117.278 55.13 117.26 55.102 117.24 55.0734C117.235 55.066 117.231 55.0595 117.225 55.0521C117.225 55.0513 117.225 55.0513 117.225 55.0513C117.216 55.0382 117.205 55.0258 117.197 55.0126C115.672 52.5087 113.505 56.0021 113.459 56.083C113.458 56.0838 113.458 56.0845 113.458 56.0845C113.458 56.0845 113.808 52.3806 115.788 52.5174C117.341 52.6236 118.16 54.5505 117.931 55.6805Z" fill="#455A64"/>
<path d="M117.677 56.2304C117.625 56.2898 117.564 56.3407 117.495 56.3812C116.468 56.9865 113.641 56.1408 113.465 56.0882L113.457 56.0852C116.139 56.6762 117.004 55.779 117.224 55.0527C117.23 55.0602 117.235 55.0669 117.239 55.0741C117.259 55.1029 117.277 55.1307 117.296 55.1585C117.493 55.4672 117.602 55.7408 117.648 55.9814C117.657 56.0251 117.663 56.0676 117.668 56.1093C117.673 56.1507 117.676 56.1915 117.677 56.2304Z" fill="#263238"/>
<path d="M109.09 55.0299C109.102 55.2534 109.158 55.4533 109.261 55.6099C109.268 55.5715 109.277 55.5315 109.288 55.4917C109.297 55.451 109.311 55.4098 109.326 55.3681C109.406 55.1367 109.553 54.8812 109.794 54.6053C109.816 54.5805 109.839 54.5554 109.862 54.5298C109.868 54.5231 109.874 54.5174 109.881 54.5109C109.881 54.5102 109.881 54.5102 109.881 54.5102C109.892 54.4985 109.904 54.4878 109.914 54.4759C111.788 52.2211 113.422 55.9931 113.456 56.08C113.457 56.081 113.457 56.0817 113.457 56.0817C113.457 56.0817 113.651 52.3666 111.672 52.2129C110.121 52.0919 109.029 53.8785 109.09 55.0299Z" fill="#455A64"/>
<path d="M109.262 55.6107C109.305 55.6773 109.358 55.7364 109.42 55.7863C110.348 56.5352 113.268 56.1106 113.449 56.084L113.458 56.0823C110.718 56.2757 109.994 55.2623 109.882 54.5117C109.875 54.5182 109.869 54.5241 109.863 54.5306C109.839 54.5562 109.817 54.581 109.795 54.6061C109.555 54.8829 109.408 55.1374 109.326 55.3689C109.311 55.4108 109.299 55.452 109.288 55.4925C109.278 55.5323 109.268 55.5722 109.262 55.6107Z" fill="#263238"/>
<path d="M108.335 76.0012H118.771L118.389 56.7205L109.377 56.3984L108.335 76.0012Z" fill="#E74C3C"/>
<path opacity="0.6" d="M108.335 76.0012H118.771L118.389 56.7205L109.377 56.3984L108.335 76.0012Z" fill="white"/>
<path d="M106.2 76.0012H109.165L109.619 56.3984L106.561 56.969L106.2 76.0012Z" fill="#E74C3C"/>
<path d="M118.912 56.4293V59.0082L109.619 58.6894V55.7383L118.912 56.4293Z" fill="#E74C3C"/>
<path opacity="0.4" d="M118.912 56.4293V59.0082L109.619 58.6894V55.7383L118.912 56.4293Z" fill="white"/>
<path d="M106.125 59.0082L109.619 58.6894V55.7383L105.926 56.4293L106.125 59.0082Z" fill="#E74C3C"/>
<path opacity="0.1" d="M106.125 59.0082L109.619 58.6894V55.7383L105.926 56.4293L106.125 59.0082Z" fill="black"/>
<path d="M115.918 56.2046L115.827 76.0023H113.363L113.323 56.0117L115.918 56.2046Z" fill="#455A64"/>
<path d="M108.147 56.0117L107.221 56.185V76.0023H107.995L108.147 56.0117Z" fill="#455A64"/>
<path d="M111.49 63.7995C111.651 63.2604 111.406 62.5301 110.108 62.1718C108.134 61.628 106.716 63.6706 106.546 63.9279C106.728 63.6311 108.448 60.9385 110.441 61.4773C112.017 61.9039 111.929 63.1204 111.49 63.7995Z" fill="#E74C3C"/>
<path d="M111.49 63.7992C111.34 64.0287 111.151 64.197 110.972 64.2521C110.278 64.4659 108.704 64.5978 106.665 63.9951C106.62 63.9817 106.575 63.9676 106.529 63.9542C106.529 63.9542 106.535 63.9452 106.546 63.9281C106.549 63.9239 106.552 63.9182 106.556 63.913C106.561 63.9144 106.567 63.9152 106.572 63.9157C108.716 64.2266 110.209 63.9979 110.821 63.7771C111.062 63.6902 111.254 63.3975 111.278 63.0553C111.283 62.9768 111.28 62.8954 111.266 62.8145C111.543 63.1363 111.58 63.4978 111.49 63.7992Z" fill="#E74C3C"/>
<path opacity="0.2" d="M111.49 63.7992C111.34 64.0287 111.151 64.197 110.972 64.2521C110.278 64.4659 108.704 64.5978 106.665 63.9951C106.62 63.9817 106.575 63.9676 106.529 63.9542C106.529 63.9542 106.535 63.9452 106.546 63.9281C106.549 63.9239 106.552 63.9182 106.556 63.913C106.561 63.9144 106.567 63.9152 106.572 63.9157C108.716 64.2266 110.209 63.9979 110.821 63.7771C111.062 63.6902 111.254 63.3975 111.278 63.0553C111.283 62.9768 111.28 62.8954 111.266 62.8145C111.543 63.1363 111.58 63.4978 111.49 63.7992Z" fill="black"/>
<path d="M110.206 60.988C109.941 60.3625 109.222 59.7775 107.953 60.1599C106.025 60.7417 106.4 63.5714 106.454 63.923C106.381 63.5257 105.77 59.8805 107.71 59.2826C109.244 58.8101 110.056 60.0658 110.206 60.988Z" fill="#E74C3C"/>
<path d="M110.205 60.9881C110.255 61.3005 110.229 61.5749 110.13 61.7308C109.745 62.3367 108.616 63.3614 106.594 63.9221C106.55 63.9345 106.504 63.9459 106.459 63.9584C106.459 63.9584 106.457 63.9462 106.453 63.9231C106.453 63.9169 106.451 63.9099 106.45 63.9022C106.455 63.9008 106.461 63.898 106.465 63.8955C108.357 62.9862 109.352 61.9118 109.669 61.3452C109.793 61.1222 109.731 60.7232 109.502 60.3703C109.449 60.2896 109.388 60.2112 109.318 60.1387C109.766 60.3011 110.057 60.638 110.205 60.9881Z" fill="#E74C3C"/>
<path opacity="0.2" d="M110.205 60.9881C110.255 61.3005 110.229 61.5749 110.13 61.7308C109.745 62.3367 108.616 63.3614 106.594 63.9221C106.55 63.9345 106.504 63.9459 106.459 63.9584C106.459 63.9584 106.457 63.9462 106.453 63.9231C106.453 63.9169 106.451 63.9099 106.45 63.9022C106.455 63.9008 106.461 63.898 106.465 63.8955C108.357 62.9862 109.352 61.9118 109.669 61.3452C109.793 61.1222 109.731 60.7232 109.502 60.3703C109.449 60.2896 109.388 60.2112 109.318 60.1387C109.766 60.3011 110.057 60.638 110.205 60.9881Z" fill="black"/>
<path d="M101.414 63.7995C101.254 63.2604 101.498 62.5301 102.797 62.1718C104.77 61.628 106.188 63.6706 106.358 63.9279C106.176 63.6311 104.456 60.9385 102.463 61.4773C100.887 61.9039 100.975 63.1204 101.414 63.7995Z" fill="#E74C3C"/>
<path d="M101.414 63.7992C101.563 64.0287 101.753 64.197 101.932 64.2521C102.626 64.4659 104.2 64.5978 106.239 63.9951C106.284 63.9817 106.329 63.9676 106.374 63.9542C106.374 63.9542 106.369 63.9452 106.358 63.9281C106.354 63.9239 106.352 63.9182 106.348 63.913C106.343 63.9144 106.337 63.9152 106.332 63.9157C104.188 64.2266 102.695 63.9979 102.082 63.7771C101.842 63.6902 101.65 63.3975 101.626 63.0553C101.621 62.9768 101.624 62.8954 101.638 62.8145C101.361 63.1363 101.324 63.4978 101.414 63.7992Z" fill="#E74C3C"/>
<path opacity="0.2" d="M101.414 63.7992C101.563 64.0287 101.753 64.197 101.932 64.2521C102.626 64.4659 104.2 64.5978 106.239 63.9951C106.284 63.9817 106.329 63.9676 106.374 63.9542C106.374 63.9542 106.369 63.9452 106.358 63.9281C106.354 63.9239 106.352 63.9182 106.348 63.913C106.343 63.9144 106.337 63.9152 106.332 63.9157C104.188 64.2266 102.695 63.9979 102.082 63.7771C101.842 63.6902 101.65 63.3975 101.626 63.0553C101.621 62.9768 101.624 62.8954 101.638 62.8145C101.361 63.1363 101.324 63.4978 101.414 63.7992Z" fill="black"/>
<path d="M102.565 60.988C102.831 60.3625 103.549 59.7775 104.818 60.1599C106.746 60.7417 106.371 63.5714 106.317 63.923C106.39 63.5257 107.002 59.8805 105.061 59.2826C103.527 58.8101 102.715 60.0658 102.565 60.988Z" fill="#E74C3C"/>
<path d="M102.565 60.9881C102.515 61.3002 102.541 61.5749 102.64 61.7308C103.024 62.3367 104.154 63.3614 106.175 63.9221C106.22 63.9345 106.265 63.9459 106.31 63.9584C106.31 63.9584 106.313 63.9462 106.316 63.9231C106.317 63.9169 106.319 63.9099 106.32 63.9022C106.315 63.9008 106.309 63.898 106.305 63.8955C104.413 62.9862 103.417 61.9118 103.101 61.3452C102.977 61.1222 103.039 60.7232 103.268 60.3703C103.321 60.2896 103.382 60.2112 103.452 60.1387C103.003 60.3011 102.713 60.638 102.565 60.9881Z" fill="#E74C3C"/>
<path opacity="0.2" d="M102.565 60.9881C102.515 61.3002 102.541 61.5749 102.64 61.7308C103.024 62.3367 104.154 63.3614 106.175 63.9221C106.22 63.9345 106.265 63.9459 106.31 63.9584C106.31 63.9584 106.313 63.9462 106.316 63.9231C106.317 63.9169 106.319 63.9099 106.32 63.9022C106.315 63.9008 106.309 63.898 106.305 63.8955C104.413 62.9862 103.417 61.9118 103.101 61.3452C102.977 61.1222 103.039 60.7232 103.268 60.3703C103.321 60.2896 103.382 60.2112 103.452 60.1387C103.003 60.3011 102.713 60.638 102.565 60.9881Z" fill="black"/>
<path d="M111.288 76.0063H100.842L100.414 64.5098L111.748 64.8927L111.288 76.0063Z" fill="#37474F"/>
<path d="M114.952 76.0082H111.287L111.439 64.8945L115.4 65.335L114.952 76.0082Z" fill="#455A64"/>
<path d="M99.5635 64.3211L99.818 67.9685H111.439V63.5762L99.5635 64.3211Z" fill="#263238"/>
<path d="M115.607 67.8599L111.44 67.9685V63.5762L115.994 64.5098L115.607 67.8599Z" fill="#37474F"/>
<path d="M114.434 64.1906L113.67 76.0062H112.75L113.26 63.9492L114.434 64.1906Z" fill="#E74C3C"/>
<path opacity="0.1" d="M114.434 64.1906L113.67 76.0062H112.75L113.26 63.9492L114.434 64.1906Z" fill="black"/>
<path d="M106.886 63.8691V76.0073H104.468L104.193 64.0417L106.886 63.8691Z" fill="#E74C3C"/>
<path d="M114.507 95.5231H81.3541C80.9886 95.5231 80.6918 95.2264 80.6918 94.8609V90.9369C80.6918 90.9275 80.6918 90.918 80.6923 90.9083C80.6923 90.9083 80.6923 90.9076 80.6923 90.9071V90.9066C80.6928 90.8942 80.6936 90.8813 80.6948 90.8686C80.6971 90.845 80.7005 90.8212 80.7053 90.7979L84.7117 76.08L79.5166 43.902L77.7837 43.2991C77.4328 43.1966 77.2317 42.8288 77.3345 42.4775C77.4375 42.1266 77.8045 41.927 78.1561 42.0283L80.2943 42.7496C80.5414 42.8221 80.7246 43.0312 80.7629 43.2865L86.0381 75.9938C86.0493 76.0676 86.0476 76.1426 86.0337 76.2163L82.1442 90.3199L113.027 92.5156C113.198 92.5273 113.358 92.6048 113.474 92.7322L114.998 94.4162C115.173 94.6106 115.218 94.8899 115.112 95.1293C115.006 95.3687 114.768 95.5231 114.507 95.5231ZM82.0163 94.1986H113.015L112.672 93.82L82.0166 91.6389V94.1986H82.0163Z" fill="#A6A6A6"/>
<path d="M126.646 54.3538H81.9542C81.5887 54.3538 81.292 54.057 81.292 53.6915C81.292 53.326 81.5887 53.0293 81.9542 53.0293H126.646C127.012 53.0293 127.309 53.326 127.309 53.6915C127.309 54.057 127.012 54.3538 126.646 54.3538Z" fill="#A6A6A6"/>
<path d="M85.3827 76.3146C85.2657 76.3146 85.1684 76.2233 85.1624 76.1056C85.156 75.9839 85.2491 75.8801 85.371 75.8737L118.329 75.9395L125.553 53.6257C125.591 53.5097 125.715 53.4459 125.831 53.4834C125.947 53.5209 126.011 53.645 125.973 53.761L118.703 76.2193C118.675 76.3065 118.596 76.3673 118.504 76.372L85.3941 76.3144C85.3904 76.3146 85.3866 76.3146 85.3827 76.3146Z" fill="#A6A6A6"/>
<path d="M119.465 73.0294H84.5498C84.4279 73.0294 84.3291 72.9306 84.3291 72.8086C84.3291 72.6867 84.4279 72.5879 84.5498 72.5879H119.465C119.587 72.5879 119.686 72.6867 119.686 72.8086C119.686 72.9306 119.587 73.0294 119.465 73.0294Z" fill="#A6A6A6"/>
<path d="M120.351 70.3438H84.1377C84.0158 70.3438 83.917 70.245 83.917 70.1231C83.917 70.0012 84.0158 69.9023 84.1377 69.9023H120.351C120.473 69.9023 120.572 70.0012 120.572 70.1231C120.572 70.245 120.473 70.3438 120.351 70.3438Z" fill="#A6A6A6"/>
<path d="M121.173 67.6583H83.7266C83.6044 67.6583 83.5059 67.5595 83.5059 67.4375C83.5059 67.3156 83.6047 67.2168 83.7266 67.2168H121.173C121.295 67.2168 121.394 67.3156 121.394 67.4375C121.394 67.5597 121.295 67.6583 121.173 67.6583Z" fill="#A6A6A6"/>
<path d="M122.063 64.9727H83.3164C83.1945 64.9727 83.0957 64.8739 83.0957 64.752C83.0957 64.6301 83.1943 64.5312 83.3164 64.5312H122.063C122.185 64.5312 122.284 64.6301 122.284 64.752C122.284 64.8739 122.185 64.9727 122.063 64.9727Z" fill="#A6A6A6"/>
<path d="M122.913 62.2872H82.9053C82.7834 62.2872 82.6846 62.1884 82.6846 62.0664C82.6846 61.9445 82.7834 61.8457 82.9053 61.8457H122.913C123.035 61.8457 123.134 61.9445 123.134 62.0664C123.134 62.1884 123.035 62.2872 122.913 62.2872Z" fill="#A6A6A6"/>
<path d="M123.823 59.6016H82.4942C82.372 59.6016 82.2734 59.5031 82.2734 59.3809C82.2734 59.259 82.3723 59.1602 82.4942 59.1602H123.823C123.945 59.1602 124.044 59.259 124.044 59.3809C124.044 59.5028 123.945 59.6016 123.823 59.6016Z" fill="#A6A6A6"/>
<path d="M124.691 56.9161H82.0831C81.9609 56.9161 81.8623 56.8173 81.8623 56.6953C81.8623 56.5734 81.9609 56.4746 82.0831 56.4746H124.691C124.814 56.4746 124.912 56.5734 124.912 56.6953C124.912 56.8173 124.813 56.9161 124.691 56.9161Z" fill="#A6A6A6"/>
<path d="M88.3952 76.0324C88.281 76.0324 88.1844 75.9445 88.1754 75.8283L86.485 53.7089C86.476 53.5872 86.5669 53.4812 86.6886 53.4718C86.7986 53.4596 86.9158 53.5532 86.9257 53.6751L88.6162 75.7945C88.6251 75.9162 88.5343 76.0222 88.4126 76.0316C88.4069 76.0324 88.4014 76.0324 88.3952 76.0324Z" fill="#A6A6A6"/>
<path d="M115.389 76.2946C115.37 76.2946 115.35 76.2921 115.331 76.2869C115.213 76.2549 115.144 76.134 115.176 76.0163L121.18 53.6354C121.212 53.5182 121.332 53.4487 121.45 53.4803C121.568 53.512 121.637 53.6332 121.605 53.7509L115.602 76.1317C115.575 76.2301 115.486 76.2946 115.389 76.2946Z" fill="#A6A6A6"/>
<path d="M91.9419 76.1465C91.8225 76.1465 91.7242 76.0511 91.7212 75.9314L91.1573 53.6989C91.1543 53.5769 91.2509 53.4756 91.3723 53.4727C91.3746 53.4727 91.3763 53.4727 91.3778 53.4727C91.4972 53.4727 91.5956 53.568 91.5985 53.6877L92.1624 75.9203C92.1654 76.0422 92.0688 76.1435 91.9474 76.1465C91.9454 76.1465 91.9437 76.1465 91.9419 76.1465Z" fill="#A6A6A6"/>
<path d="M95.543 76.1798C95.5418 76.1798 95.5403 76.1798 95.5388 76.1798C95.4172 76.1775 95.3203 76.0767 95.3223 75.9548L95.728 53.6889C95.7303 53.5688 95.8286 53.4727 95.9488 53.4727C95.95 53.4727 95.9513 53.4727 95.9532 53.4727C96.0749 53.4749 96.1718 53.5757 96.1695 53.6976L95.7638 75.9635C95.7616 76.0837 95.6632 76.1798 95.543 76.1798Z" fill="#A6A6A6"/>
<path d="M111.699 76.1661C111.684 76.1661 111.669 76.1648 111.654 76.1618C111.535 76.1373 111.458 76.0203 111.482 75.9011L115.973 53.6492C115.997 53.5292 116.116 53.453 116.234 53.4771C116.353 53.5017 116.43 53.6186 116.406 53.7381L111.915 75.99C111.893 76.0941 111.801 76.1661 111.699 76.1661Z" fill="#A6A6A6"/>
<path d="M107.528 76.293C107.516 76.293 107.504 76.292 107.492 76.29C107.371 76.2706 107.29 76.1569 107.31 76.0365L110.768 53.6561C110.788 53.5359 110.903 53.4525 111.022 53.4741C111.142 53.4935 111.224 53.6072 111.204 53.7276L107.745 76.108C107.727 76.2162 107.634 76.293 107.528 76.293Z" fill="#A6A6A6"/>
<path d="M99.2497 76.1504C99.244 76.1504 99.2385 76.1504 99.2328 76.1499C99.1111 76.1405 99.0198 76.0347 99.029 75.9133L100.641 53.6752C100.651 53.5536 100.758 53.4619 100.878 53.4714C101 53.4808 101.091 53.5866 101.082 53.708L99.4694 75.9461C99.4605 76.062 99.3639 76.1504 99.2497 76.1504Z" fill="#A6A6A6"/>
<path d="M103.387 76.2763C103.379 76.2763 103.371 76.2758 103.362 76.275C103.241 76.2616 103.154 76.1521 103.167 76.0309L105.733 53.6673C105.747 53.5466 105.852 53.4574 105.977 53.4723C106.099 53.4857 106.186 53.5952 106.172 53.7164L103.606 76.0801C103.594 76.1928 103.498 76.2763 103.387 76.2763Z" fill="#A6A6A6"/>
<path d="M87.3963 98.2454C88.3624 97.2793 88.3624 95.7129 87.3963 94.7468C86.4302 93.7807 84.8638 93.7807 83.8977 94.7468C82.9316 95.7129 82.9316 97.2793 83.8977 98.2454C84.8638 99.2115 86.4302 99.2115 87.3963 98.2454Z" fill="#263238"/>
<path d="M86.7726 96.4991C86.7726 97.1198 86.2693 97.6232 85.6485 97.6232C85.0277 97.6232 84.5244 97.1198 84.5244 96.4991C84.5244 95.8783 85.0277 95.375 85.6485 95.375C86.2693 95.375 86.7726 95.8783 86.7726 96.4991Z" fill="#EBEBEB"/>
<path d="M110.253 96.4954C110.253 97.8615 109.146 98.9692 107.78 98.9692C106.413 98.9692 105.306 97.8615 105.306 96.4954C105.306 95.1292 106.413 94.0215 107.78 94.0215C109.146 94.0215 110.253 95.1292 110.253 96.4954Z" fill="#263238"/>
<path d="M108.903 96.4952C108.903 97.1159 108.4 97.6193 107.779 97.6193C107.159 97.6193 106.655 97.1159 106.655 96.4952C106.655 95.8744 107.159 95.3711 107.779 95.3711C108.4 95.3711 108.903 95.8744 108.903 96.4952Z" fill="#EBEBEB"/>
<path d="M79.6185 44.0168C79.5309 44.0168 79.4415 44.0012 79.3543 43.9682L75.8716 42.6469C75.487 42.5012 75.2933 42.0709 75.4393 41.6862C75.585 41.3016 76.0151 41.1074 76.4 41.2539L79.8827 42.5752C80.2673 42.7209 80.461 43.1512 80.315 43.5359C80.202 43.8336 79.919 44.0168 79.6185 44.0168Z" fill="#E74C3C"/>
<path d="M49.4461 73.2559C49.4461 73.2559 43.4261 80.9139 43.4214 80.9196C42.1906 82.5465 41.1407 83.9948 40.6674 84.7949C40.6642 84.7986 40.6612 84.8026 40.66 84.8081C40.4812 85.1097 40.3859 85.3166 40.3998 85.4013C40.4005 85.4082 40.3993 85.4137 40.4015 85.4186C40.6376 86.1129 53.3529 96.3275 53.9163 96.5343C54.48 96.7446 55.1139 95.152 54.9366 94.3619C54.7556 93.5688 51.6384 87.4821 51.6384 87.4821L57.3074 79.5879L49.4461 73.2559Z" fill="#D3766A"/>
<path d="M53.9172 96.5354C53.3536 96.3295 40.6378 86.1142 40.4017 85.418C40.3987 85.4145 40.4007 85.4095 40.3997 85.4013C40.3863 85.3179 40.4811 85.1103 40.6607 84.8089C40.6612 84.8024 40.6646 84.7992 40.6681 84.7962C41.1396 83.9952 42.1897 82.5466 43.4216 80.9204C43.4233 80.9189 43.7173 80.5435 44.1772 79.9609L52.3857 86.4397L51.638 87.4821C51.638 87.4821 54.7553 93.5691 54.9363 94.3617C55.1158 95.1526 54.4806 96.7447 53.9172 96.5354Z" fill="#DBDBDB"/>
<path d="M53.9171 96.5356C53.3527 96.3285 40.6384 86.1152 40.402 85.4187C40.3074 85.1557 41.6878 83.2162 43.4227 80.9209C43.4411 80.897 43.4594 80.8732 43.4778 80.8496L51.7541 87.3473L51.6391 87.4838C51.6391 87.4838 54.7571 93.5701 54.9369 94.3634C55.1137 95.1518 54.48 96.7447 53.9171 96.5356Z" fill="#263238"/>
<path d="M54.1678 95.9281C52.0669 94.1537 43.4253 87.1956 41.2139 85.6013C41.1958 85.5884 41.1863 85.6 41.203 85.6147C43.247 87.4189 51.9445 94.3066 54.1397 95.9631C54.1859 95.9981 54.2122 95.9656 54.1678 95.9281Z" fill="white"/>
<path d="M52.3069 88.0631C51.5901 87.2282 50.4546 86.529 49.3272 86.6122C49.2835 86.6154 49.2888 86.6775 49.323 86.6907C50.3659 87.0969 51.2782 87.5525 52.218 88.1668C52.2843 88.2103 52.3583 88.1229 52.3069 88.0631Z" fill="white"/>
<path d="M52.6214 88.9185C51.9045 88.0835 50.769 87.3845 49.6417 87.4677C49.598 87.4709 49.6032 87.533 49.6375 87.5461C50.6804 87.9524 51.5926 88.4083 52.5325 89.0223C52.5985 89.0655 52.6725 88.9784 52.6214 88.9185Z" fill="white"/>
<path d="M52.9348 89.776C52.218 88.9409 51.0825 88.2417 49.9552 88.3251C49.9115 88.3284 49.9167 88.3904 49.951 88.4036C50.9938 88.8098 51.9061 89.2655 52.8457 89.8798C52.912 89.9232 52.986 89.8358 52.9348 89.776Z" fill="white"/>
<path d="M54.4765 96.2361C54.6337 96.5067 53.9705 97.2313 53.7572 97.1608C53.5436 97.09 39.7299 85.8929 39.5367 85.6505C39.3435 85.4082 40.1093 84.6327 40.4177 84.809C40.7261 84.9853 54.4765 96.2361 54.4765 96.2361Z" fill="#E74C3C"/>
<path d="M44.4319 83.9622C43.8804 82.7609 42.0124 83.6158 42.5649 84.8193C43.1164 86.0204 44.9844 85.1655 44.4319 83.9622Z" fill="white"/>
<path d="M45.6973 77.7717L53.8179 84.5299C53.8179 84.5299 66.8254 69.1828 67.3019 66.8781C67.8437 64.2574 69.3512 43.7327 69.3161 42.7099C69.2739 41.4696 67.9075 36.0176 67.9075 36.0176H58.164C58.164 36.0176 56.801 62.8587 56.5172 63.6896C56.2118 64.5842 45.6973 77.7717 45.6973 77.7717Z" fill="#263238"/>
<path d="M44.8379 79.0544L45.9789 76.9004L54.42 84.3012L52.7606 85.757L44.8379 79.0544Z" fill="#455A64"/>
<path d="M54.5866 82.4978C53.3304 81.2855 48.4311 77.3943 47.822 77.0755C47.8086 77.0685 47.7897 77.0916 47.7997 77.1033C48.2426 77.6292 52.4114 81.0524 54.5546 82.5375C54.5774 82.5534 54.6067 82.5169 54.5866 82.4978Z" fill="#37474F"/>
<path d="M68.3891 40.0512C68.259 39.9951 68.1239 39.9966 67.993 39.9583C67.8552 39.9184 67.7182 39.8699 67.5821 39.8014C67.3256 39.6725 67.0673 39.4972 66.8312 39.2695C66.5879 39.0346 66.4136 38.7089 66.2541 38.3416C66.1692 38.1459 65.7714 37.1001 65.768 37.0926C65.7565 37.0683 65.7272 37.0825 65.732 37.1085C65.7593 37.253 66.0322 38.1556 66.1129 38.3813C66.2646 38.8059 66.4503 39.1886 66.7148 39.4595C66.9732 39.7242 67.259 39.9059 67.5463 40.0199C67.6943 40.0785 67.8445 40.122 67.993 40.1396C68.1274 40.1555 68.2773 40.1788 68.4003 40.1163C68.4221 40.1053 68.4077 40.0594 68.3891 40.0512Z" fill="#37474F"/>
<path d="M59.7719 36.4902L59.5668 41.881L59.3341 47.2702L58.8157 58.0464C58.7181 59.8422 58.6222 61.6372 58.5088 63.4334C58.4963 63.6559 58.478 63.8849 58.4561 64.1165C58.4541 64.1436 58.4534 64.1726 58.435 64.2196C58.4206 64.2509 58.4069 64.2809 58.3918 64.306C58.3625 64.3589 58.3317 64.4073 58.3009 64.456C58.2386 64.5523 58.1743 64.6457 58.1092 64.7383C57.8483 65.1078 57.5776 65.4673 57.3052 65.8256C56.7609 66.5427 56.2012 67.2467 55.6421 67.9511C54.5215 69.358 53.3917 70.7572 52.2547 72.1505L48.8184 76.3091L52.1697 72.0822C53.2861 70.6728 54.4028 69.2637 55.5057 67.8441C56.0575 67.1347 56.6045 66.4216 57.1473 65.7062C57.4177 65.3479 57.6864 64.9881 57.9429 64.6221C58.0067 64.5305 58.0695 64.4386 58.1288 64.3457C58.1817 64.2516 58.259 64.16 58.2537 64.0813C58.2721 63.8652 58.2893 63.6462 58.3012 63.4198C58.4074 61.6265 58.4961 59.83 58.5867 58.0345L59.1553 47.2613L59.4528 41.8752L59.7719 36.4902Z" fill="#37474F"/>
<path d="M67.4962 65.4466C67.4247 66.1073 67.3599 66.5995 67.302 66.8766C67.0341 68.1703 62.8131 73.5786 59.1653 78.0722L56.6631 62.3368C57.109 56.7529 58.1626 36.0156 58.1626 36.0156H63.0187L67.4962 65.4466Z" fill="#37474F"/>
<path d="M61.2676 83.9949C61.2676 83.9949 63.1517 93.5519 63.153 93.5591C63.5848 95.553 63.9987 97.2934 64.2972 98.1737C64.2979 98.1786 64.2989 98.1834 64.3021 98.1878C64.4144 98.5201 64.5092 98.7271 64.5827 98.7718C64.5884 98.7758 64.5917 98.7803 64.5971 98.7818C65.2775 99.0554 81.3118 96.0695 81.836 95.7773C82.3629 95.4867 81.5681 93.9681 80.8535 93.5875C80.1339 93.2078 73.486 91.6047 73.486 91.6047L71.1941 82.1602L61.2676 83.9949Z" fill="#D3766A"/>
<path d="M81.8367 95.7779C81.313 96.0712 65.2779 99.0566 64.596 98.7822C64.5913 98.7822 64.5891 98.7774 64.5821 98.7727C64.5099 98.7285 64.4145 98.5214 64.3028 98.1887C64.2981 98.184 64.2981 98.1795 64.2981 98.1748C63.9979 97.2953 63.5837 95.5547 63.1531 93.5603C63.1531 93.5581 63.06 93.0902 62.918 92.362L73.1815 90.3594L73.4846 91.6059C73.4846 91.6059 80.1328 93.2092 80.8519 93.5883C81.569 93.9675 82.3626 95.4869 81.8367 95.7779Z" fill="#DBDBDB"/>
<path d="M81.8362 95.7783C81.3112 96.0713 65.2784 99.0569 64.5963 98.7825C64.3351 98.6827 63.764 96.372 63.1539 93.5599C63.1479 93.5304 63.1417 93.5011 63.1357 93.4715L73.4578 91.4297L73.4866 91.606C73.4866 91.606 80.1348 93.2081 80.8536 93.589C81.5668 93.9689 82.3618 95.4875 81.8362 95.7783Z" fill="#263238"/>
<path d="M81.5389 95.1869C78.8239 95.6239 67.9143 97.6421 65.2639 98.2805C65.2423 98.2857 65.245 98.3006 65.2671 98.2976C67.9674 97.9234 78.8604 95.8166 81.5473 95.2313C81.6039 95.2189 81.5962 95.1777 81.5389 95.1869Z" fill="white"/>
<path d="M74.3612 91.4727C73.2608 91.4722 71.9904 91.8776 71.3188 92.7867C71.2927 92.822 71.3431 92.8582 71.3756 92.8411C72.3634 92.3149 73.3037 91.9201 74.3821 91.6077C74.4581 91.5856 74.4402 91.4727 74.3612 91.4727Z" fill="white"/>
<path d="M75.2157 91.791C74.1152 91.7905 72.8449 92.196 72.1732 93.1051C72.1471 93.1403 72.1978 93.1768 72.2301 93.1594C73.2178 92.6333 74.1582 92.2385 75.2363 91.9261C75.3126 91.9042 75.2944 91.791 75.2157 91.791Z" fill="white"/>
<path d="M76.0693 92.1133C74.9688 92.1128 73.6984 92.5183 73.0268 93.4273C73.0007 93.4626 73.0511 93.4991 73.0836 93.4817C74.0714 92.9555 75.0117 92.5607 76.0899 92.2484C76.1658 92.2263 76.148 92.1133 76.0693 92.1133Z" fill="white"/>
<path d="M81.9733 95.1562C82.2809 95.2134 82.3984 96.1887 82.2057 96.3044C82.013 96.4204 64.5173 99.5984 64.2077 99.587C63.8981 99.5756 63.8089 98.4893 64.1436 98.3703C64.4784 98.2514 81.9733 95.1562 81.9733 95.1562Z" fill="#E74C3C"/>
<path d="M66.1172 94.7713C64.8466 94.4066 64.2777 96.3806 65.5503 96.7458C66.8209 97.1106 67.39 95.1366 66.1172 94.7713Z" fill="white"/>
<path d="M65.9687 36.0159C65.9687 36.0159 65.7127 40.1817 64.5625 43.1492C64.5625 43.1492 62.9038 44.1827 62.7308 44.346L73.1365 88.8497L62.2448 90.8434C62.2448 90.8434 58.5029 69.2395 58.1642 67.7638C57.6211 65.392 53.3234 45.23 53.133 44.0841C52.7345 41.6879 54.9466 36.0156 54.9466 36.0156L65.9687 36.0159Z" fill="#263238"/>
<path d="M71.5705 86.596C68.7867 87.0131 63.464 88.1414 62.809 88.4121C62.7946 88.418 62.8005 88.4473 62.8162 88.4471C63.5251 88.4364 70.0091 87.1495 71.5809 86.6461C71.608 86.6374 71.5988 86.5918 71.5705 86.596Z" fill="#37474F"/>
<path d="M56.1925 40.0494C56.3951 40.0045 56.6114 40.0186 56.8172 39.9923C57.0338 39.9645 57.2486 39.928 57.4599 39.8714C57.8579 39.7643 58.2547 39.6106 58.6108 39.4018C58.9782 39.1863 59.2266 38.8719 59.4473 38.5141C59.565 38.3234 60.1038 37.2997 60.1088 37.2925C60.1249 37.2689 60.1731 37.286 60.1676 37.3118C60.1373 37.4558 59.785 38.3463 59.677 38.5678C59.4739 38.9844 59.2124 39.3554 58.8146 39.6054C58.426 39.8498 57.986 40.0077 57.5371 40.0966C57.3059 40.1423 57.0698 40.1723 56.8339 40.1765C56.6208 40.1803 56.383 40.1899 56.1806 40.1149C56.1451 40.1013 56.1637 40.0559 56.1925 40.0494Z" fill="#37474F"/>
<path d="M64.8044 43.0369C63.8814 43.3453 62.9893 43.7868 62.1358 44.2504C62.1023 44.2685 62.1239 44.3204 62.1599 44.3053C63.0585 43.9288 63.9748 43.5693 64.8516 43.1439C64.9206 43.1107 64.8751 43.0131 64.8044 43.0369Z" fill="#37474F"/>
<path d="M65.1443 36.8959C65.142 36.8651 65.0879 36.8576 65.0877 36.8909C65.0854 37.9537 65.0092 38.888 64.9104 39.8805C64.8647 40.3414 64.4706 42.886 63.6728 42.6931C63.5392 42.6608 63.4722 42.5284 63.4528 42.3263C63.43 42.0835 63.5238 41.7868 63.5661 41.5459C63.6597 41.0133 63.7356 40.4787 63.7863 39.9404C63.8809 38.9352 63.8943 37.9293 63.7811 36.9257C63.7774 36.8926 63.7297 36.8946 63.7294 36.9282C63.718 38.3207 63.6691 39.7102 63.4484 41.0873C63.3423 41.7493 62.9994 42.744 63.6917 42.8522C64.3969 42.9625 64.8687 41.2951 64.959 40.8387C65.2113 39.5649 65.2334 38.1878 65.1443 36.8959Z" fill="#37474F"/>
<path d="M63.6936 42.7604C63.6198 42.9307 63.56 43.1085 63.5088 43.287C63.4691 43.4256 63.4157 43.5753 63.4301 43.7206C63.4331 43.7486 63.4701 43.7519 63.4855 43.7327C63.5804 43.6148 63.6213 43.4524 63.6752 43.3119C63.7375 43.149 63.8033 42.9873 63.8609 42.8229C63.8992 42.7137 63.7393 42.6551 63.6936 42.7604Z" fill="#37474F"/>
<path d="M55.7769 36.0156C55.5005 37.0717 55.2398 38.1319 55.0016 39.1969C54.766 40.2617 54.5395 41.3316 54.4062 42.411L54.3685 42.8157C54.357 42.9506 54.3608 43.0844 54.3561 43.2187L54.4757 44.0195L54.7809 45.6271L55.4325 48.8359L58.108 61.6587L60.7859 74.4815L62.1159 80.895L63.4277 87.3122L62.0051 80.9186L60.6119 74.5185L57.8817 61.7061C56.9968 57.43 56.1039 53.1555 55.2586 48.8709L54.6379 45.6546L54.3479 44.0419L54.2344 43.2222C54.2361 42.9439 54.26 42.6697 54.2947 42.3973C54.4479 41.3115 54.6928 40.2463 54.947 39.1843C55.2035 38.1228 55.4826 37.067 55.7769 36.0156Z" fill="#37474F"/>
<path d="M62.3879 91.7281L61.3848 89.5065L73.1763 87.3438L73.3099 89.5472L62.3879 91.7281Z" fill="#455A64"/>
<path d="M53.8647 38.1885L68.9947 39.0869C69.0446 39.0472 69.5017 38.4535 69.5067 37.5457C69.5283 33.6962 68.6903 23.7274 67.5992 21.6235C67.3104 21.0676 65.9254 19.1685 63.5044 20.8657C60.2292 23.1613 55.4568 32.1656 53.8627 36.1696C53.4118 37.3028 53.8401 38.1476 53.8647 38.1885Z" fill="#455A64"/>
<path d="M66.8217 23.4317C65.9894 23.3712 64.6622 21.9501 64.4584 20.6691C64.4447 20.5812 64.834 19.8469 65.2646 18.9324C65.5238 18.3765 65.7992 17.7512 66.0095 17.1628C66.052 17.0416 69.381 19.3779 69.381 19.3779C69.381 19.3779 68.5775 20.4821 68.2175 21.5106C68.1884 21.5968 68.1683 21.6797 68.1566 21.7611C68.1539 21.7728 68.1524 21.7872 68.1477 21.8031C68.0583 22.2885 67.7124 23.4965 66.8217 23.4317Z" fill="#D3766A"/>
<path d="M66.1391 17.2109C66.7616 17.5392 69.3805 19.3782 69.3805 19.3782C69.3805 19.3782 68.715 20.2966 68.3093 21.268C68.2745 21.3514 65.7411 20.5586 66.1391 17.2109Z" fill="#263238"/>
<path d="M66.1127 12.6877C65.483 13.9975 65.6003 18.0777 66.442 19.1121C67.6622 20.6121 69.9627 21.0901 71.3135 19.5544C72.6231 18.0655 72.376 12.751 71.4076 11.7794C69.9814 10.3487 67.0432 10.7531 66.1127 12.6877Z" fill="#D3766A"/>
<path d="M69.6216 15.6608C69.6191 15.6503 69.6005 15.6744 69.601 15.6856C69.6161 15.9602 69.5876 16.2773 69.341 16.3744C69.3333 16.3774 69.3345 16.3913 69.3437 16.3898C69.6462 16.3399 69.6802 15.9185 69.6216 15.6608Z" fill="#263238"/>
<path d="M69.3688 15.3793C68.9258 15.3565 68.9124 16.2437 69.3228 16.265C69.7266 16.2862 69.74 15.3987 69.3688 15.3793Z" fill="#263238"/>
<path d="M71.2113 15.7233C71.2136 15.7129 71.2327 15.7365 71.2322 15.7479C71.2193 16.0225 71.2508 16.3393 71.4981 16.4344C71.5058 16.4374 71.5048 16.4513 71.4956 16.4498C71.1927 16.4024 71.1552 15.9815 71.2113 15.7233Z" fill="#263238"/>
<path d="M71.4615 15.442C71.9043 15.4152 71.9254 16.3024 71.5154 16.3272C71.1117 16.3518 71.0906 15.4643 71.4615 15.442Z" fill="#263238"/>
<path d="M69.0241 14.9643C69.1455 14.9357 69.2525 14.8891 69.3697 14.8486C69.5018 14.8026 69.6118 14.7798 69.6997 14.6631C69.7469 14.6005 69.7293 14.4871 69.6729 14.4354C69.5415 14.3155 69.366 14.3316 69.2046 14.3803C69.0295 14.4332 68.9084 14.5188 68.8063 14.6701C68.7072 14.8168 68.8642 15.002 69.0241 14.9643Z" fill="#263238"/>
<path d="M71.8112 15.001C71.6885 14.9792 71.579 14.9384 71.4598 14.9042C71.3255 14.8654 71.2145 14.8485 71.1204 14.7371C71.0698 14.6772 71.0812 14.563 71.1346 14.5084C71.2592 14.3815 71.4355 14.3879 71.5991 14.4279C71.7767 14.4711 71.9026 14.5501 72.0128 14.6956C72.1196 14.8364 71.9731 15.0298 71.8112 15.001Z" fill="#263238"/>
<path d="M69.3279 18.2019C69.3927 18.2672 69.457 18.3568 69.5568 18.3668C69.6524 18.3762 69.7652 18.3347 69.8533 18.3022C69.862 18.299 69.8707 18.3084 69.865 18.3166C69.792 18.4211 69.6408 18.485 69.5139 18.4606C69.3897 18.437 69.3299 18.3285 69.3013 18.2143C69.2971 18.1979 69.3185 18.1924 69.3279 18.2019Z" fill="#263238"/>
<path d="M69.6296 17.3867C69.7799 17.6278 70.0041 17.7616 70.2482 17.8125C70.3572 17.8361 70.4719 17.8416 70.5846 17.8332C70.6067 17.8329 70.6291 17.8309 70.6492 17.8267C70.6693 17.8245 70.6874 17.8225 70.7095 17.8183C70.7418 17.814 70.7597 17.7877 70.7656 17.7577V17.7557C70.7656 17.7455 70.7656 17.7376 70.7634 17.7274C70.7634 17.7274 70.7634 17.7274 70.7634 17.7254L70.7631 17.7013C70.7721 17.4898 70.7564 17.1674 70.7564 17.1674C70.8332 17.2074 71.2247 17.3907 71.2203 17.2799C71.1796 16.3637 71.1341 15.3449 70.9 14.4415C70.8938 14.4115 70.8476 14.4177 70.8496 14.4478C70.854 15.33 71.0134 16.2053 71.0318 17.0912C70.9067 17.0416 70.7028 16.9499 70.5921 16.9504C70.562 16.9586 70.6335 17.5727 70.6219 17.6673C70.6219 17.6673 70.6219 17.6713 70.6199 17.6772C70.2635 17.7172 69.9971 17.606 69.6555 17.3616C69.6353 17.3462 69.6135 17.3646 69.6296 17.3867Z" fill="#263238"/>
<path d="M70.4604 17.7253C70.4604 17.7253 70.269 17.9756 70.0105 18.0632C69.9154 18.0957 69.8131 18.1077 69.7068 18.0776C69.488 18.0165 69.4858 17.8149 69.5285 17.6433C69.5633 17.502 69.6308 17.3809 69.6308 17.3809C69.6308 17.3809 69.9469 17.6858 70.4604 17.7253Z" fill="#263238"/>
<path d="M70.0105 18.0605C69.9154 18.093 69.8131 18.105 69.7068 18.0749C69.488 18.0138 69.4858 17.8122 69.5285 17.6406C69.7637 17.6682 69.9941 17.8313 70.0105 18.0605Z" fill="#FF9BBC"/>
<path d="M72.4679 13.437C70.9676 14.3928 69.0127 12.8043 69.0127 12.8043C68.5014 13.9351 67.3607 13.7591 67.3607 13.7591C67.3607 13.7591 66.9883 16.2317 66.3347 16.2049C65.3375 16.1649 65.1438 12.7696 65.4808 12.115C65.8175 11.4605 66.6692 11.3187 66.6692 11.3187C66.6692 11.3187 66.7486 10.805 67.3808 10.3548C68.0793 9.85646 70.4057 10.6379 70.4057 10.6379C70.4057 10.6379 70.582 10.2058 71.0349 9.84578C71.3224 9.61883 71.6922 9.67892 71.9196 9.95727C71.7997 10.1167 71.7071 10.3205 71.6596 10.5614C71.5174 11.284 72.1113 11.3033 72.1282 10.6441C72.1356 10.3508 72.0507 10.1174 71.9196 9.95727C72.227 9.53639 72.7102 9.41224 72.9928 9.65285C73.5055 10.0896 73.7156 12.6429 72.4679 13.437Z" fill="#263238"/>
<path d="M67.2461 12.9682C67.2367 12.925 67.1776 12.9374 67.1838 12.9818C67.2546 13.4819 67.3283 13.9877 67.2791 14.497C67.2307 14.9973 66.9226 16.2475 66.2077 16.0755C66.1757 16.0678 66.1598 16.113 66.1898 16.1289C66.6561 16.3727 67.0043 15.775 67.1741 15.3579C67.4818 14.6015 67.4135 13.7454 67.2461 12.9682Z" fill="#263238"/>
<path d="M72.9548 9.61695C72.9508 9.61224 72.9441 9.6182 72.9476 9.62316C73.6751 10.6151 73.8125 11.996 73.0775 13.0349C72.1528 14.3422 70.4035 13.4205 69.3616 12.8146C69.3107 12.7851 69.2578 12.8591 69.3089 12.8906C70.3208 13.5131 72.0996 14.3963 73.0593 13.2127C73.9155 12.1566 73.7769 10.6323 72.9548 9.61695Z" fill="#263238"/>
<path d="M66.8793 11.3243C65.896 11.3955 65.1799 11.835 65.0483 12.8692C64.9175 13.8987 65.2919 15.0062 65.9757 15.7769C66.009 15.8146 66.0636 15.7665 66.0346 15.7267C65.5578 15.0747 65.2095 14.3631 65.1419 13.5464C65.0923 12.9427 65.1866 12.2741 65.6246 11.8197C65.94 11.4924 66.4629 11.4293 66.8865 11.3613C66.9109 11.3576 66.9029 11.3225 66.8793 11.3243Z" fill="#263238"/>
<path d="M70.6909 10.859C69.4945 10.0684 67.0979 9.27728 66.68 11.3067C66.6765 11.3233 66.7048 11.3295 66.7093 11.3129C67.2444 9.28398 69.4292 10.2772 70.6643 10.9104C70.6938 10.9255 70.7179 10.8769 70.6909 10.859Z" fill="#263238"/>
<path d="M66.6137 16.1193C66.6137 16.1193 65.8844 14.7127 65.258 14.956C64.6312 15.1994 65.0606 17.1553 65.7121 17.5014C66.3639 17.8475 66.6962 17.2506 66.6962 17.2506L66.6137 16.1193Z" fill="#D3766A"/>
<path d="M65.3958 15.5139C65.3848 15.5115 65.3806 15.5266 65.3898 15.5318C65.8447 15.7903 66.0386 16.2698 66.1546 16.7555C66.0352 16.5586 65.8534 16.4352 65.5924 16.5737C65.5788 16.5809 65.5882 16.6023 65.6021 16.6013C65.8047 16.5854 65.9423 16.6383 66.0543 16.8136C66.1337 16.9377 66.1794 17.0875 66.2296 17.2255C66.2465 17.2715 66.3272 17.2588 66.3172 17.2071C66.3165 17.2034 66.3155 17.1994 66.3147 17.1955C66.4081 16.5841 66.0456 15.6629 65.3958 15.5139Z" fill="#263238"/>
<path d="M63.9902 20.8362C63.9902 20.8362 64.3778 18.9883 64.5986 18.9555C64.8193 18.9228 65.708 20.6805 66.554 21.0674C67.4 21.4542 68.3726 21.339 68.5129 21.3673C68.6532 21.3956 68.1655 23.0265 67.9912 23.3811C67.7861 23.7985 67.4233 24.1809 66.7728 24.0324C65.5697 23.7578 64.0694 21.711 63.9902 20.8362Z" fill="#455A64"/>
<path d="M64.7257 19.4492C64.6612 19.9473 64.5052 20.4325 64.2656 20.8738C64.3294 20.3756 64.4869 19.891 64.7257 19.4492Z" fill="#263238"/>
<path d="M68.2965 21.5156C68.2632 22.0167 68.1376 22.5106 67.9258 22.966C67.9583 22.4649 68.0854 21.9715 68.2965 21.5156Z" fill="#263238"/>
<path d="M67.7739 21.748C67.6996 22.4093 67.534 23.0599 67.2812 23.6754C67.355 23.0139 67.5219 22.3638 67.7739 21.748Z" fill="#263238"/>
<path d="M67.0786 21.6562C67.0043 22.3175 66.8387 22.9681 66.5859 23.5836C66.6594 22.9224 66.8263 22.2723 67.0786 21.6562Z" fill="#263238"/>
<path d="M66.3442 21.2656C66.27 21.9269 66.1043 22.5774 65.8516 23.193C65.9253 22.5315 66.0922 21.8814 66.3442 21.2656Z" fill="#263238"/>
<path d="M65.7408 20.791C65.6747 21.4205 65.517 22.0395 65.2725 22.6233C65.338 21.9938 65.4969 21.375 65.7408 20.791Z" fill="#263238"/>
<path d="M65.1909 20.1582C65.1201 20.7159 64.9583 21.2612 64.7109 21.7662C64.781 21.2083 64.9443 20.6635 65.1909 20.1582Z" fill="#263238"/>
<path d="M62.6858 23.356C62.034 25.331 60.3689 33.2835 62.1637 35.3651C64.3381 37.8869 67.6706 39.9756 69.2195 40.8196C69.5977 41.0257 73.1708 36.04 72.2784 35.5128C70.8926 34.6942 67.1424 31.7877 66.91 31.5327C66.506 31.0895 66.0181 26.6071 65.5118 23.7444C65.0557 21.1655 63.07 22.1922 62.6858 23.356Z" fill="#D3766A"/>
<path d="M72.1707 35.4824C72.1707 35.4824 74.4827 36.1014 75.9755 36.5775C76.8083 36.8429 78.1959 37.4257 78.7183 37.9004C79.5 38.6108 82.316 42.0812 81.4892 42.7821C80.7408 43.4165 78.7002 40.1277 78.7002 40.1277C78.7002 40.1277 81.0526 43.2643 80.0112 43.8625C78.9696 44.4607 77.1582 40.4384 77.1582 40.4384C77.1582 40.4384 79.503 43.7153 78.3314 44.1622C77.446 44.4999 75.6001 40.9494 75.6001 40.9494C75.6001 40.9494 77.596 43.7798 76.7003 44.1664C75.7106 44.5938 73.8011 41.4231 73.8011 41.4231C71.359 42.0228 69.9511 41.3092 69.01 40.6824C68.7821 40.531 72.1707 35.4824 72.1707 35.4824Z" fill="#D3766A"/>
<path d="M77.9557 38.9899C78.2455 39.3482 78.541 39.7092 78.798 40.0921C79.055 40.475 79.2985 40.8673 79.5185 41.2723C80.0581 42.266 80.2406 42.9727 80.2247 42.9302C79.8458 41.9271 78.9477 40.5418 78.6907 40.1589C78.4344 39.7767 78.1973 39.3817 77.9413 38.999C77.9343 38.9896 77.9487 38.9814 77.9557 38.9899Z" fill="#263238"/>
<path d="M76.5561 39.8936C76.9062 40.3674 77.2709 40.8248 77.6004 41.3139C77.9279 41.8008 78.1964 42.2915 78.4896 42.7995C78.5122 42.8388 78.4839 42.838 78.4596 42.7995C78.1462 42.3034 77.8182 41.8691 77.4991 41.3767C77.181 40.8861 76.8799 40.3793 76.5444 39.9008C76.5389 39.8936 76.5506 39.8864 76.5561 39.8936Z" fill="#263238"/>
<path d="M75.215 40.4484C75.7871 41.1449 76.2299 41.9462 76.6455 42.7425C76.6661 42.7822 76.6296 42.7773 76.606 42.7378C76.1449 41.9663 75.7886 41.3577 75.1907 40.4683C75.1815 40.4544 75.2031 40.4337 75.215 40.4484Z" fill="#263238"/>
<path d="M71.8689 35.0758L68.9537 41.6C68.9537 41.6 62.8191 37.3657 61.7062 35.1058C60.593 32.846 61.4986 27.3314 62.2793 24.3457C63.0599 21.3601 65.1842 20.2328 65.8829 25.0345C66.5817 29.8365 66.7537 31.3117 66.9107 31.5337C67.0676 31.7554 71.8689 35.0758 71.8689 35.0758Z" fill="#455A64"/>
<path d="M66.8098 39.9879C66.7189 39.8595 62.0743 36.0992 61.4752 34.3576C61.2142 33.599 61.1787 31.3449 61.3073 29.9464C61.3565 29.4108 61.456 28.8809 61.539 28.3495C61.7061 27.2776 61.896 26.2057 61.9926 25.1245C61.9939 25.1111 61.9757 25.1091 61.9723 25.1216C61.785 25.7917 61.6405 26.4751 61.5194 27.1621C61.5151 27.1239 61.5112 27.0857 61.5072 27.0472C61.4727 26.7184 61.4257 26.3884 61.4243 26.0574C61.4243 26.0336 61.3863 26.0376 61.3873 26.0617C61.4014 26.3892 61.382 26.7174 61.387 27.0449C61.3892 27.2036 61.392 27.3613 61.4071 27.5192C61.4128 27.5786 61.4188 27.6431 61.4272 27.7077C61.3937 27.921 61.3607 28.1343 61.3311 28.3478C61.2559 28.8906 61.2125 29.4361 61.1476 29.9802C60.9691 31.4782 60.9676 33.4773 61.3043 34.5378C61.8737 36.3313 66.7214 39.9795 66.7755 40.0271C66.7951 40.0448 66.8257 40.0102 66.8098 39.9879Z" fill="#263238"/>
<path d="M67.7897 40.0877C68.0432 39.6474 68.2364 39.1679 68.445 38.7051C68.6504 38.2487 68.8527 37.7908 69.0521 37.3317C69.4544 36.4053 69.882 35.4816 70.2231 34.5303C70.2311 34.508 70.2013 34.4928 70.1896 34.5142C69.6942 35.4044 69.2888 36.3497 68.8776 37.2806C68.6712 37.7476 68.4718 38.2179 68.2779 38.6902C68.0914 39.1448 67.8873 39.602 67.7527 40.0755C67.7465 40.0978 67.7793 40.1058 67.7897 40.0877Z" fill="#263238"/>
<path d="M65.9746 25.4512C66.3739 27.3981 66.6699 29.4015 66.9952 31.3633C67.017 31.4535 67.0009 31.4825 67.0758 31.5568C67.7726 32.188 68.5759 32.7102 69.3186 33.2976C68.6471 32.9307 67.9986 32.5289 67.3686 32.0891C67.1429 31.8992 66.794 31.7495 66.7595 31.4095C66.4087 29.4362 66.1589 27.4468 65.9746 25.4512Z" fill="#263238"/>
<path d="M66.3573 25.959C66.4775 26.3719 66.4417 26.8268 66.2815 27.2251C66.2731 26.7973 66.3076 26.3863 66.3573 25.959Z" fill="#263238"/>
<path d="M120.531 93.4307H147.295L143.391 66.1699H124.433L120.531 93.4307Z" fill="#37474F"/>
<path d="M124.433 66.1699L127.407 93.432H120.53L124.433 66.1699Z" fill="#455A64"/>
<path d="M138.051 68.0504L138.888 67.8733C138.883 67.8505 138.398 65.5601 137.88 63.2481C137.319 60.7492 134.862 59.5995 132.808 59.9308C131.271 60.1793 129.567 61.3786 129.824 63.9411C130.098 66.6844 130.306 67.9764 130.315 68.0302L131.159 67.8934C131.157 67.8805 130.946 66.5687 130.674 63.856C130.477 61.8867 131.718 60.9731 132.945 60.7747C134.605 60.5063 136.595 61.4278 137.045 63.4351C137.563 65.7419 138.046 68.0275 138.051 68.0504Z" fill="#263238"/>
<path d="M127.046 93.2271C126.495 92.8357 125.926 92.4769 125.356 92.1184C124.784 91.7646 124.206 91.4211 123.621 91.0887L123.541 91.043L123.468 91.0974C123.015 91.4363 122.563 91.7762 122.124 92.1343C121.681 92.4864 121.243 92.8454 120.819 93.2236C121.306 92.9308 121.779 92.6187 122.246 92.2996C122.718 91.9865 123.177 91.6555 123.635 91.3233L123.481 91.3318C124.062 91.6717 124.648 92.0007 125.241 92.319C125.836 92.6324 126.432 92.9462 127.046 93.2271Z" fill="white"/>
<path d="M123.552 91.2083C123.67 89.4701 123.756 87.7305 123.838 85.9911C123.921 84.2515 123.978 82.5111 124.049 80.7712C124.097 79.0306 124.157 77.2902 124.194 75.5491L124.243 72.9371C124.249 72.0661 124.264 71.1955 124.262 70.3242C124.2 71.1933 124.156 72.0631 124.103 72.9324L123.975 75.5416C123.893 77.2813 123.835 79.0216 123.764 80.7615C123.717 82.5021 123.656 84.2425 123.62 85.9836C123.584 87.7248 123.552 89.4659 123.552 91.2083Z" fill="white"/>
<path d="M137.334 67.9602C137.334 68.5874 137.843 69.0962 138.47 69.0962C139.097 69.0962 139.606 68.5877 139.606 67.9602C139.606 67.333 139.097 66.8242 138.47 66.8242C137.843 66.8242 137.334 67.3328 137.334 67.9602Z" fill="#263238"/>
<path d="M129.688 67.9602C129.688 68.5874 130.197 69.0962 130.824 69.096C131.452 69.096 131.96 68.5874 131.96 67.96C131.96 67.3328 131.452 66.8242 130.824 66.8242C130.197 66.8242 129.688 67.3328 129.688 67.9602Z" fill="#263238"/>
<path d="M131.553 93.4263L154.832 93.4266L151.436 69.7148H134.947L131.553 93.4263Z" fill="#E74C3C"/>
<path d="M134.947 69.7148L137.533 93.4276H131.552L134.947 69.7148Z" fill="#E74C3C"/>
<path opacity="0.1" d="M134.947 69.7148L137.533 93.4276H131.552L134.947 69.7148Z" fill="black"/>
<path d="M146.791 71.3513L147.519 71.1973C147.514 71.1775 147.093 69.1853 146.642 67.1743C146.155 65.0006 144.017 64.0007 142.231 64.2887C140.894 64.5047 139.411 65.5481 139.635 67.7769C139.874 70.1631 140.054 71.287 140.062 71.3336L140.796 71.2145C140.794 71.2033 140.611 70.0621 140.375 67.7027C140.203 65.9899 141.282 65.1953 142.35 65.0227C143.794 64.7893 145.525 65.5908 145.916 67.3367C146.366 69.3432 146.787 71.3314 146.791 71.3513Z" fill="#263238"/>
<path d="M137.218 93.2455C136.739 92.9051 136.243 92.5932 135.748 92.2811C135.25 91.9732 134.747 91.6747 134.239 91.3854L134.169 91.3457L134.106 91.3929C133.712 91.6876 133.318 91.9834 132.937 92.2947C132.551 92.6011 132.17 92.9133 131.802 93.2423C132.225 92.9877 132.636 92.7161 133.043 92.4387C133.453 92.1663 133.852 91.8783 134.251 91.5893L134.117 91.5967C134.622 91.8925 135.132 92.1785 135.648 92.4554C136.165 92.7285 136.683 93.0014 137.218 93.2455Z" fill="white"/>
<path d="M134.178 91.4913C134.28 89.9793 134.356 88.4664 134.427 86.9532C134.499 85.44 134.548 83.9264 134.61 82.4129C134.652 80.899 134.704 79.3851 134.736 77.8707L134.779 75.5989C134.784 74.8413 134.798 74.084 134.795 73.3262C134.741 74.0823 134.704 74.8386 134.657 75.5947L134.545 77.8642C134.474 79.3774 134.424 80.8911 134.362 82.4045C134.322 83.9187 134.268 85.4323 134.237 86.9468C134.206 88.4612 134.178 89.9758 134.178 91.4913Z" fill="white"/>
<path d="M146.167 71.2751C146.167 71.8206 146.609 72.2631 147.155 72.2631C147.701 72.2631 148.143 71.8206 148.143 71.2751C148.143 70.7293 147.701 70.2871 147.155 70.2871C146.609 70.2871 146.167 70.7293 146.167 71.2751Z" fill="#263238"/>
<path d="M139.518 71.2751C139.518 71.8209 139.96 72.2631 140.506 72.2631C141.051 72.2631 141.494 71.8209 141.494 71.2751C141.494 70.7293 141.051 70.2871 140.506 70.2871C139.96 70.2871 139.518 70.7293 139.518 71.2751Z" fill="#263238"/>
<path d="M87.655 8.41028C87.3324 11.4947 84.5688 13.7347 81.4843 13.4122C80.2378 13.2818 79.1296 12.7527 78.2715 11.9626L75.4619 12.375L76.8676 9.94606C76.5264 9.11622 76.3829 8.19252 76.4822 7.24176C76.8047 4.1573 79.5684 1.91733 82.6526 2.23988C85.7376 2.56243 87.9775 5.32607 87.655 8.41028Z" fill="white"/>
<path d="M87.6552 8.41106C87.5378 9.43632 87.1631 10.4415 86.5217 11.2579C86.3745 11.4719 86.1848 11.6505 86.0127 11.8439C85.8175 12.014 85.6355 12.2005 85.42 12.3457C85.0093 12.6621 84.5477 12.9101 84.0652 13.1001C83.585 13.3022 83.0685 13.3985 82.5533 13.4606C82.2935 13.4745 82.0333 13.4984 81.7731 13.4755C81.5124 13.4696 81.2526 13.4417 80.9959 13.3946C79.9682 13.2086 78.9948 12.7274 78.2174 12.0227L78.2839 12.043L75.4771 12.4741L75.2734 12.5054L75.3765 12.3259L76.774 9.89221L76.7675 9.9883C76.0866 8.38524 76.2401 6.47626 77.1134 4.9827C77.5487 4.2348 78.1558 3.5902 78.8724 3.10973C79.5885 2.62777 80.4188 2.32558 81.2693 2.21036C82.1202 2.09739 82.9963 2.17486 83.809 2.44501C84.6207 2.7184 85.3648 3.17801 85.9747 3.77295C87.2145 4.95191 87.8377 6.7201 87.6552 8.41106ZM87.6552 8.41106C87.8258 6.71861 87.1904 4.9611 85.9499 3.79828C85.3341 3.21675 84.5886 2.776 83.7841 2.5205C82.9784 2.26822 82.1165 2.20813 81.2862 2.33328C80.4568 2.46066 79.6536 2.7693 78.9667 3.24952C78.2817 3.73074 77.7039 4.3597 77.2865 5.08227C76.8609 5.80335 76.6404 6.62947 76.5736 7.45856C76.5209 8.29064 76.6568 9.13264 76.9689 9.90512L76.9892 9.95528L76.9624 10.0012L75.5483 12.4254L75.4477 12.2772L78.2601 11.8834L78.2988 11.8779L78.3264 11.904C79.0698 12.6017 80.0106 13.0889 81.0155 13.2893C81.2666 13.3399 81.5213 13.3717 81.7773 13.3819C82.0331 13.409 82.2893 13.3898 82.5458 13.3807C83.0544 13.3283 83.5671 13.2424 84.0458 13.0504C84.5263 12.8704 84.9911 12.6343 85.4006 12.3204C85.6159 12.1774 85.7981 11.9931 85.9938 11.8253C86.1661 11.6341 86.3566 11.4573 86.5046 11.2452C87.1494 10.436 87.5308 9.43582 87.6552 8.41106Z" fill="#263238"/>
<path d="M81.4123 11.0319L79.0137 8.60397L79.8194 7.80765L81.2209 9.22598L84.132 4.66211L85.087 5.27121L81.4123 11.0319Z" fill="#E74C3C"/>
</svg>
